<svg width="0" height="0" class="hidden">
    <symbol fill="none" xmlns="http://www.w3.org/2000/svg" viewBox="0 0 24 25" id="arrow-down">
        <path d="M20.0257 6.47224C20.3413 6.11016 20.8997 6.02736 21.3187 6.29541C21.7376 6.56354 21.8683 7.08727 21.6357 7.50237L21.5843 7.58398L14.3604 17.82C13.7969 18.6184 12.9589 19.1376 12 19.1376C11.101 19.1376 10.308 18.6818 9.74817 17.9669L9.63962 17.82L2.41567 7.58398L2.36426 7.50237C2.13167 7.08727 2.26244 6.56354 2.68132 6.29541C3.1003 6.02736 3.6587 6.11016 3.97434 6.47224L4.03432 6.54841L11.2583 16.7844L11.3659 16.9232C11.6172 17.2149 11.855 17.2804 12 17.2804C12.1656 17.2804 12.4521 17.1947 12.7417 16.7844L19.9657 6.54841L20.0257 6.47224Z" fill="currentColor"></path>
    </symbol>
    <symbol fill="none" xmlns="http://www.w3.org/2000/svg" viewBox="0 0 24 25" id="arrow-left">
        <path d="M18.1653 20.6632C18.5274 20.9789 18.6102 21.5373 18.3422 21.9562C18.074 22.3751 17.5503 22.5059 17.1352 22.2733L17.0536 22.2219L6.81759 14.9979C6.01914 14.4345 5.5 13.5965 5.5 12.6376C5.50001 11.7386 5.95577 10.9456 6.67069 10.3857L6.81759 10.2772L17.0536 3.05325L17.1352 3.00183C17.5503 2.76925 18.074 2.90001 18.3422 3.3189C18.6102 3.73787 18.5274 4.29627 18.1653 4.61191L18.0892 4.6719L7.85316 11.8958L7.71442 12.0034C7.42272 12.2547 7.35714 12.4926 7.35714 12.6376C7.35714 12.8032 7.44285 13.0897 7.85316 13.3793L18.0892 20.6032L18.1653 20.6632Z" fill="currentColor"></path>
    </symbol>
    <symbol fill="none" xmlns="http://www.w3.org/2000/svg" viewBox="0 0 24 25" id="arrow-right">
        <path d="M5.83466 4.61192C5.47259 4.29628 5.38978 3.73788 5.65784 3.3189C5.92596 2.90002 6.4497 2.76925 6.86479 3.00183L6.94641 3.05325L17.1824 10.2772C17.9809 10.8407 18.5 11.6786 18.5 12.6376C18.5 13.5366 18.0442 14.3295 17.3293 14.8894L17.1824 14.998L6.94641 22.2219L6.86479 22.2733C6.4497 22.5059 5.92596 22.3751 5.65784 21.9563C5.38978 21.5373 5.47259 20.9789 5.83466 20.6632L5.91084 20.6032L16.1468 13.3793L16.2856 13.2717C16.5773 13.0204 16.6429 12.7826 16.6429 12.6376C16.6429 12.4719 16.5571 12.1855 16.1468 11.8958L5.91084 4.6719L5.83466 4.61192Z" fill="currentColor"></path>
    </symbol>
    <symbol fill="none" xmlns="http://www.w3.org/2000/svg" viewBox="0 0 24 25" id="arrow-up">
        <path d="M3.97434 18.8029C3.65871 19.165 3.10031 19.2478 2.68133 18.9797C2.26245 18.7116 2.13168 18.1878 2.36426 17.7727L2.41568 17.6911L9.63963 7.45513C10.2031 6.65668 11.0411 6.13755 12 6.13755C12.899 6.13755 13.692 6.59331 14.2518 7.30823L14.3604 7.45513L21.5843 17.6911L21.6357 17.7727C21.8683 18.1878 21.7376 18.7116 21.3187 18.9797C20.8997 19.2478 20.3413 19.165 20.0257 18.8029L19.9657 18.7267L12.7417 8.4907L12.6341 8.35196C12.3828 8.06026 12.145 7.99468 12 7.99468C11.8344 7.99468 11.5479 8.08039 11.2583 8.4907L4.03433 18.7267L3.97434 18.8029Z" fill="currentColor"></path>
    </symbol>
    <symbol fill="none" xmlns="http://www.w3.org/2000/svg" viewBox="0 0 24 25" id="call">
        <path d="M1.25 7.17761C1.25 6.40991 1.38617 5.66608 1.66309 4.97253H1.66211C1.94316 4.25838 2.38423 3.61106 2.9834 3.04285L3.12695 2.90808C3.84786 2.25178 4.67883 1.88761 5.58984 1.88757C5.97487 1.88757 6.36692 1.96979 6.72461 2.14148L6.72363 2.14246C7.0886 2.31279 7.42132 2.57168 7.68066 2.94324H7.68164L9.99805 6.20886H9.99902C10.2062 6.49656 10.3678 6.77834 10.4844 7.06335H10.4834C10.6001 7.33878 10.6797 7.64627 10.6797 7.95789C10.6796 8.34066 10.5684 8.70602 10.3721 9.03601L10.373 9.03699C10.2012 9.34101 9.96434 9.63417 9.69043 9.90808L9.68945 9.9071L9.00684 10.618C9.01208 10.6304 9.01711 10.6468 9.02441 10.6649C9.17245 10.9288 9.44019 11.3055 9.85254 11.7928H9.85156C10.2925 12.3022 10.7609 12.8175 11.2656 13.3319H11.2646C11.7948 13.852 12.2976 14.3241 12.8047 14.7548L13.1562 15.0419C13.4809 15.2955 13.7449 15.4686 13.9492 15.578C13.9645 15.5847 13.9791 15.59 13.9912 15.5956L14.6797 14.9169L14.8936 14.7137C15.0984 14.5301 15.3145 14.3703 15.54 14.2469L15.666 14.1747C15.964 14.0167 16.2864 13.9277 16.6396 13.9276C16.9396 13.9276 17.2364 13.9914 17.5342 14.1132C17.7463 14.1999 17.9548 14.3115 18.1631 14.4413L18.3721 14.577L18.3779 14.5819L18.3838 14.5858L21.6865 16.9305L21.8174 17.0262C22.0699 17.2239 22.277 17.4601 22.4268 17.7411L22.4961 17.8856L22.502 17.8973L22.5068 17.9091C22.6342 18.2275 22.7197 18.5728 22.7197 18.9677C22.7197 19.4401 22.6149 19.9193 22.3984 20.3778C22.1987 20.8008 21.938 21.2032 21.5957 21.5809V21.5819C21.0397 22.1947 20.4096 22.6549 19.6846 22.952L19.6836 22.951C18.9901 23.2393 18.2436 23.3875 17.4502 23.3876C16.3117 23.3876 15.1216 23.1195 13.8965 22.5975C12.689 22.0831 11.4895 21.3938 10.3086 20.5341L10.3076 20.5331C9.12673 19.6705 8.00837 18.7158 6.94238 17.66L6.9375 17.6552C5.88189 16.5893 4.92634 15.4704 4.07324 14.2987L4.07129 14.2958C3.22492 13.1191 2.5347 11.9309 2.0293 10.7411L2.02832 10.7382C1.5169 9.52337 1.25001 8.33443 1.25 7.17761ZM2.75 7.17761C2.75001 8.09991 2.96243 9.09009 3.41016 10.1542L3.58887 10.5565C4.02436 11.4964 4.59291 12.4517 5.28613 13.4159L5.59375 13.83C6.31987 14.7875 7.12128 15.7089 7.99805 16.5946L8.37988 16.9667C9.27742 17.8237 10.2125 18.6061 11.1914 19.3212L11.6035 19.6132C12.5656 20.2764 13.5283 20.8103 14.4844 21.2177C15.5589 21.6755 16.5489 21.8876 17.4502 21.8876C18.0548 21.8875 18.6063 21.7757 19.1113 21.5653L19.1152 21.5634L19.2988 21.4823C19.6619 21.3079 20.0011 21.0653 20.3242 20.7421L20.4844 20.5731C20.7218 20.3111 20.9018 20.034 21.042 19.7372C21.1654 19.4758 21.2197 19.2151 21.2197 18.9677C21.2197 18.8076 21.1872 18.6576 21.1191 18.4833C21.0724 18.3804 20.9929 18.2746 20.833 18.1639L20.8262 18.1591L17.5283 15.8182L17.3691 15.7137C17.2165 15.6186 17.0837 15.55 16.9658 15.5018C16.8236 15.4437 16.7197 15.4276 16.6396 15.4276C16.5436 15.4277 16.4472 15.451 16.3203 15.5282L16.2988 15.5409L16.2773 15.5526C16.1393 15.6246 15.9598 15.7579 15.7402 15.9774L15.7373 15.9813L15.21 15.4471L15.7363 15.9813L14.9766 16.7313C14.7341 16.9721 14.4177 17.118 14.04 17.118C13.8919 17.118 13.716 17.1013 13.5264 17.0302L13.5107 17.0233L13.4941 17.0165C13.449 16.9971 13.4071 16.9782 13.3799 16.9657C13.3475 16.9509 13.3362 16.9463 13.3311 16.9442L13.2939 16.9296L13.2588 16.91C12.8535 16.6954 12.3778 16.3588 11.8359 15.9003L11.835 15.8993C11.2855 15.4327 10.7511 14.9284 10.2051 14.3925L10.1992 14.3876L10.1943 14.3827C9.66103 13.8391 9.17045 13.2972 8.71289 12.7684L8.70703 12.7616C8.25395 12.2261 7.90679 11.7512 7.69141 11.3563L7.65918 11.2977L7.63867 11.2352C7.63866 11.2352 7.63604 11.2279 7.62305 11.1971C7.61102 11.1687 7.58888 11.1187 7.56738 11.0614L7.55273 11.0214L7.54199 10.9794C7.50971 10.8502 7.49023 10.7182 7.49023 10.5673C7.49031 10.2299 7.60431 9.90774 7.85938 9.64734L8.61914 8.8573L8.625 8.85242L8.62988 8.84753C8.8359 8.64152 8.97927 8.4546 9.06738 8.29871L9.0791 8.27722C9.15472 8.15293 9.17963 8.04681 9.17969 7.95789C9.17969 7.89369 9.16124 7.78505 9.10059 7.64343L9.0957 7.63171C9.03232 7.47678 8.93408 7.29808 8.78125 7.08582L8.77832 7.08191L6.45801 3.8114L6.45312 3.80457C6.35566 3.6638 6.23435 3.56746 6.08594 3.4989L6.0752 3.49402C5.9329 3.42574 5.76478 3.38757 5.58984 3.38757C5.08176 3.38762 4.56287 3.59367 4.03613 4.11218L4.03027 4.11804L4.02441 4.12292C3.56968 4.55193 3.25475 5.02131 3.05762 5.52234L3.05664 5.52625C2.85443 6.03178 2.75 6.5865 2.75 7.17761Z" fill="currentColor"></path>
        <path d="M17.75 9.63757C17.75 9.50745 17.6901 9.25124 17.5107 8.90222C17.339 8.56814 17.0866 8.20691 16.7812 7.87976L16.7803 7.87781C16.2029 7.2553 15.5379 6.88757 15 6.88757C14.5858 6.88757 14.25 6.55179 14.25 6.13757C14.25 5.72336 14.5858 5.38757 15 5.38757C16.141 5.38757 17.1754 6.09866 17.8779 6.85535L18.1621 7.18152C18.4335 7.5149 18.666 7.86813 18.8447 8.2157C19.0752 8.66393 19.25 9.16776 19.25 9.63757C19.25 10.0518 18.9142 10.3876 18.5 10.3876C18.0858 10.3876 17.75 10.0518 17.75 9.63757Z" fill="currentColor"></path>
        <path d="M21.25 9.63757C21.25 6.18179 18.4558 3.38757 15 3.38757C14.5858 3.38757 14.25 3.05179 14.25 2.63757C14.25 2.22336 14.5858 1.88757 15 1.88757C19.2842 1.88757 22.75 5.35336 22.75 9.63757C22.75 10.0518 22.4142 10.3876 22 10.3876C21.5858 10.3876 21.25 10.0518 21.25 9.63757Z" fill="currentColor"></path>
    </symbol>
    <symbol fill="none" xmlns="http://www.w3.org/2000/svg" viewBox="0 0 24 25" id="chevron-down">
        <path d="M20.242 7.92093C20.6215 7.6727 21.1367 7.71594 21.4684 8.05042C21.8002 8.3849 21.8378 8.89942 21.5865 9.27683L21.4627 9.43108L14.2376 16.5952C13.0814 17.7421 11.2438 17.8139 10.0023 16.8104L9.76238 16.5952L2.53728 9.43108L2.41349 9.27683C2.16221 8.89942 2.19984 8.3849 2.53156 8.05042C2.86334 7.71594 3.37851 7.6727 3.75797 7.92093L3.91222 8.04471L11.1354 15.2108L11.3259 15.365C11.7991 15.6731 12.4506 15.6214 12.8646 15.2108L20.0878 8.04471L20.242 7.92093Z" fill="currentColor"></path>
    </symbol>
    <symbol fill="none" xmlns="http://www.w3.org/2000/svg" viewBox="0 0 24 25" id="chevron-right">
        <path d="M7.28332 4.39554C7.0351 4.01609 7.07834 3.50091 7.41282 3.16914C7.7473 2.83742 8.26182 2.79979 8.63922 3.05107L8.79347 3.17485L15.9576 10.4C17.1045 11.5562 17.1763 13.3938 16.1728 14.6352L15.9576 14.8752L8.79348 22.1003L8.63922 22.2241C8.26182 22.4754 7.7473 22.4377 7.41282 22.106C7.07834 21.7742 7.0351 21.2591 7.28332 20.8796L7.40711 20.7254L14.5732 13.5022L14.7274 13.3117C15.0355 12.8385 14.9838 12.187 14.5732 11.773L7.40711 4.5498L7.28332 4.39554Z" fill="currentColor"></path>
    </symbol>
    <symbol fill="none" xmlns="http://www.w3.org/2000/svg" viewBox="0 0 24 25" id="chevron-left">
        <path d="M16.7167 20.8796C16.9649 21.2591 16.9217 21.7742 16.5872 22.106C16.2527 22.4377 15.7382 22.4754 15.3608 22.2241L15.2065 22.1003L8.04236 14.8752C6.89553 13.719 6.82368 11.8813 7.82716 10.6399L8.04236 10.4L15.2065 3.17485L15.3608 3.05107C15.7382 2.79978 16.2527 2.83741 16.5872 3.16914C16.9217 3.50091 16.9649 4.01608 16.7167 4.39554L16.5929 4.54979L9.42682 11.773L9.27257 11.9634C8.96446 12.4367 9.0162 13.0882 9.42682 13.5021L16.5929 20.7253L16.7167 20.8796Z" fill="currentColor"></path>
    </symbol>
    <symbol fill="none" xmlns="http://www.w3.org/2000/svg" viewBox="0 0 24 25" id="chevron-up">
        <path d="M3.75797 17.3542C3.37852 17.6024 2.86334 17.5592 2.53157 17.2247C2.19985 16.8902 2.16221 16.3757 2.4135 15.9983L2.53728 15.8441L9.76239 8.6799C10.9186 7.53308 12.7562 7.46122 13.9977 8.46471L14.2376 8.6799L21.4627 15.8441L21.5865 15.9983C21.8378 16.3757 21.8002 16.8902 21.4684 17.2247C21.1367 17.5592 20.6215 17.6024 20.242 17.3542L20.0878 17.2304L12.8646 10.0644L12.6741 9.91011C12.2009 9.602 11.5494 9.65374 11.1354 10.0644L3.91223 17.2304L3.75797 17.3542Z" fill="currentColor"></path>
    </symbol>
    <symbol fill="none" xmlns="http://www.w3.org/2000/svg" viewBox="0 0 24 25" id="clock">
        <path d="M21.25 12.6376C21.25 7.53179 17.1058 3.38757 12 3.38757C6.89421 3.38757 2.75 7.53179 2.75 12.6376C2.75 17.7434 6.89421 21.8876 12 21.8876C17.1058 21.8876 21.25 17.7434 21.25 12.6376ZM22.75 12.6376C22.75 18.5718 17.9342 23.3876 12 23.3876C6.06579 23.3876 1.25 18.5718 1.25 12.6376C1.25 6.70336 6.06579 1.88757 12 1.88757C17.9342 1.88757 22.75 6.70336 22.75 12.6376Z" fill="currentColor"></path>
        <path d="M10.88 12.2472V8.14758C10.88 7.73337 11.2158 7.39758 11.63 7.39758C12.0442 7.39758 12.38 7.73337 12.38 8.14758V12.2472C12.38 12.4007 12.4391 12.6241 12.5695 12.8527C12.6671 13.0238 12.782 13.1587 12.8888 13.2482L12.9923 13.3224L12.9943 13.3234L16.0939 15.174L16.1583 15.2159C16.4634 15.4427 16.5526 15.8688 16.3536 16.2023C16.1545 16.5354 15.738 16.6579 15.3937 16.4972L15.3253 16.462L12.2257 14.6115V14.6105C11.8183 14.3683 11.4899 13.9888 11.2657 13.5958C11.0411 13.2019 10.88 12.7236 10.88 12.2472Z" fill="currentColor"></path>
    </symbol>
    <symbol fill="none" xmlns="http://www.w3.org/2000/svg" viewBox="0 0 24 25" id="close">
        <path fill-rule="evenodd" clip-rule="evenodd" d="M3.29296 3.9304C3.68352 3.53991 4.31669 3.53997 4.70717 3.93053L11.9986 11.2234L19.293 3.9304C19.6835 3.53991 20.3167 3.53997 20.7072 3.93053C21.0977 4.3211 21.0976 4.95426 20.707 5.34475L13.4135 12.6369L20.7071 19.9305C21.0976 20.321 21.0976 20.9542 20.7071 21.3447C20.3166 21.7352 19.6834 21.7352 19.2929 21.3447L12 14.0518L4.70711 21.3447C4.31658 21.7352 3.68342 21.7352 3.29289 21.3447C2.90237 20.9542 2.90237 20.321 3.29289 19.9305L10.5851 12.6383L3.29283 5.34461C2.90234 4.95405 2.9024 4.32089 3.29296 3.9304Z" fill="currentColor"></path>
    </symbol>
    <symbol fill="none" xmlns="http://www.w3.org/2000/svg" viewBox="0 0 24 25" id="export">
        <path d="M18.8681 4.48935C19.2256 4.19783 19.7531 4.21897 20.0863 4.55215C20.4194 4.88534 20.4406 5.41288 20.1491 5.7703L20.0863 5.83903L13.4528 12.4725C13.0974 12.8278 12.5213 12.8278 12.1659 12.4725C11.8105 12.1171 11.8106 11.541 12.1659 11.1856L18.7994 4.55215L18.8681 4.48935Z" fill="currentColor"></path>
        <path d="M19.1799 8.43148V5.45839H16.2068C15.7042 5.45839 15.2968 5.05094 15.2968 4.54833C15.2968 4.04572 15.7042 3.63828 16.2068 3.63828H20.09L20.1824 3.64302C20.6415 3.68945 21 4.07701 21 4.54833V8.43148C20.9999 8.9339 20.5924 9.34141 20.09 9.34154C19.5874 9.34154 19.18 8.93398 19.1799 8.43148Z" fill="currentColor"></path>
        <path d="M3 15.065V10.2114C3 8.09929 3.41652 6.38335 4.58075 5.21912C5.74498 4.05489 7.46092 3.63837 9.57303 3.63837H11.1905L11.2841 3.64311C11.7428 3.68997 12.1006 4.07742 12.1006 4.54842C12.1006 5.01943 11.7428 5.40688 11.2841 5.45374L11.1905 5.45848H9.57303C7.64044 5.45848 6.52351 5.85011 5.86763 6.506C5.21174 7.16188 4.82011 8.27881 4.82011 10.2114V15.065C4.82017 16.9972 5.21191 18.1134 5.86763 18.7693C6.52351 19.4251 7.64044 19.8168 9.57303 19.8168H14.4267C16.359 19.8167 17.475 19.4251 18.1309 18.7693C18.7867 18.1134 19.1784 16.9974 19.1784 15.065V13.4464C19.1786 12.9441 19.5862 12.5365 20.0885 12.5363C20.5909 12.5363 20.9983 12.9439 20.9985 13.4464V15.065C20.9985 17.177 20.5819 18.892 19.4178 20.0561C18.2536 21.2203 16.5386 21.6368 14.4267 21.6369H9.57303C7.46092 21.6369 5.74498 21.2204 4.58075 20.0561C3.41675 18.892 3.00005 17.1768 3 15.065Z" fill="currentColor"></path>
    </symbol>
    <symbol fill="none" xmlns="http://www.w3.org/2000/svg" viewBox="0 0 24 25" id="judge">
        <path d="M14.561 13.6986C14.8194 13.4401 15.2281 13.4242 15.5054 13.6503L15.5592 13.6986L20.5093 18.6487L20.5576 18.7018C20.7839 18.9791 20.7678 19.3884 20.5093 19.6469C20.2508 19.9054 19.8415 19.9215 19.5642 19.6951L19.5111 19.6469L14.561 14.6967L14.5128 14.643C14.2866 14.3657 14.3026 13.957 14.561 13.6986Z" fill="currentColor"></path>
        <path d="M11.1211 3.00228C12.1826 2.04363 13.8257 2.07615 14.8484 3.09878L19.0885 7.33821L19.1843 7.43955C20.1122 8.46684 20.1123 10.039 19.1843 11.0662L19.0885 11.1668L12.0186 18.2367C10.996 19.2593 9.35285 19.2912 8.29139 18.3325L8.19005 18.2367L3.95062 13.9965C2.89496 12.9409 2.89496 11.2243 3.95062 10.1686L11.0205 3.09878L11.1211 3.00228ZM13.8502 4.09695C13.3774 3.6241 12.6244 3.59423 12.1165 4.00802L12.0186 4.09695L4.94878 11.1668C4.44445 11.6711 4.44445 12.494 4.94878 12.9984L9.1889 17.2385L9.28679 17.3274C9.79462 17.741 10.5477 17.7113 11.0205 17.2385L18.0903 10.1686L18.1793 10.0701C18.5651 9.59616 18.5652 8.90882 18.1793 8.43495L18.0903 8.33707L13.8502 4.09695Z" fill="currentColor"></path>
        <path d="M7.99971 20.9317L8.07209 20.9351C8.42794 20.9714 8.70559 21.2722 8.70559 21.6376C8.70559 22.003 8.42794 22.3038 8.07209 22.34L7.99971 22.3435H1.99971C1.60986 22.3435 1.29382 22.0274 1.29382 21.6376C1.29382 21.2477 1.60986 20.9317 1.99971 20.9317H7.99971Z" fill="currentColor"></path>
        <path d="M6.06064 8.05856C6.31907 7.80013 6.72778 7.78418 7.00503 8.01031L7.0588 8.05856L14.1287 15.1284L14.1776 15.1822C14.4036 15.4594 14.387 15.8682 14.1287 16.1266C13.8703 16.3849 13.4615 16.4015 13.1843 16.1755L13.1305 16.1266L6.06064 9.05673L6.01238 9.00296C5.78626 8.72571 5.80221 8.317 6.06064 8.05856Z" fill="currentColor"></path>
    </symbol>
    <symbol fill="none" xmlns="http://www.w3.org/2000/svg" viewBox="0 0 24 25" id="location">
        <path d="M14.3701 10.9476C14.3701 9.63881 13.3088 8.57758 12 8.57751C10.6911 8.57751 9.62988 9.63877 9.62988 10.9476C9.62997 12.2565 10.6912 13.3177 12 13.3177C13.3088 13.3177 14.37 12.2565 14.3701 10.9476ZM15.8701 10.9476C15.87 13.0849 14.1372 14.8177 12 14.8177C9.86275 14.8177 8.12997 13.085 8.12988 10.9476C8.12988 8.81032 9.8627 7.07751 12 7.07751C14.1372 7.07758 15.8701 8.81036 15.8701 10.9476Z" fill="currentColor"></path>
        <path d="M12.0049 1.88758C15.9853 1.89027 20.0407 4.23769 21.1123 8.97156L21.2149 9.48426C22.141 14.7455 18.8404 19.1064 16.1201 21.7186C13.8187 23.9384 10.1801 23.9362 7.8711 21.7186L7.87013 21.7177C5.07238 19.0213 1.64696 14.4513 2.88966 8.96179V8.96082L2.99903 8.52429C4.21994 4.083 8.1487 1.88499 12.0049 1.88758ZM12.0039 3.38758C8.5876 3.38527 5.24528 5.36723 4.35157 9.29187L4.35255 9.29285C3.29538 13.9628 6.18821 18.013 8.91017 20.6366L9.0752 20.788C10.8096 22.2971 13.4152 22.2445 15.0801 20.6376L15.0811 20.6366L15.5947 20.1288C18.0743 17.5936 20.4752 13.9348 19.7373 9.73914L19.6494 9.30359C18.7609 5.37774 15.4209 3.38989 12.0039 3.38758Z" fill="currentColor"></path>
    </symbol>
    <symbol fill="none" xmlns="http://www.w3.org/2000/svg" viewBox="0 0 24 25" id="message">
        <path d="M21.4286 10.8775C21.4286 6.67962 17.7727 3.20915 13.1708 3.20899C8.6341 3.20899 5.01829 6.58159 4.9163 10.6989C5.7029 10.3484 6.57706 10.1566 7.50001 10.1565C10.8186 10.1565 13.5714 12.6762 13.5714 15.8675C13.5714 16.8338 13.3112 17.7443 12.856 18.5405L13.1708 18.546L13.2467 18.5516C13.3225 18.5618 13.3958 18.5871 13.4621 18.6264L17.6529 21.1164L17.6563 21.1186L17.7132 21.1476C17.9976 21.2668 18.3334 21.0397 18.2935 20.6978L17.9029 17.5371C17.8772 17.3275 17.97 17.1204 18.1429 16.9992C20.1454 15.5953 21.4286 13.3729 21.4286 10.8775ZM22.5714 10.8775C22.5714 13.6603 21.196 16.1214 19.0781 17.7268L19.4275 20.5572V20.5594L19.4375 20.6789C19.4968 21.908 18.1578 22.7541 17.0681 22.0974V22.0985L13.0089 19.6856C12.5798 19.6793 12.1579 19.6506 11.7433 19.594C11.5364 19.5658 11.3614 19.4264 11.2868 19.2313C11.2124 19.0364 11.25 18.8166 11.3851 18.6577C12.043 17.8841 12.4286 16.913 12.4286 15.8675C12.4285 13.3789 10.2614 11.2994 7.50001 11.2994C6.58143 11.2995 5.73072 11.5275 4.99889 11.9322L4.69197 12.1164C4.52657 12.224 4.31722 12.2389 4.1384 12.1554C3.98197 12.0823 3.8677 11.9431 3.8259 11.7782L3.81251 11.7056C3.77895 11.426 3.76898 11.1518 3.76898 10.8775C3.76901 5.97553 8.01284 2.06613 13.1708 2.06613C18.3285 2.0663 22.5714 5.97563 22.5714 10.8775Z" fill="currentColor"></path>
        <path d="M12.4286 15.8672C12.4284 13.3787 10.2613 11.2991 7.50002 11.2991C6.45003 11.2991 5.48844 11.5971 4.69198 12.1161L4.68752 12.1194C3.39697 12.944 2.57158 14.3197 2.57145 15.8672C2.57145 17.3439 3.32621 18.6652 4.52569 19.4978C4.67886 19.6041 4.76909 19.7777 4.77122 19.9609L4.76676 20.0391L4.51676 22.0033L4.51787 22.0045C4.51626 22.0183 4.51843 22.0256 4.52122 22.0313C4.52512 22.039 4.53265 22.049 4.54466 22.0569C4.55673 22.0648 4.56736 22.0667 4.57256 22.067C4.57496 22.0671 4.58033 22.0671 4.59154 22.0603L4.59823 22.0558L7.20872 20.5067L7.2768 20.4721C7.34722 20.4422 7.42299 20.4263 7.50002 20.4263C9.09377 20.4263 10.5008 19.7292 11.3795 18.6641L11.3851 18.6574L11.6183 18.3583C12.133 17.6399 12.4286 16.7821 12.4286 15.8672ZM13.5714 15.8672C13.5714 17.1986 13.0788 18.4252 12.2601 19.3906L12.2612 19.3917C11.1911 20.6888 9.52373 21.5175 7.66296 21.5636L5.18194 23.0391L5.18082 23.0379C4.32064 23.558 3.26943 22.8344 3.38283 21.8705V21.8661L3.59042 20.2277C2.27165 19.1919 1.42859 17.6272 1.42859 15.8672C1.42873 13.8968 2.48126 12.1741 4.0681 11.1585L4.44533 10.9319C5.34723 10.4332 6.38866 10.1562 7.50002 10.1562C10.8185 10.1562 13.5712 12.676 13.5714 15.8672Z" fill="currentColor"></path>
    </symbol>
    <symbol fill="none" xmlns="http://www.w3.org/2000/svg" viewBox="0 0 72 25" id="logo">
        <g clip-path="url(#clip0_25_2556)">
            <path d="M10.9824 11.448L9.59012 10.0757V19.396L7.58076 17.4154V8.09513L4.7962 5.35049V14.6708L2.78737 12.6902V3.37047L0.00280762 0.625824V13.8276L10.9824 24.6498L12.3747 23.2708V13.9577L17.1686 9.23197L19.1774 7.25195V16.5197L21.962 13.775V0.625824L10.9824 11.448Z" fill="currentColor"></path>
            <path d="M13.8374 15.7016L14.3841 15.7019V21.2805L17.1686 18.5225V12.4182L13.8374 15.7016Z" fill="currentColor"></path>
            <path d="M34.3798 3.4238H36.066V11.0791H27.0347V3.4238H28.7212V9.53696H30.7295V3.4238H32.3715V9.53696H34.3798V3.4238Z" fill="currentColor"></path>
            <path d="M44.321 11.0791H42.2683L39.5279 7.33886V11.0791H37.8414V3.42389H39.5279V6.9563L42.0686 3.42389H44.0325L41.3806 7.08751L44.321 11.0791Z" fill="currentColor"></path>
            <path d="M48.3706 9.6793C48.8292 9.6793 49.2433 9.5755 49.6133 9.36762C49.9831 9.15998 50.2736 8.87016 50.4842 8.49815C50.6951 8.12638 50.8007 7.71088 50.8007 7.25164C50.8007 6.55887 50.5694 5.98126 50.1073 5.51823C49.6447 5.05523 49.0679 4.82373 48.3762 4.82373C47.6846 4.82373 47.104 5.05523 46.6342 5.51823C46.1647 5.98126 45.9298 6.55887 45.9298 7.25164C45.9298 7.94415 46.1647 8.52204 46.6342 8.98479C47.104 9.44805 47.6828 9.6793 48.3706 9.6793ZM48.3706 11.243C47.1871 11.243 46.2017 10.8625 45.4137 10.1003C44.6259 9.33871 44.2322 8.38881 44.2322 7.25164C44.2322 6.11423 44.6259 5.16458 45.4137 4.40268C46.2017 3.64107 47.1871 3.25974 48.3706 3.25974C49.1472 3.25974 49.8518 3.43318 50.4842 3.77932C51.1167 4.1257 51.6107 4.60328 51.9654 5.21209C52.3206 5.82088 52.4979 6.50082 52.4979 7.25164C52.4979 8.39635 52.1059 9.34777 51.322 10.1059C50.5378 10.8642 49.5542 11.243 48.3706 11.243Z" fill="currentColor"></path>
            <path d="M55.0057 3.4238H60.1648V11.0791H58.4895V4.96591H56.4703L56.1041 8.27939C56.0003 9.22728 55.7249 9.93436 55.2773 10.4009C54.83 10.8677 54.1993 11.1009 53.3858 11.1009H52.9531V9.4824H53.3971C53.9958 9.4824 54.3399 9.10713 54.4289 8.35604L55.0057 3.4238Z" fill="currentColor"></path>
            <path d="M65.0024 5.44706L63.9926 8.18113H66.023L65.0024 5.44706ZM67.0992 11.0791L66.5558 9.62471H63.4601L62.9276 11.0791H61.1522L64.1923 3.42383H65.779L68.9188 11.0791H67.0992Z" fill="currentColor"></path>
            <path d="M27.0347 14.3598H33.0815V22.0151H31.406V15.9017H28.7212V22.0151H27.0347V14.3598Z" fill="currentColor"></path>
            <path d="M36.5428 20.4732H39.6385V22.0151H34.8564V14.3598H39.5164V15.8909H36.5428V17.4H39.2277V18.8982H36.5428V20.4732Z" fill="currentColor"></path>
            <path d="M43.9767 18.0892C44.3095 18.0892 44.5775 17.9871 44.7813 17.783C44.9843 17.5789 45.0863 17.3165 45.0863 16.9955C45.0863 16.675 44.9843 16.4106 44.7813 16.203C44.5775 15.9951 44.3095 15.891 43.9767 15.891H42.745V18.0892H43.9767ZM44.0433 14.3602C44.8272 14.3602 45.4821 14.6101 46.0072 15.1093C46.5323 15.6085 46.7949 16.2357 46.7949 16.9902C46.7949 17.7448 46.5323 18.372 46.0072 18.8712C45.4821 19.3707 44.8272 19.6205 44.0433 19.6205H42.745V22.0153H41.0588V14.3602H44.0433Z" fill="currentColor"></path>
            <path d="M51.0997 20.4952C51.3733 20.4952 51.5952 20.4148 51.7656 20.2544C51.9357 20.0943 52.0206 19.8864 52.0206 19.6313C52.0206 19.3834 51.9357 19.1793 51.7656 19.0187C51.5952 18.8586 51.3733 18.7781 51.0997 18.7781H49.6132V20.4952H51.0997ZM51.8762 16.591C51.8762 16.4671 51.8561 16.3557 51.8153 16.2575C51.7747 16.1589 51.7174 16.0732 51.6434 16.0003C51.5695 15.9274 51.4787 15.8711 51.3716 15.8309C51.2644 15.7907 51.1441 15.7708 51.0112 15.7708H49.6132V17.4002H51.0112C51.2774 17.4002 51.4881 17.3255 51.6434 17.1759C51.7987 17.0266 51.8762 16.8316 51.8762 16.591ZM52.6308 17.9798C52.971 18.1547 53.2355 18.4008 53.4242 18.7181C53.6129 19.035 53.707 19.3977 53.707 19.8062C53.707 20.4185 53.4686 20.9399 52.9914 21.3699C52.5146 21.8003 51.9392 22.0152 51.2662 22.0152H47.9599V14.3599H51.1775C51.8433 14.3599 52.398 14.5477 52.8417 14.923C53.2855 15.2988 53.5076 15.7671 53.5076 16.3286C53.5076 16.6566 53.4298 16.9666 53.2742 17.2579C53.1192 17.5497 52.9045 17.7903 52.6308 17.9798Z" fill="currentColor"></path>
            <path d="M61.6955 14.3599H63.382V22.0151H61.6955V14.3599ZM57.9786 20.4622C58.3336 20.4622 58.6238 20.3584 58.8495 20.1505C59.0752 19.9427 59.1879 19.675 59.1879 19.3469C59.1879 19.1282 59.138 18.9349 59.0383 18.7673C58.9383 18.5996 58.7957 18.4684 58.6111 18.3734C58.4262 18.2789 58.2153 18.2314 57.9786 18.2314H56.7691V20.4622H57.9786ZM58.1008 16.6785C58.6407 16.6785 59.1232 16.7916 59.5485 17.0173C59.9739 17.2435 60.3067 17.5587 60.5469 17.9632C60.7874 18.3681 60.9078 18.8291 60.9078 19.3469C60.9078 20.1269 60.6451 20.7666 60.1198 21.2661C59.5947 21.7655 58.9217 22.0151 58.1008 22.0151H55.0829V14.3599H56.7691V16.6785H58.1008Z" fill="currentColor"></path>
            <path d="M71.1704 22.0151H69.2843L67.7534 19.3906L66.1998 22.0151H64.3137L66.7323 18.0016L64.4693 14.3598H66.3554L67.7422 16.7219L69.1402 14.3598H70.982L68.7518 18.0561L71.1704 22.0151Z" fill="currentColor"></path>
        </g>
        <defs>
            <clipPath id="clip0_25_2556">
                <rect width="71.1724" height="24" fill="white" transform="translate(0 0.637573)"></rect>
            </clipPath>
        </defs>
    </symbol>
    <symbol fill="none" xmlns="http://www.w3.org/2000/svg" viewBox="0 0 24 25" id="sms-notification">
        <path d="M1.2489 16.1375V9.13751C1.2489 7.24463 1.79319 5.76882 2.86316 4.77521C3.92314 3.79094 5.38393 3.38751 6.9989 3.38751H13.9989C14.4131 3.38751 14.7489 3.7233 14.7489 4.13751C14.7489 4.55173 14.4131 4.88751 13.9989 4.88751H6.9989C5.61395 4.88751 4.57466 5.23415 3.88464 5.87482C3.20469 6.5062 2.7489 7.53046 2.7489 9.13751V16.1375C2.7489 17.7446 3.20469 18.7688 3.88464 19.4002C4.57466 20.0409 5.61395 20.3875 6.9989 20.3875H16.9989C18.3839 20.3875 19.4231 20.0409 20.1132 19.4002C20.7931 18.7688 21.2489 17.7446 21.2489 16.1375V11.1375C21.2489 10.7233 21.5847 10.3875 21.9989 10.3875C22.4131 10.3875 22.7489 10.7233 22.7489 11.1375V16.1375C22.7489 18.0304 22.2046 19.5062 21.1346 20.4998C20.0747 21.4841 18.6139 21.8875 16.9989 21.8875H6.9989C5.38393 21.8875 3.92314 21.4841 2.86316 20.4998C1.79319 19.5062 1.2489 18.0304 1.2489 16.1375Z" fill="currentColor"></path>
        <path d="M6.41517 9.16981C6.65744 8.86649 7.08694 8.80097 7.40638 9.00672L7.46888 9.05165L10.5978 11.5507L10.7462 11.6571C11.5155 12.1511 12.7049 12.1153 13.4142 11.5507L14.5939 10.6112C14.9179 10.3531 15.3895 10.4064 15.6476 10.7304C15.9057 11.0543 15.8524 11.526 15.5285 11.7841L14.3488 12.7245H14.3478C13.0444 13.7618 10.9675 13.7619 9.66419 12.7245L9.66322 12.7235L6.53334 10.2235L6.47572 10.1727C6.20413 9.90676 6.17291 9.47326 6.41517 9.16981Z" fill="currentColor"></path>
        <path d="M21.2489 6.13757C21.2489 5.17108 20.4654 4.38757 19.4989 4.38757C18.5324 4.38757 17.7489 5.17108 17.7489 6.13757C17.7489 7.10407 18.5324 7.88757 19.4989 7.88757C20.4654 7.88757 21.2489 7.10407 21.2489 6.13757ZM22.7489 6.13757C22.7489 7.9325 21.2938 9.38757 19.4989 9.38757C17.704 9.38757 16.2489 7.9325 16.2489 6.13757C16.2489 4.34265 17.704 2.88757 19.4989 2.88757C21.2938 2.88757 22.7489 4.34265 22.7489 6.13757Z" fill="currentColor"></path>
    </symbol>
    <symbol fill="none" xmlns="http://www.w3.org/2000/svg" viewBox="0 0 24 25" id="success">
        <path d="M19.5003 6.54314C19.8618 6.24881 20.3946 6.27015 20.7311 6.6071C21.09 6.96668 21.0896 7.54938 20.73 7.90832L9.95018 18.6691C9.59083 19.0277 9.0087 19.0274 8.64969 18.6684L3.26948 13.2882L3.20623 13.2181C2.91156 12.8568 2.93269 12.3238 3.26948 11.987C3.60628 11.6502 4.13931 11.6291 4.50062 11.9237L4.57033 11.987L9.30084 16.7175L19.4302 6.60603L19.5003 6.54314Z" fill="currentColor"></path>
    </symbol>
    <symbol fill="none" xmlns="http://www.w3.org/2000/svg" viewBox="0 0 24 25" id="teacher">
        <path d="M12.0207 1.93046C12.8393 1.93189 13.6969 2.13564 14.3769 2.5874L20.3673 6.51731L20.5803 6.6669C22.641 8.21695 22.6409 11.3277 20.5803 12.8778L20.3673 13.0274L14.3769 16.958L14.3762 16.9573C13.6962 17.404 12.839 17.606 12.0201 17.606C11.2014 17.606 10.3438 17.405 9.6639 16.9587L3.64391 13.0288C1.28724 11.4903 1.28724 8.04483 3.64391 6.50628L9.6639 2.57637C10.3438 2.13011 11.2013 1.92907 12.0207 1.93046ZM12.0187 3.34222C11.409 3.34116 10.8371 3.49441 10.4373 3.7572L10.436 3.75858L4.41596 7.6885C2.91263 8.66995 2.91263 10.8651 4.41596 11.8466L10.436 15.7765L10.4373 15.7779L10.5952 15.8709C10.9808 16.0765 11.4857 16.1942 12.0201 16.1942C12.6305 16.1942 13.2024 16.0407 13.6021 15.7779L13.6028 15.7772L19.5924 11.8473L19.7282 11.7521C21.0425 10.7638 21.0424 8.78167 19.7282 7.79328L19.5924 7.69746L13.6028 3.76754L13.5979 3.76479C13.1987 3.49872 12.6282 3.34331 12.0187 3.34222Z" fill="currentColor"></path>
        <path d="M5.63191 13.0117C6.02161 13.0127 6.33717 13.3293 6.33641 13.719L6.32607 18.4092C6.3265 18.8689 6.50814 19.3843 6.83342 19.8362C7.1588 20.2882 7.5889 20.6227 8.02184 20.7675L11.2128 21.8277C11.3942 21.8865 11.6781 21.9269 11.9966 21.9269C12.3161 21.9269 12.6055 21.8862 12.7941 21.8256L15.9775 20.7675C16.4108 20.6229 16.8417 20.2885 17.1673 19.8362C17.4928 19.3838 17.6746 18.8678 17.6746 18.4079V13.7679C17.6746 13.3781 17.9907 13.062 18.3805 13.062C18.7702 13.0622 19.0864 13.3782 19.0864 13.7679V18.4079C19.0863 19.2177 18.7772 20.0163 18.313 20.6613C17.8487 21.3062 17.19 21.852 16.4235 22.1075L13.2263 23.1698C12.855 23.2892 12.4094 23.3387 11.9966 23.3387C11.5844 23.3387 11.1396 23.289 10.7709 23.1684L10.7675 23.1677L7.57791 22.1075C6.81137 21.852 6.15129 21.3062 5.68705 20.6613C5.22282 20.0163 4.91437 19.2176 4.91431 18.4079V18.4058L4.92465 13.7162C4.92548 13.3264 5.24206 13.0109 5.63191 13.0117Z" fill="currentColor"></path>
        <path d="M20.6939 15.6376V9.63758C20.6939 9.24774 21.0099 8.9317 21.3998 8.9317C21.7896 8.9317 22.1057 9.24774 22.1057 9.63758V15.6376C22.1057 16.0274 21.7896 16.3435 21.3998 16.3435C21.0099 16.3435 20.6939 16.0274 20.6939 15.6376Z" fill="currentColor"></path>
    </symbol>
    <symbol fill="none" xmlns="http://www.w3.org/2000/svg" viewBox="0 0 24 25" id="telegram-filled">
        <g clip-path="url(#clip0_25_2662)">
            <path d="M12 1.01257C5.57775 1.01257 0.375 6.21607 0.375 12.6376C0.375 19.0591 5.5785 24.2626 12 24.2626C18.4222 24.2626 23.625 19.0591 23.625 12.6376C23.625 6.21607 18.4215 1.01257 12 1.01257ZM17.7098 8.97682L15.8018 17.9678C15.6608 18.6053 15.2813 18.7598 14.7518 18.4598L11.8455 16.3178L10.4438 17.6678C10.2893 17.8223 10.158 17.9536 9.858 17.9536L10.0642 14.9956L15.45 10.1296C15.6848 9.92332 15.3983 9.80632 15.0885 10.0126L8.43225 14.2028L5.5635 13.3073C4.94025 13.1108 4.926 12.6841 5.69475 12.3841L16.9028 8.06182C17.4233 7.87432 17.8777 8.18857 17.709 8.97607L17.7098 8.97682Z" fill="currentColor"></path>
        </g>
        <defs>
            <clipPath id="clip0_25_2662">
                <rect width="24" height="24" fill="white" transform="translate(0 0.637573)"></rect>
            </clipPath>
        </defs>
    </symbol>
    <symbol fill="none" xmlns="http://www.w3.org/2000/svg" viewBox="0 0 24 25" id="user-tag">
        <path d="M20.2941 5.61726C20.294 4.3734 19.2762 3.35348 18 3.35348H6.00001C4.72378 3.35348 3.70606 4.3734 3.70589 5.61726V16.5274L3.70865 16.6432C3.7694 17.8342 4.76346 18.7919 6.00001 18.7919H6.75001C7.7204 18.7919 8.66968 19.1714 9.36536 19.8652H9.36605L11.0763 21.5555H11.0756C11.5807 22.054 12.409 22.0539 12.9141 21.5555L14.6236 19.8652C15.3184 19.172 16.2579 18.792 17.2397 18.7919H18C19.2748 18.7919 20.2941 17.763 20.2941 16.5274V5.61726ZM21.7059 16.5274C21.7059 18.5519 20.0452 20.2037 18 20.2037H17.2397C16.6231 20.2037 16.0438 20.442 15.619 20.8668L15.6163 20.8696L13.906 22.5598C12.8511 23.6012 11.1393 23.6011 10.0843 22.5598H10.0837L8.37409 20.8696L8.37064 20.8668C7.94665 20.4428 7.35794 20.2037 6.75001 20.2037H6.00001C4.02011 20.2037 2.39825 18.6643 2.29895 16.717L2.29413 16.5274V5.61726C2.29429 3.5814 3.95645 1.94171 6.00001 1.94171H18C20.0436 1.94171 21.7057 3.5814 21.7059 5.61726V16.5274Z" fill="currentColor"></path>
        <path d="M13.6234 8.30767C13.6234 7.41074 12.8964 6.68358 11.9993 6.68358C11.1023 6.68359 10.3752 7.41071 10.3752 8.30767C10.3752 9.20466 11.1024 9.93174 11.9993 9.93175C12.8963 9.93175 13.6234 9.20464 13.6234 8.30767ZM15.0351 8.30767C15.0351 9.98434 13.676 11.3435 11.9993 11.3435C10.3226 11.3435 8.96345 9.98431 8.96344 8.30767C8.96344 6.63099 10.3227 5.27183 11.9993 5.27182C13.676 5.27182 15.0351 6.63095 15.0351 8.30767Z" fill="currentColor"></path>
        <path d="M15.2936 16.2975C15.2935 15.0155 13.9616 13.7437 11.9999 13.7436C10.0382 13.7436 8.70567 15.0154 8.70559 16.2975C8.70559 16.6874 8.38955 17.0034 7.99971 17.0034C7.60986 17.0034 7.29382 16.6874 7.29382 16.2975C7.2939 13.9798 9.54179 12.3318 11.9999 12.3318C14.458 12.3319 16.7053 13.9799 16.7054 16.2975C16.7054 16.6874 16.3893 17.0034 15.9995 17.0034C15.6097 17.0033 15.2936 16.6873 15.2936 16.2975Z" fill="currentColor"></path>
    </symbol>
    <symbol fill="none" xmlns="http://www.w3.org/2000/svg" viewBox="0 0 24 25" id="vk-filled">
        <g clip-path="url(#clip0_25_2660)">
            <path d="M15.6834 0.637573H8.31614C1.59314 0.637573 -0.000610352 2.23132 -0.000610352 8.95432V16.3216C-0.000610352 23.0446 1.59314 24.6383 8.31614 24.6383H15.6834C22.4064 24.6383 24.0001 23.0446 24.0001 16.3216V8.95432C24.0001 2.23132 22.3906 0.637573 15.6834 0.637573ZM19.3749 17.7586H17.6326C16.9726 17.7586 16.7694 17.2351 15.5821 16.0321C14.5509 15.0323 14.0941 14.8996 13.8399 14.8996C13.4806 14.8996 13.3786 15.0008 13.3786 15.4936V17.0678C13.3786 17.4901 13.2459 17.7436 12.1284 17.7436C10.2804 17.7436 8.22989 16.6261 6.79214 14.5441C4.62389 11.4931 4.03064 9.20782 4.03064 8.73532C4.03064 8.48107 4.13189 8.24332 4.62014 8.24332H6.36614C6.80789 8.24332 6.97589 8.44657 7.14764 8.91907C8.01089 11.4113 9.44864 13.5946 10.0419 13.5946C10.2609 13.5946 10.3621 13.4933 10.3621 12.9346V10.3606C10.2954 9.17332 9.67064 9.07132 9.67064 8.64982C9.67064 8.44657 9.83864 8.24332 10.1079 8.24332H12.8536C13.2249 8.24332 13.3614 8.44657 13.3614 8.88382V12.3563C13.3614 12.7313 13.5294 12.8641 13.6306 12.8641C13.8496 12.8641 14.0371 12.7313 14.4429 12.3248C15.6969 10.9186 16.5954 8.75032 16.5954 8.75032C16.7124 8.49607 16.9156 8.25832 17.3574 8.25832H19.1034C19.6269 8.25832 19.7439 8.52757 19.6269 8.90257C19.4079 9.91807 17.2711 12.9338 17.2711 12.9338C17.0874 13.2383 17.0169 13.3711 17.2711 13.7108C17.4586 13.9651 18.0684 14.4923 18.4741 14.9648C19.2204 15.8123 19.7941 16.5233 19.9471 17.0153C20.1189 17.5036 19.8654 17.7578 19.3726 17.7578L19.3749 17.7586Z" fill="currentColor"></path>
        </g>
        <defs>
            <clipPath id="clip0_25_2660">
                <rect width="24" height="24" fill="white" transform="translate(0 0.637573)"></rect>
            </clipPath>
        </defs>
    </symbol>
    <symbol fill="none" xmlns="http://www.w3.org/2000/svg" viewBox="0 0 24 25" id="archive">
        <path d="M20.2941 7.63735C20.2941 6.24568 19.9461 5.19345 19.2953 4.49259C18.6533 3.80128 17.6155 3.34351 16.0002 3.34347H7.99978C6.38457 3.34351 5.34676 3.80128 4.70474 4.49259C4.05395 5.19345 3.70593 6.24568 3.70589 7.63735V17.6376C3.70589 19.0294 4.05391 20.0814 4.70474 20.7823C5.34675 21.4737 6.38447 21.9314 7.99978 21.9315H16.0002C17.6155 21.9314 18.6533 21.4737 19.2953 20.7823C19.9461 20.0814 20.2941 19.0294 20.2941 17.6376V7.63735ZM21.7059 17.6376C21.7059 19.2457 21.304 20.6935 20.33 21.7426C19.3471 22.8011 17.8847 23.3432 16.0002 23.3432H7.99978C6.11535 23.3432 4.65297 22.8011 3.67005 21.7426C2.69606 20.6935 2.29413 19.2457 2.29413 17.6376V7.63735C2.29417 6.02931 2.69602 4.58139 3.67005 3.53235C4.65297 2.47381 6.11535 1.93175 7.99978 1.9317H16.0002C17.8847 1.93175 19.3471 2.47381 20.33 3.53235C21.304 4.58139 21.7059 6.02931 21.7059 7.63735V17.6376Z" fill="currentColor"></path>
        <path d="M15.5005 1.93173L15.5722 1.93518C15.9283 1.9712 16.2064 2.27204 16.2064 2.63761V10.4974C16.2064 11.5682 14.9459 12.0796 14.1859 11.3908L14.1818 11.3867L12 9.37383L9.81896 11.3867L9.81413 11.3908C9.05414 12.0793 7.79437 11.5681 7.79437 10.4974V2.63761L7.79782 2.56523C7.83405 2.20938 8.13484 1.93173 8.50025 1.93173H15.5005ZM9.20614 10.0301L11.1818 8.20885C11.642 7.77963 12.358 7.77978 12.8183 8.20885H12.819L14.7946 10.0308V3.3435H9.20614V10.0301Z" fill="currentColor"></path>
        <path d="M17.4995 13.9317L17.5719 13.9352C17.9278 13.9713 18.2054 14.2721 18.2054 14.6376C18.2054 15.0031 17.9278 15.3039 17.5719 15.3401L17.4995 15.3435H13.2497C12.8599 15.3435 12.5438 15.0275 12.5438 14.6376C12.5438 14.2478 12.8599 13.9317 13.2497 13.9317H17.4995Z" fill="currentColor"></path>
        <path d="M17.5002 17.9317L17.5719 17.9351C17.928 17.9712 18.2061 18.272 18.2061 18.6376C18.2061 19.0032 17.928 19.304 17.5719 19.34L17.5002 19.3435H9.00001C8.61016 19.3435 8.29413 19.0274 8.29413 18.6376C8.29413 18.2477 8.61016 17.9317 9.00001 17.9317H17.5002Z" fill="currentColor"></path>
    </symbol>

    <symbol fill="none" xmlns="http://www.w3.org/2000/svg" viewBox="0 0 24 25" id="burger">
        <path d="M3.17242 4.38757C2.75821 4.38757 2.42242 4.72336 2.42242 5.13757C2.42242 5.55179 2.75821 5.88757 3.17242 5.88757H21.1724C21.5866 5.88757 21.9224 5.55179 21.9224 5.13757C21.9224 4.72336 21.5866 4.38757 21.1724 4.38757H3.17242Z" fill="currentColor"/>
        <path d="M11.7027 9.38757L11.6255 9.39148C11.2474 9.42998 10.9527 9.74931 10.9527 10.1376C10.9527 10.5258 11.2474 10.8452 11.6255 10.8837L11.7027 10.8876H21.1724C21.5866 10.8876 21.9224 10.5518 21.9224 10.1376C21.9224 9.72336 21.5866 9.38757 21.1724 9.38757H11.7027Z" fill="currentColor"/>
        <path d="M3.17242 14.3876C2.75821 14.3876 2.42242 14.7234 2.42242 15.1376C2.42242 15.5518 2.75821 15.8876 3.17242 15.8876H21.1724C21.5866 15.8876 21.9224 15.5518 21.9224 15.1376C21.9224 14.7234 21.5866 14.3876 21.1724 14.3876H3.17242Z" fill="currentColor"/>
        <path d="M11.7027 19.3876L11.6255 19.3915C11.2474 19.43 10.9527 19.7493 10.9527 20.1376C10.9527 20.5258 11.2474 20.8452 11.6255 20.8837L11.7027 20.8876H21.1724C21.5866 20.8876 21.9224 20.5518 21.9224 20.1376C21.9224 19.7234 21.5866 19.3876 21.1724 19.3876H11.7027Z" fill="currentColor"/>
    </symbol>

    <symbol fill="none" xmlns="http://www.w3.org/2000/svg" viewBox="0 0 24 25" id="vk">
        <path d="M21.077 16.7774C21.0552 16.7305 21.0348 16.6915 21.016 16.6603C20.7037 16.0978 20.1069 15.4074 19.2259 14.5889L19.2073 14.5702L19.198 14.561L19.1886 14.5516H19.1791C18.7793 14.1705 18.5261 13.9142 18.4201 13.783C18.2261 13.5331 18.1827 13.2801 18.2887 13.0237C18.3636 12.8301 18.645 12.4211 19.1322 11.7962C19.3884 11.465 19.5914 11.1996 19.7413 10.9996C20.8222 9.56252 21.2909 8.6442 21.1471 8.24429L21.0913 8.15084C21.0538 8.09458 20.9569 8.04311 20.8009 7.99617C20.6445 7.94933 20.4446 7.94158 20.2009 7.9728L17.5019 7.99144C17.4582 7.97595 17.3957 7.97739 17.3144 7.99617C17.2332 8.01494 17.1925 8.02436 17.1925 8.02436L17.1456 8.04783L17.1083 8.07603C17.077 8.09468 17.0426 8.12747 17.0051 8.17434C16.9678 8.22105 16.9366 8.27587 16.9116 8.33834C16.6178 9.09433 16.2837 9.79722 15.9087 10.447C15.6775 10.8344 15.4652 11.1702 15.2713 11.4545C15.0777 11.7387 14.9152 11.9481 14.7841 12.0823C14.6528 12.2166 14.5343 12.3243 14.4279 12.4056C14.3217 12.4869 14.2406 12.5213 14.1844 12.5087C14.1281 12.4961 14.0751 12.4837 14.0249 12.4712C13.9375 12.4149 13.8672 12.3384 13.8142 12.2416C13.7609 12.1447 13.7251 12.0229 13.7063 11.876C13.6877 11.7291 13.6767 11.6027 13.6735 11.4965C13.6706 11.3904 13.6719 11.2402 13.6783 11.0466C13.6848 10.8528 13.6877 10.7217 13.6877 10.653C13.6877 10.4155 13.6923 10.1578 13.7016 9.87978C13.7111 9.60175 13.7187 9.38146 13.7251 9.21917C13.7315 9.05672 13.7344 8.88484 13.7344 8.70365C13.7344 8.52245 13.7234 8.38035 13.7016 8.27722C13.6801 8.17421 13.647 8.07423 13.6035 7.97729C13.5596 7.88046 13.4955 7.80555 13.4113 7.75237C13.327 7.69926 13.2222 7.65712 13.0974 7.6258C12.7662 7.55086 12.3445 7.51032 11.8321 7.50402C10.67 7.49155 9.92335 7.56658 9.59221 7.72904C9.46101 7.79767 9.34228 7.89145 9.23612 8.01008C9.12363 8.14759 9.10794 8.22263 9.18915 8.23497C9.56408 8.29113 9.82951 8.42549 9.98572 8.6379L10.042 8.75046C10.0858 8.83167 10.1295 8.97544 10.1733 9.18158C10.217 9.38773 10.2452 9.61576 10.2576 9.86556C10.2888 10.3217 10.2888 10.7122 10.2576 11.0371C10.2263 11.362 10.1968 11.615 10.1686 11.7962C10.1404 11.9774 10.0982 12.1242 10.042 12.2367C9.98572 12.3491 9.94827 12.4179 9.92949 12.4428C9.91075 12.4677 9.89512 12.4835 9.88272 12.4896C9.80151 12.5208 9.71705 12.5366 9.62963 12.5366C9.54209 12.5366 9.43593 12.4928 9.311 12.4053C9.1861 12.3178 9.05647 12.1976 8.92212 12.0445C8.78777 11.8914 8.63624 11.6774 8.46749 11.4025C8.29887 11.1276 8.12391 10.8028 7.94271 10.4279L7.7928 10.156C7.69908 9.98114 7.57107 9.72648 7.40861 9.39229C7.24606 9.05796 7.10239 8.73457 6.97749 8.42217C6.92756 8.29097 6.85256 8.19108 6.7526 8.12235L6.7057 8.09415C6.67451 8.0692 6.62445 8.04271 6.55578 8.01448C6.48701 7.98629 6.41526 7.96607 6.34022 7.95363L3.77234 7.97227C3.50993 7.97227 3.33189 8.03172 3.23814 8.15045L3.20062 8.20661C3.18188 8.23789 3.17242 8.28785 3.17242 8.35662C3.17242 8.42536 3.19117 8.50972 3.22869 8.6096C3.60355 9.49063 4.01121 10.3403 4.45166 11.1588C4.8921 11.9772 5.27485 12.6365 5.59965 13.1361C5.92452 13.636 6.25566 14.1078 6.59307 14.5512C6.93048 14.9949 7.15383 15.2792 7.2631 15.4041C7.37251 15.5292 7.45844 15.6227 7.52091 15.6852L7.75525 15.9101C7.90519 16.0601 8.12539 16.2397 8.41592 16.449C8.70652 16.6583 9.02824 16.8645 9.38124 17.0677C9.73431 17.2706 10.1451 17.4362 10.6137 17.5642C11.0823 17.6924 11.5384 17.7438 11.982 17.719H13.0598C13.2784 17.7001 13.444 17.6314 13.5565 17.5128L13.5938 17.4658C13.6189 17.4285 13.6423 17.3706 13.664 17.2926C13.6859 17.2145 13.6968 17.1285 13.6968 17.0349C13.6904 16.7663 13.7109 16.5242 13.7576 16.3087C13.8043 16.0932 13.8576 15.9308 13.9171 15.8214C13.9766 15.7121 14.0438 15.6198 14.1185 15.545C14.1935 15.4701 14.2468 15.4247 14.2781 15.4091C14.3093 15.3934 14.3341 15.3827 14.3529 15.3763C14.5028 15.3263 14.6793 15.3747 14.8825 15.5217C15.0856 15.6685 15.2761 15.8498 15.4543 16.0653C15.6323 16.2809 15.8463 16.5229 16.0962 16.7915C16.3462 17.0602 16.5648 17.2599 16.7522 17.3913L16.9395 17.5038C17.0647 17.5788 17.2271 17.6476 17.4271 17.71C17.6267 17.7725 17.8016 17.7881 17.9518 17.7569L20.3509 17.7195C20.5882 17.7195 20.7728 17.6802 20.9038 17.6022C21.035 17.5241 21.113 17.4381 21.1381 17.3445C21.1632 17.2508 21.1645 17.1445 21.1429 17.0257C21.1207 16.9072 21.0988 16.8243 21.077 16.7774Z" fill="currentColor"/>
    </symbol>

    <symbol fill="none" xmlns="http://www.w3.org/2000/svg" viewBox="0 0 24 25" id="telegram">
        <path d="M19.7112 5.23445L3.76401 11.4159C3.12227 11.7037 2.90522 12.2802 3.60887 12.593L7.70004 13.8999L17.5919 7.75493C18.132 7.36915 18.6849 7.47203 18.2091 7.89638L9.71336 15.6285L9.44647 18.9007C9.69367 19.4059 10.1463 19.4083 10.435 19.1572L12.7855 16.9216L16.811 19.9516C17.746 20.508 18.2547 20.1489 18.4559 19.1292L21.0963 6.56188C21.3705 5.30659 20.9029 4.75351 19.7112 5.23445Z" fill="currentColor"/>
    </symbol>
</svg>