<svg width="0" height="0" class="hidden">
    <symbol fill="none" xmlns="http://www.w3.org/2000/svg" viewBox="0 0 24 25" id="arrow-down">
        <path d="M20.0257 6.47224C20.3413 6.11016 20.8997 6.02736 21.3187 6.29541C21.7376 6.56354 21.8683 7.08727 21.6357 7.50237L21.5843 7.58398L14.3604 17.82C13.7969 18.6184 12.9589 19.1376 12 19.1376C11.101 19.1376 10.308 18.6818 9.74817 17.9669L9.63962 17.82L2.41567 7.58398L2.36426 7.50237C2.13167 7.08727 2.26244 6.56354 2.68132 6.29541C3.1003 6.02736 3.6587 6.11016 3.97434 6.47224L4.03432 6.54841L11.2583 16.7844L11.3659 16.9232C11.6172 17.2149 11.855 17.2804 12 17.2804C12.1656 17.2804 12.4521 17.1947 12.7417 16.7844L19.9657 6.54841L20.0257 6.47224Z"
              fill="currentColor"></path>
    </symbol>
    <symbol fill="none" xmlns="http://www.w3.org/2000/svg" viewBox="0 0 24 25" id="arrow-left">
        <path d="M18.1653 20.6632C18.5274 20.9789 18.6102 21.5373 18.3422 21.9562C18.074 22.3751 17.5503 22.5059 17.1352 22.2733L17.0536 22.2219L6.81759 14.9979C6.01914 14.4345 5.5 13.5965 5.5 12.6376C5.50001 11.7386 5.95577 10.9456 6.67069 10.3857L6.81759 10.2772L17.0536 3.05325L17.1352 3.00183C17.5503 2.76925 18.074 2.90001 18.3422 3.3189C18.6102 3.73787 18.5274 4.29627 18.1653 4.61191L18.0892 4.6719L7.85316 11.8958L7.71442 12.0034C7.42272 12.2547 7.35714 12.4926 7.35714 12.6376C7.35714 12.8032 7.44285 13.0897 7.85316 13.3793L18.0892 20.6032L18.1653 20.6632Z"
              fill="currentColor"></path>
    </symbol>
    <symbol fill="none" xmlns="http://www.w3.org/2000/svg" viewBox="0 0 24 25" id="arrow-right">
        <path d="M5.83466 4.61192C5.47259 4.29628 5.38978 3.73788 5.65784 3.3189C5.92596 2.90002 6.4497 2.76925 6.86479 3.00183L6.94641 3.05325L17.1824 10.2772C17.9809 10.8407 18.5 11.6786 18.5 12.6376C18.5 13.5366 18.0442 14.3295 17.3293 14.8894L17.1824 14.998L6.94641 22.2219L6.86479 22.2733C6.4497 22.5059 5.92596 22.3751 5.65784 21.9563C5.38978 21.5373 5.47259 20.9789 5.83466 20.6632L5.91084 20.6032L16.1468 13.3793L16.2856 13.2717C16.5773 13.0204 16.6429 12.7826 16.6429 12.6376C16.6429 12.4719 16.5571 12.1855 16.1468 11.8958L5.91084 4.6719L5.83466 4.61192Z"
              fill="currentColor"></path>
    </symbol>
    <symbol fill="none" xmlns="http://www.w3.org/2000/svg" viewBox="0 0 24 25" id="arrow-up">
        <path d="M3.97434 18.8029C3.65871 19.165 3.10031 19.2478 2.68133 18.9797C2.26245 18.7116 2.13168 18.1878 2.36426 17.7727L2.41568 17.6911L9.63963 7.45513C10.2031 6.65668 11.0411 6.13755 12 6.13755C12.899 6.13755 13.692 6.59331 14.2518 7.30823L14.3604 7.45513L21.5843 17.6911L21.6357 17.7727C21.8683 18.1878 21.7376 18.7116 21.3187 18.9797C20.8997 19.2478 20.3413 19.165 20.0257 18.8029L19.9657 18.7267L12.7417 8.4907L12.6341 8.35196C12.3828 8.06026 12.145 7.99468 12 7.99468C11.8344 7.99468 11.5479 8.08039 11.2583 8.4907L4.03433 18.7267L3.97434 18.8029Z"
              fill="currentColor"></path>
    </symbol>
    <symbol fill="none" xmlns="http://www.w3.org/2000/svg" viewBox="0 0 24 25" id="call">
        <path d="M1.25 7.17761C1.25 6.40991 1.38617 5.66608 1.66309 4.97253H1.66211C1.94316 4.25838 2.38423 3.61106 2.9834 3.04285L3.12695 2.90808C3.84786 2.25178 4.67883 1.88761 5.58984 1.88757C5.97487 1.88757 6.36692 1.96979 6.72461 2.14148L6.72363 2.14246C7.0886 2.31279 7.42132 2.57168 7.68066 2.94324H7.68164L9.99805 6.20886H9.99902C10.2062 6.49656 10.3678 6.77834 10.4844 7.06335H10.4834C10.6001 7.33878 10.6797 7.64627 10.6797 7.95789C10.6796 8.34066 10.5684 8.70602 10.3721 9.03601L10.373 9.03699C10.2012 9.34101 9.96434 9.63417 9.69043 9.90808L9.68945 9.9071L9.00684 10.618C9.01208 10.6304 9.01711 10.6468 9.02441 10.6649C9.17245 10.9288 9.44019 11.3055 9.85254 11.7928H9.85156C10.2925 12.3022 10.7609 12.8175 11.2656 13.3319H11.2646C11.7948 13.852 12.2976 14.3241 12.8047 14.7548L13.1562 15.0419C13.4809 15.2955 13.7449 15.4686 13.9492 15.578C13.9645 15.5847 13.9791 15.59 13.9912 15.5956L14.6797 14.9169L14.8936 14.7137C15.0984 14.5301 15.3145 14.3703 15.54 14.2469L15.666 14.1747C15.964 14.0167 16.2864 13.9277 16.6396 13.9276C16.9396 13.9276 17.2364 13.9914 17.5342 14.1132C17.7463 14.1999 17.9548 14.3115 18.1631 14.4413L18.3721 14.577L18.3779 14.5819L18.3838 14.5858L21.6865 16.9305L21.8174 17.0262C22.0699 17.2239 22.277 17.4601 22.4268 17.7411L22.4961 17.8856L22.502 17.8973L22.5068 17.9091C22.6342 18.2275 22.7197 18.5728 22.7197 18.9677C22.7197 19.4401 22.6149 19.9193 22.3984 20.3778C22.1987 20.8008 21.938 21.2032 21.5957 21.5809V21.5819C21.0397 22.1947 20.4096 22.6549 19.6846 22.952L19.6836 22.951C18.9901 23.2393 18.2436 23.3875 17.4502 23.3876C16.3117 23.3876 15.1216 23.1195 13.8965 22.5975C12.689 22.0831 11.4895 21.3938 10.3086 20.5341L10.3076 20.5331C9.12673 19.6705 8.00837 18.7158 6.94238 17.66L6.9375 17.6552C5.88189 16.5893 4.92634 15.4704 4.07324 14.2987L4.07129 14.2958C3.22492 13.1191 2.5347 11.9309 2.0293 10.7411L2.02832 10.7382C1.5169 9.52337 1.25001 8.33443 1.25 7.17761ZM2.75 7.17761C2.75001 8.09991 2.96243 9.09009 3.41016 10.1542L3.58887 10.5565C4.02436 11.4964 4.59291 12.4517 5.28613 13.4159L5.59375 13.83C6.31987 14.7875 7.12128 15.7089 7.99805 16.5946L8.37988 16.9667C9.27742 17.8237 10.2125 18.6061 11.1914 19.3212L11.6035 19.6132C12.5656 20.2764 13.5283 20.8103 14.4844 21.2177C15.5589 21.6755 16.5489 21.8876 17.4502 21.8876C18.0548 21.8875 18.6063 21.7757 19.1113 21.5653L19.1152 21.5634L19.2988 21.4823C19.6619 21.3079 20.0011 21.0653 20.3242 20.7421L20.4844 20.5731C20.7218 20.3111 20.9018 20.034 21.042 19.7372C21.1654 19.4758 21.2197 19.2151 21.2197 18.9677C21.2197 18.8076 21.1872 18.6576 21.1191 18.4833C21.0724 18.3804 20.9929 18.2746 20.833 18.1639L20.8262 18.1591L17.5283 15.8182L17.3691 15.7137C17.2165 15.6186 17.0837 15.55 16.9658 15.5018C16.8236 15.4437 16.7197 15.4276 16.6396 15.4276C16.5436 15.4277 16.4472 15.451 16.3203 15.5282L16.2988 15.5409L16.2773 15.5526C16.1393 15.6246 15.9598 15.7579 15.7402 15.9774L15.7373 15.9813L15.21 15.4471L15.7363 15.9813L14.9766 16.7313C14.7341 16.9721 14.4177 17.118 14.04 17.118C13.8919 17.118 13.716 17.1013 13.5264 17.0302L13.5107 17.0233L13.4941 17.0165C13.449 16.9971 13.4071 16.9782 13.3799 16.9657C13.3475 16.9509 13.3362 16.9463 13.3311 16.9442L13.2939 16.9296L13.2588 16.91C12.8535 16.6954 12.3778 16.3588 11.8359 15.9003L11.835 15.8993C11.2855 15.4327 10.7511 14.9284 10.2051 14.3925L10.1992 14.3876L10.1943 14.3827C9.66103 13.8391 9.17045 13.2972 8.71289 12.7684L8.70703 12.7616C8.25395 12.2261 7.90679 11.7512 7.69141 11.3563L7.65918 11.2977L7.63867 11.2352C7.63866 11.2352 7.63604 11.2279 7.62305 11.1971C7.61102 11.1687 7.58888 11.1187 7.56738 11.0614L7.55273 11.0214L7.54199 10.9794C7.50971 10.8502 7.49023 10.7182 7.49023 10.5673C7.49031 10.2299 7.60431 9.90774 7.85938 9.64734L8.61914 8.8573L8.625 8.85242L8.62988 8.84753C8.8359 8.64152 8.97927 8.4546 9.06738 8.29871L9.0791 8.27722C9.15472 8.15293 9.17963 8.04681 9.17969 7.95789C9.17969 7.89369 9.16124 7.78505 9.10059 7.64343L9.0957 7.63171C9.03232 7.47678 8.93408 7.29808 8.78125 7.08582L8.77832 7.08191L6.45801 3.8114L6.45312 3.80457C6.35566 3.6638 6.23435 3.56746 6.08594 3.4989L6.0752 3.49402C5.9329 3.42574 5.76478 3.38757 5.58984 3.38757C5.08176 3.38762 4.56287 3.59367 4.03613 4.11218L4.03027 4.11804L4.02441 4.12292C3.56968 4.55193 3.25475 5.02131 3.05762 5.52234L3.05664 5.52625C2.85443 6.03178 2.75 6.5865 2.75 7.17761Z"
              fill="currentColor"></path>
        <path d="M17.75 9.63757C17.75 9.50745 17.6901 9.25124 17.5107 8.90222C17.339 8.56814 17.0866 8.20691 16.7812 7.87976L16.7803 7.87781C16.2029 7.2553 15.5379 6.88757 15 6.88757C14.5858 6.88757 14.25 6.55179 14.25 6.13757C14.25 5.72336 14.5858 5.38757 15 5.38757C16.141 5.38757 17.1754 6.09866 17.8779 6.85535L18.1621 7.18152C18.4335 7.5149 18.666 7.86813 18.8447 8.2157C19.0752 8.66393 19.25 9.16776 19.25 9.63757C19.25 10.0518 18.9142 10.3876 18.5 10.3876C18.0858 10.3876 17.75 10.0518 17.75 9.63757Z"
              fill="currentColor"></path>
        <path d="M21.25 9.63757C21.25 6.18179 18.4558 3.38757 15 3.38757C14.5858 3.38757 14.25 3.05179 14.25 2.63757C14.25 2.22336 14.5858 1.88757 15 1.88757C19.2842 1.88757 22.75 5.35336 22.75 9.63757C22.75 10.0518 22.4142 10.3876 22 10.3876C21.5858 10.3876 21.25 10.0518 21.25 9.63757Z"
              fill="currentColor"></path>
    </symbol>
    <symbol fill="none" xmlns="http://www.w3.org/2000/svg" viewBox="0 0 24 25" id="chevron-down">
        <path d="M20.242 7.92093C20.6215 7.6727 21.1367 7.71594 21.4684 8.05042C21.8002 8.3849 21.8378 8.89942 21.5865 9.27683L21.4627 9.43108L14.2376 16.5952C13.0814 17.7421 11.2438 17.8139 10.0023 16.8104L9.76238 16.5952L2.53728 9.43108L2.41349 9.27683C2.16221 8.89942 2.19984 8.3849 2.53156 8.05042C2.86334 7.71594 3.37851 7.6727 3.75797 7.92093L3.91222 8.04471L11.1354 15.2108L11.3259 15.365C11.7991 15.6731 12.4506 15.6214 12.8646 15.2108L20.0878 8.04471L20.242 7.92093Z"
              fill="currentColor"></path>
    </symbol>
    <symbol fill="none" xmlns="http://www.w3.org/2000/svg" viewBox="0 0 24 25" id="chevron-right">
        <path d="M7.28332 4.39554C7.0351 4.01609 7.07834 3.50091 7.41282 3.16914C7.7473 2.83742 8.26182 2.79979 8.63922 3.05107L8.79347 3.17485L15.9576 10.4C17.1045 11.5562 17.1763 13.3938 16.1728 14.6352L15.9576 14.8752L8.79348 22.1003L8.63922 22.2241C8.26182 22.4754 7.7473 22.4377 7.41282 22.106C7.07834 21.7742 7.0351 21.2591 7.28332 20.8796L7.40711 20.7254L14.5732 13.5022L14.7274 13.3117C15.0355 12.8385 14.9838 12.187 14.5732 11.773L7.40711 4.5498L7.28332 4.39554Z"
              fill="currentColor"></path>
    </symbol>
    <symbol fill="none" xmlns="http://www.w3.org/2000/svg" viewBox="0 0 24 25" id="chevron-left">
        <path d="M16.7167 20.8796C16.9649 21.2591 16.9217 21.7742 16.5872 22.106C16.2527 22.4377 15.7382 22.4754 15.3608 22.2241L15.2065 22.1003L8.04236 14.8752C6.89553 13.719 6.82368 11.8813 7.82716 10.6399L8.04236 10.4L15.2065 3.17485L15.3608 3.05107C15.7382 2.79978 16.2527 2.83741 16.5872 3.16914C16.9217 3.50091 16.9649 4.01608 16.7167 4.39554L16.5929 4.54979L9.42682 11.773L9.27257 11.9634C8.96446 12.4367 9.0162 13.0882 9.42682 13.5021L16.5929 20.7253L16.7167 20.8796Z"
              fill="currentColor"></path>
    </symbol>
    <symbol fill="none" xmlns="http://www.w3.org/2000/svg" viewBox="0 0 24 25" id="chevron-up">
        <path d="M3.75797 17.3542C3.37852 17.6024 2.86334 17.5592 2.53157 17.2247C2.19985 16.8902 2.16221 16.3757 2.4135 15.9983L2.53728 15.8441L9.76239 8.6799C10.9186 7.53308 12.7562 7.46122 13.9977 8.46471L14.2376 8.6799L21.4627 15.8441L21.5865 15.9983C21.8378 16.3757 21.8002 16.8902 21.4684 17.2247C21.1367 17.5592 20.6215 17.6024 20.242 17.3542L20.0878 17.2304L12.8646 10.0644L12.6741 9.91011C12.2009 9.602 11.5494 9.65374 11.1354 10.0644L3.91223 17.2304L3.75797 17.3542Z"
              fill="currentColor"></path>
    </symbol>
    <symbol fill="none" xmlns="http://www.w3.org/2000/svg" viewBox="0 0 24 25" id="clock">
        <path d="M21.25 12.6376C21.25 7.53179 17.1058 3.38757 12 3.38757C6.89421 3.38757 2.75 7.53179 2.75 12.6376C2.75 17.7434 6.89421 21.8876 12 21.8876C17.1058 21.8876 21.25 17.7434 21.25 12.6376ZM22.75 12.6376C22.75 18.5718 17.9342 23.3876 12 23.3876C6.06579 23.3876 1.25 18.5718 1.25 12.6376C1.25 6.70336 6.06579 1.88757 12 1.88757C17.9342 1.88757 22.75 6.70336 22.75 12.6376Z"
              fill="currentColor"></path>
        <path d="M10.88 12.2472V8.14758C10.88 7.73337 11.2158 7.39758 11.63 7.39758C12.0442 7.39758 12.38 7.73337 12.38 8.14758V12.2472C12.38 12.4007 12.4391 12.6241 12.5695 12.8527C12.6671 13.0238 12.782 13.1587 12.8888 13.2482L12.9923 13.3224L12.9943 13.3234L16.0939 15.174L16.1583 15.2159C16.4634 15.4427 16.5526 15.8688 16.3536 16.2023C16.1545 16.5354 15.738 16.6579 15.3937 16.4972L15.3253 16.462L12.2257 14.6115V14.6105C11.8183 14.3683 11.4899 13.9888 11.2657 13.5958C11.0411 13.2019 10.88 12.7236 10.88 12.2472Z"
              fill="currentColor"></path>
    </symbol>
    <symbol fill="none" xmlns="http://www.w3.org/2000/svg" viewBox="0 0 24 25" id="close">
        <path fill-rule="evenodd" clip-rule="evenodd"
              d="M3.29296 3.9304C3.68352 3.53991 4.31669 3.53997 4.70717 3.93053L11.9986 11.2234L19.293 3.9304C19.6835 3.53991 20.3167 3.53997 20.7072 3.93053C21.0977 4.3211 21.0976 4.95426 20.707 5.34475L13.4135 12.6369L20.7071 19.9305C21.0976 20.321 21.0976 20.9542 20.7071 21.3447C20.3166 21.7352 19.6834 21.7352 19.2929 21.3447L12 14.0518L4.70711 21.3447C4.31658 21.7352 3.68342 21.7352 3.29289 21.3447C2.90237 20.9542 2.90237 20.321 3.29289 19.9305L10.5851 12.6383L3.29283 5.34461C2.90234 4.95405 2.9024 4.32089 3.29296 3.9304Z"
              fill="currentColor"></path>
    </symbol>
    <symbol fill="none" xmlns="http://www.w3.org/2000/svg" viewBox="0 0 24 25" id="export">
        <path d="M18.8681 4.48935C19.2256 4.19783 19.7531 4.21897 20.0863 4.55215C20.4194 4.88534 20.4406 5.41288 20.1491 5.7703L20.0863 5.83903L13.4528 12.4725C13.0974 12.8278 12.5213 12.8278 12.1659 12.4725C11.8105 12.1171 11.8106 11.541 12.1659 11.1856L18.7994 4.55215L18.8681 4.48935Z"
              fill="currentColor"></path>
        <path d="M19.1799 8.43148V5.45839H16.2068C15.7042 5.45839 15.2968 5.05094 15.2968 4.54833C15.2968 4.04572 15.7042 3.63828 16.2068 3.63828H20.09L20.1824 3.64302C20.6415 3.68945 21 4.07701 21 4.54833V8.43148C20.9999 8.9339 20.5924 9.34141 20.09 9.34154C19.5874 9.34154 19.18 8.93398 19.1799 8.43148Z"
              fill="currentColor"></path>
        <path d="M3 15.065V10.2114C3 8.09929 3.41652 6.38335 4.58075 5.21912C5.74498 4.05489 7.46092 3.63837 9.57303 3.63837H11.1905L11.2841 3.64311C11.7428 3.68997 12.1006 4.07742 12.1006 4.54842C12.1006 5.01943 11.7428 5.40688 11.2841 5.45374L11.1905 5.45848H9.57303C7.64044 5.45848 6.52351 5.85011 5.86763 6.506C5.21174 7.16188 4.82011 8.27881 4.82011 10.2114V15.065C4.82017 16.9972 5.21191 18.1134 5.86763 18.7693C6.52351 19.4251 7.64044 19.8168 9.57303 19.8168H14.4267C16.359 19.8167 17.475 19.4251 18.1309 18.7693C18.7867 18.1134 19.1784 16.9974 19.1784 15.065V13.4464C19.1786 12.9441 19.5862 12.5365 20.0885 12.5363C20.5909 12.5363 20.9983 12.9439 20.9985 13.4464V15.065C20.9985 17.177 20.5819 18.892 19.4178 20.0561C18.2536 21.2203 16.5386 21.6368 14.4267 21.6369H9.57303C7.46092 21.6369 5.74498 21.2204 4.58075 20.0561C3.41675 18.892 3.00005 17.1768 3 15.065Z"
              fill="currentColor"></path>
    </symbol>
    <symbol fill="none" xmlns="http://www.w3.org/2000/svg" viewBox="0 0 24 25" id="judge">
        <path d="M14.561 13.6986C14.8194 13.4401 15.2281 13.4242 15.5054 13.6503L15.5592 13.6986L20.5093 18.6487L20.5576 18.7018C20.7839 18.9791 20.7678 19.3884 20.5093 19.6469C20.2508 19.9054 19.8415 19.9215 19.5642 19.6951L19.5111 19.6469L14.561 14.6967L14.5128 14.643C14.2866 14.3657 14.3026 13.957 14.561 13.6986Z"
              fill="currentColor"></path>
        <path d="M11.1211 3.00228C12.1826 2.04363 13.8257 2.07615 14.8484 3.09878L19.0885 7.33821L19.1843 7.43955C20.1122 8.46684 20.1123 10.039 19.1843 11.0662L19.0885 11.1668L12.0186 18.2367C10.996 19.2593 9.35285 19.2912 8.29139 18.3325L8.19005 18.2367L3.95062 13.9965C2.89496 12.9409 2.89496 11.2243 3.95062 10.1686L11.0205 3.09878L11.1211 3.00228ZM13.8502 4.09695C13.3774 3.6241 12.6244 3.59423 12.1165 4.00802L12.0186 4.09695L4.94878 11.1668C4.44445 11.6711 4.44445 12.494 4.94878 12.9984L9.1889 17.2385L9.28679 17.3274C9.79462 17.741 10.5477 17.7113 11.0205 17.2385L18.0903 10.1686L18.1793 10.0701C18.5651 9.59616 18.5652 8.90882 18.1793 8.43495L18.0903 8.33707L13.8502 4.09695Z"
              fill="currentColor"></path>
        <path d="M7.99971 20.9317L8.07209 20.9351C8.42794 20.9714 8.70559 21.2722 8.70559 21.6376C8.70559 22.003 8.42794 22.3038 8.07209 22.34L7.99971 22.3435H1.99971C1.60986 22.3435 1.29382 22.0274 1.29382 21.6376C1.29382 21.2477 1.60986 20.9317 1.99971 20.9317H7.99971Z"
              fill="currentColor"></path>
        <path d="M6.06064 8.05856C6.31907 7.80013 6.72778 7.78418 7.00503 8.01031L7.0588 8.05856L14.1287 15.1284L14.1776 15.1822C14.4036 15.4594 14.387 15.8682 14.1287 16.1266C13.8703 16.3849 13.4615 16.4015 13.1843 16.1755L13.1305 16.1266L6.06064 9.05673L6.01238 9.00296C5.78626 8.72571 5.80221 8.317 6.06064 8.05856Z"
              fill="currentColor"></path>
    </symbol>
    <symbol fill="none" xmlns="http://www.w3.org/2000/svg" viewBox="0 0 24 25" id="location">
        <path d="M14.3701 10.9476C14.3701 9.63881 13.3088 8.57758 12 8.57751C10.6911 8.57751 9.62988 9.63877 9.62988 10.9476C9.62997 12.2565 10.6912 13.3177 12 13.3177C13.3088 13.3177 14.37 12.2565 14.3701 10.9476ZM15.8701 10.9476C15.87 13.0849 14.1372 14.8177 12 14.8177C9.86275 14.8177 8.12997 13.085 8.12988 10.9476C8.12988 8.81032 9.8627 7.07751 12 7.07751C14.1372 7.07758 15.8701 8.81036 15.8701 10.9476Z"
              fill="currentColor"></path>
        <path d="M12.0049 1.88758C15.9853 1.89027 20.0407 4.23769 21.1123 8.97156L21.2149 9.48426C22.141 14.7455 18.8404 19.1064 16.1201 21.7186C13.8187 23.9384 10.1801 23.9362 7.8711 21.7186L7.87013 21.7177C5.07238 19.0213 1.64696 14.4513 2.88966 8.96179V8.96082L2.99903 8.52429C4.21994 4.083 8.1487 1.88499 12.0049 1.88758ZM12.0039 3.38758C8.5876 3.38527 5.24528 5.36723 4.35157 9.29187L4.35255 9.29285C3.29538 13.9628 6.18821 18.013 8.91017 20.6366L9.0752 20.788C10.8096 22.2971 13.4152 22.2445 15.0801 20.6376L15.0811 20.6366L15.5947 20.1288C18.0743 17.5936 20.4752 13.9348 19.7373 9.73914L19.6494 9.30359C18.7609 5.37774 15.4209 3.38989 12.0039 3.38758Z"
              fill="currentColor"></path>
    </symbol>
    <symbol fill="none" xmlns="http://www.w3.org/2000/svg" viewBox="0 0 24 25" id="message">
        <path d="M21.4286 10.8775C21.4286 6.67962 17.7727 3.20915 13.1708 3.20899C8.6341 3.20899 5.01829 6.58159 4.9163 10.6989C5.7029 10.3484 6.57706 10.1566 7.50001 10.1565C10.8186 10.1565 13.5714 12.6762 13.5714 15.8675C13.5714 16.8338 13.3112 17.7443 12.856 18.5405L13.1708 18.546L13.2467 18.5516C13.3225 18.5618 13.3958 18.5871 13.4621 18.6264L17.6529 21.1164L17.6563 21.1186L17.7132 21.1476C17.9976 21.2668 18.3334 21.0397 18.2935 20.6978L17.9029 17.5371C17.8772 17.3275 17.97 17.1204 18.1429 16.9992C20.1454 15.5953 21.4286 13.3729 21.4286 10.8775ZM22.5714 10.8775C22.5714 13.6603 21.196 16.1214 19.0781 17.7268L19.4275 20.5572V20.5594L19.4375 20.6789C19.4968 21.908 18.1578 22.7541 17.0681 22.0974V22.0985L13.0089 19.6856C12.5798 19.6793 12.1579 19.6506 11.7433 19.594C11.5364 19.5658 11.3614 19.4264 11.2868 19.2313C11.2124 19.0364 11.25 18.8166 11.3851 18.6577C12.043 17.8841 12.4286 16.913 12.4286 15.8675C12.4285 13.3789 10.2614 11.2994 7.50001 11.2994C6.58143 11.2995 5.73072 11.5275 4.99889 11.9322L4.69197 12.1164C4.52657 12.224 4.31722 12.2389 4.1384 12.1554C3.98197 12.0823 3.8677 11.9431 3.8259 11.7782L3.81251 11.7056C3.77895 11.426 3.76898 11.1518 3.76898 10.8775C3.76901 5.97553 8.01284 2.06613 13.1708 2.06613C18.3285 2.0663 22.5714 5.97563 22.5714 10.8775Z"
              fill="currentColor"></path>
        <path d="M12.4286 15.8672C12.4284 13.3787 10.2613 11.2991 7.50002 11.2991C6.45003 11.2991 5.48844 11.5971 4.69198 12.1161L4.68752 12.1194C3.39697 12.944 2.57158 14.3197 2.57145 15.8672C2.57145 17.3439 3.32621 18.6652 4.52569 19.4978C4.67886 19.6041 4.76909 19.7777 4.77122 19.9609L4.76676 20.0391L4.51676 22.0033L4.51787 22.0045C4.51626 22.0183 4.51843 22.0256 4.52122 22.0313C4.52512 22.039 4.53265 22.049 4.54466 22.0569C4.55673 22.0648 4.56736 22.0667 4.57256 22.067C4.57496 22.0671 4.58033 22.0671 4.59154 22.0603L4.59823 22.0558L7.20872 20.5067L7.2768 20.4721C7.34722 20.4422 7.42299 20.4263 7.50002 20.4263C9.09377 20.4263 10.5008 19.7292 11.3795 18.6641L11.3851 18.6574L11.6183 18.3583C12.133 17.6399 12.4286 16.7821 12.4286 15.8672ZM13.5714 15.8672C13.5714 17.1986 13.0788 18.4252 12.2601 19.3906L12.2612 19.3917C11.1911 20.6888 9.52373 21.5175 7.66296 21.5636L5.18194 23.0391L5.18082 23.0379C4.32064 23.558 3.26943 22.8344 3.38283 21.8705V21.8661L3.59042 20.2277C2.27165 19.1919 1.42859 17.6272 1.42859 15.8672C1.42873 13.8968 2.48126 12.1741 4.0681 11.1585L4.44533 10.9319C5.34723 10.4332 6.38866 10.1562 7.50002 10.1562C10.8185 10.1562 13.5712 12.676 13.5714 15.8672Z"
              fill="currentColor"></path>
    </symbol>
    <symbol fill="none" xmlns="http://www.w3.org/2000/svg" viewBox="0 0 72 25" id="logo">
        <g clip-path="url(#clip0_25_2556)">
            <path d="M10.9824 11.448L9.59012 10.0757V19.396L7.58076 17.4154V8.09513L4.7962 5.35049V14.6708L2.78737 12.6902V3.37047L0.00280762 0.625824V13.8276L10.9824 24.6498L12.3747 23.2708V13.9577L17.1686 9.23197L19.1774 7.25195V16.5197L21.962 13.775V0.625824L10.9824 11.448Z"
                  fill="currentColor"></path>
            <path d="M13.8374 15.7016L14.3841 15.7019V21.2805L17.1686 18.5225V12.4182L13.8374 15.7016Z"
                  fill="currentColor"></path>
            <path d="M34.3798 3.4238H36.066V11.0791H27.0347V3.4238H28.7212V9.53696H30.7295V3.4238H32.3715V9.53696H34.3798V3.4238Z"
                  fill="currentColor"></path>
            <path d="M44.321 11.0791H42.2683L39.5279 7.33886V11.0791H37.8414V3.42389H39.5279V6.9563L42.0686 3.42389H44.0325L41.3806 7.08751L44.321 11.0791Z"
                  fill="currentColor"></path>
            <path d="M48.3706 9.6793C48.8292 9.6793 49.2433 9.5755 49.6133 9.36762C49.9831 9.15998 50.2736 8.87016 50.4842 8.49815C50.6951 8.12638 50.8007 7.71088 50.8007 7.25164C50.8007 6.55887 50.5694 5.98126 50.1073 5.51823C49.6447 5.05523 49.0679 4.82373 48.3762 4.82373C47.6846 4.82373 47.104 5.05523 46.6342 5.51823C46.1647 5.98126 45.9298 6.55887 45.9298 7.25164C45.9298 7.94415 46.1647 8.52204 46.6342 8.98479C47.104 9.44805 47.6828 9.6793 48.3706 9.6793ZM48.3706 11.243C47.1871 11.243 46.2017 10.8625 45.4137 10.1003C44.6259 9.33871 44.2322 8.38881 44.2322 7.25164C44.2322 6.11423 44.6259 5.16458 45.4137 4.40268C46.2017 3.64107 47.1871 3.25974 48.3706 3.25974C49.1472 3.25974 49.8518 3.43318 50.4842 3.77932C51.1167 4.1257 51.6107 4.60328 51.9654 5.21209C52.3206 5.82088 52.4979 6.50082 52.4979 7.25164C52.4979 8.39635 52.1059 9.34777 51.322 10.1059C50.5378 10.8642 49.5542 11.243 48.3706 11.243Z"
                  fill="currentColor"></path>
            <path d="M55.0057 3.4238H60.1648V11.0791H58.4895V4.96591H56.4703L56.1041 8.27939C56.0003 9.22728 55.7249 9.93436 55.2773 10.4009C54.83 10.8677 54.1993 11.1009 53.3858 11.1009H52.9531V9.4824H53.3971C53.9958 9.4824 54.3399 9.10713 54.4289 8.35604L55.0057 3.4238Z"
                  fill="currentColor"></path>
            <path d="M65.0024 5.44706L63.9926 8.18113H66.023L65.0024 5.44706ZM67.0992 11.0791L66.5558 9.62471H63.4601L62.9276 11.0791H61.1522L64.1923 3.42383H65.779L68.9188 11.0791H67.0992Z"
                  fill="currentColor"></path>
            <path d="M27.0347 14.3598H33.0815V22.0151H31.406V15.9017H28.7212V22.0151H27.0347V14.3598Z"
                  fill="currentColor"></path>
            <path d="M36.5428 20.4732H39.6385V22.0151H34.8564V14.3598H39.5164V15.8909H36.5428V17.4H39.2277V18.8982H36.5428V20.4732Z"
                  fill="currentColor"></path>
            <path d="M43.9767 18.0892C44.3095 18.0892 44.5775 17.9871 44.7813 17.783C44.9843 17.5789 45.0863 17.3165 45.0863 16.9955C45.0863 16.675 44.9843 16.4106 44.7813 16.203C44.5775 15.9951 44.3095 15.891 43.9767 15.891H42.745V18.0892H43.9767ZM44.0433 14.3602C44.8272 14.3602 45.4821 14.6101 46.0072 15.1093C46.5323 15.6085 46.7949 16.2357 46.7949 16.9902C46.7949 17.7448 46.5323 18.372 46.0072 18.8712C45.4821 19.3707 44.8272 19.6205 44.0433 19.6205H42.745V22.0153H41.0588V14.3602H44.0433Z"
                  fill="currentColor"></path>
            <path d="M51.0997 20.4952C51.3733 20.4952 51.5952 20.4148 51.7656 20.2544C51.9357 20.0943 52.0206 19.8864 52.0206 19.6313C52.0206 19.3834 51.9357 19.1793 51.7656 19.0187C51.5952 18.8586 51.3733 18.7781 51.0997 18.7781H49.6132V20.4952H51.0997ZM51.8762 16.591C51.8762 16.4671 51.8561 16.3557 51.8153 16.2575C51.7747 16.1589 51.7174 16.0732 51.6434 16.0003C51.5695 15.9274 51.4787 15.8711 51.3716 15.8309C51.2644 15.7907 51.1441 15.7708 51.0112 15.7708H49.6132V17.4002H51.0112C51.2774 17.4002 51.4881 17.3255 51.6434 17.1759C51.7987 17.0266 51.8762 16.8316 51.8762 16.591ZM52.6308 17.9798C52.971 18.1547 53.2355 18.4008 53.4242 18.7181C53.6129 19.035 53.707 19.3977 53.707 19.8062C53.707 20.4185 53.4686 20.9399 52.9914 21.3699C52.5146 21.8003 51.9392 22.0152 51.2662 22.0152H47.9599V14.3599H51.1775C51.8433 14.3599 52.398 14.5477 52.8417 14.923C53.2855 15.2988 53.5076 15.7671 53.5076 16.3286C53.5076 16.6566 53.4298 16.9666 53.2742 17.2579C53.1192 17.5497 52.9045 17.7903 52.6308 17.9798Z"
                  fill="currentColor"></path>
            <path d="M61.6955 14.3599H63.382V22.0151H61.6955V14.3599ZM57.9786 20.4622C58.3336 20.4622 58.6238 20.3584 58.8495 20.1505C59.0752 19.9427 59.1879 19.675 59.1879 19.3469C59.1879 19.1282 59.138 18.9349 59.0383 18.7673C58.9383 18.5996 58.7957 18.4684 58.6111 18.3734C58.4262 18.2789 58.2153 18.2314 57.9786 18.2314H56.7691V20.4622H57.9786ZM58.1008 16.6785C58.6407 16.6785 59.1232 16.7916 59.5485 17.0173C59.9739 17.2435 60.3067 17.5587 60.5469 17.9632C60.7874 18.3681 60.9078 18.8291 60.9078 19.3469C60.9078 20.1269 60.6451 20.7666 60.1198 21.2661C59.5947 21.7655 58.9217 22.0151 58.1008 22.0151H55.0829V14.3599H56.7691V16.6785H58.1008Z"
                  fill="currentColor"></path>
            <path d="M71.1704 22.0151H69.2843L67.7534 19.3906L66.1998 22.0151H64.3137L66.7323 18.0016L64.4693 14.3598H66.3554L67.7422 16.7219L69.1402 14.3598H70.982L68.7518 18.0561L71.1704 22.0151Z"
                  fill="currentColor"></path>
        </g>
        <defs>
            <clipPath id="clip0_25_2556">
                <rect width="71.1724" height="24" fill="white" transform="translate(0 0.637573)"></rect>
            </clipPath>
        </defs>
    </symbol>
    <symbol fill="none" xmlns="http://www.w3.org/2000/svg" viewBox="0 0 24 25" id="sms-notification">
        <path d="M1.2489 16.1375V9.13751C1.2489 7.24463 1.79319 5.76882 2.86316 4.77521C3.92314 3.79094 5.38393 3.38751 6.9989 3.38751H13.9989C14.4131 3.38751 14.7489 3.7233 14.7489 4.13751C14.7489 4.55173 14.4131 4.88751 13.9989 4.88751H6.9989C5.61395 4.88751 4.57466 5.23415 3.88464 5.87482C3.20469 6.5062 2.7489 7.53046 2.7489 9.13751V16.1375C2.7489 17.7446 3.20469 18.7688 3.88464 19.4002C4.57466 20.0409 5.61395 20.3875 6.9989 20.3875H16.9989C18.3839 20.3875 19.4231 20.0409 20.1132 19.4002C20.7931 18.7688 21.2489 17.7446 21.2489 16.1375V11.1375C21.2489 10.7233 21.5847 10.3875 21.9989 10.3875C22.4131 10.3875 22.7489 10.7233 22.7489 11.1375V16.1375C22.7489 18.0304 22.2046 19.5062 21.1346 20.4998C20.0747 21.4841 18.6139 21.8875 16.9989 21.8875H6.9989C5.38393 21.8875 3.92314 21.4841 2.86316 20.4998C1.79319 19.5062 1.2489 18.0304 1.2489 16.1375Z"
              fill="currentColor"></path>
        <path d="M6.41517 9.16981C6.65744 8.86649 7.08694 8.80097 7.40638 9.00672L7.46888 9.05165L10.5978 11.5507L10.7462 11.6571C11.5155 12.1511 12.7049 12.1153 13.4142 11.5507L14.5939 10.6112C14.9179 10.3531 15.3895 10.4064 15.6476 10.7304C15.9057 11.0543 15.8524 11.526 15.5285 11.7841L14.3488 12.7245H14.3478C13.0444 13.7618 10.9675 13.7619 9.66419 12.7245L9.66322 12.7235L6.53334 10.2235L6.47572 10.1727C6.20413 9.90676 6.17291 9.47326 6.41517 9.16981Z"
              fill="currentColor"></path>
        <path d="M21.2489 6.13757C21.2489 5.17108 20.4654 4.38757 19.4989 4.38757C18.5324 4.38757 17.7489 5.17108 17.7489 6.13757C17.7489 7.10407 18.5324 7.88757 19.4989 7.88757C20.4654 7.88757 21.2489 7.10407 21.2489 6.13757ZM22.7489 6.13757C22.7489 7.9325 21.2938 9.38757 19.4989 9.38757C17.704 9.38757 16.2489 7.9325 16.2489 6.13757C16.2489 4.34265 17.704 2.88757 19.4989 2.88757C21.2938 2.88757 22.7489 4.34265 22.7489 6.13757Z"
              fill="currentColor"></path>
    </symbol>
    <symbol fill="none" xmlns="http://www.w3.org/2000/svg" viewBox="0 0 24 25" id="success">
        <path d="M19.5003 6.54314C19.8618 6.24881 20.3946 6.27015 20.7311 6.6071C21.09 6.96668 21.0896 7.54938 20.73 7.90832L9.95018 18.6691C9.59083 19.0277 9.0087 19.0274 8.64969 18.6684L3.26948 13.2882L3.20623 13.2181C2.91156 12.8568 2.93269 12.3238 3.26948 11.987C3.60628 11.6502 4.13931 11.6291 4.50062 11.9237L4.57033 11.987L9.30084 16.7175L19.4302 6.60603L19.5003 6.54314Z"
              fill="currentColor"></path>
    </symbol>
    <symbol fill="none" xmlns="http://www.w3.org/2000/svg" viewBox="0 0 24 25" id="teacher">
        <path d="M12.0207 1.93046C12.8393 1.93189 13.6969 2.13564 14.3769 2.5874L20.3673 6.51731L20.5803 6.6669C22.641 8.21695 22.6409 11.3277 20.5803 12.8778L20.3673 13.0274L14.3769 16.958L14.3762 16.9573C13.6962 17.404 12.839 17.606 12.0201 17.606C11.2014 17.606 10.3438 17.405 9.6639 16.9587L3.64391 13.0288C1.28724 11.4903 1.28724 8.04483 3.64391 6.50628L9.6639 2.57637C10.3438 2.13011 11.2013 1.92907 12.0207 1.93046ZM12.0187 3.34222C11.409 3.34116 10.8371 3.49441 10.4373 3.7572L10.436 3.75858L4.41596 7.6885C2.91263 8.66995 2.91263 10.8651 4.41596 11.8466L10.436 15.7765L10.4373 15.7779L10.5952 15.8709C10.9808 16.0765 11.4857 16.1942 12.0201 16.1942C12.6305 16.1942 13.2024 16.0407 13.6021 15.7779L13.6028 15.7772L19.5924 11.8473L19.7282 11.7521C21.0425 10.7638 21.0424 8.78167 19.7282 7.79328L19.5924 7.69746L13.6028 3.76754L13.5979 3.76479C13.1987 3.49872 12.6282 3.34331 12.0187 3.34222Z"
              fill="currentColor"></path>
        <path d="M5.63191 13.0117C6.02161 13.0127 6.33717 13.3293 6.33641 13.719L6.32607 18.4092C6.3265 18.8689 6.50814 19.3843 6.83342 19.8362C7.1588 20.2882 7.5889 20.6227 8.02184 20.7675L11.2128 21.8277C11.3942 21.8865 11.6781 21.9269 11.9966 21.9269C12.3161 21.9269 12.6055 21.8862 12.7941 21.8256L15.9775 20.7675C16.4108 20.6229 16.8417 20.2885 17.1673 19.8362C17.4928 19.3838 17.6746 18.8678 17.6746 18.4079V13.7679C17.6746 13.3781 17.9907 13.062 18.3805 13.062C18.7702 13.0622 19.0864 13.3782 19.0864 13.7679V18.4079C19.0863 19.2177 18.7772 20.0163 18.313 20.6613C17.8487 21.3062 17.19 21.852 16.4235 22.1075L13.2263 23.1698C12.855 23.2892 12.4094 23.3387 11.9966 23.3387C11.5844 23.3387 11.1396 23.289 10.7709 23.1684L10.7675 23.1677L7.57791 22.1075C6.81137 21.852 6.15129 21.3062 5.68705 20.6613C5.22282 20.0163 4.91437 19.2176 4.91431 18.4079V18.4058L4.92465 13.7162C4.92548 13.3264 5.24206 13.0109 5.63191 13.0117Z"
              fill="currentColor"></path>
        <path d="M20.6939 15.6376V9.63758C20.6939 9.24774 21.0099 8.9317 21.3998 8.9317C21.7896 8.9317 22.1057 9.24774 22.1057 9.63758V15.6376C22.1057 16.0274 21.7896 16.3435 21.3998 16.3435C21.0099 16.3435 20.6939 16.0274 20.6939 15.6376Z"
              fill="currentColor"></path>
    </symbol>
    <symbol fill="none" xmlns="http://www.w3.org/2000/svg" viewBox="0 0 24 25" id="telegram-filled">
        <g clip-path="url(#clip0_25_2662)">
            <path d="M12 1.01257C5.57775 1.01257 0.375 6.21607 0.375 12.6376C0.375 19.0591 5.5785 24.2626 12 24.2626C18.4222 24.2626 23.625 19.0591 23.625 12.6376C23.625 6.21607 18.4215 1.01257 12 1.01257ZM17.7098 8.97682L15.8018 17.9678C15.6608 18.6053 15.2813 18.7598 14.7518 18.4598L11.8455 16.3178L10.4438 17.6678C10.2893 17.8223 10.158 17.9536 9.858 17.9536L10.0642 14.9956L15.45 10.1296C15.6848 9.92332 15.3983 9.80632 15.0885 10.0126L8.43225 14.2028L5.5635 13.3073C4.94025 13.1108 4.926 12.6841 5.69475 12.3841L16.9028 8.06182C17.4233 7.87432 17.8777 8.18857 17.709 8.97607L17.7098 8.97682Z"
                  fill="currentColor"></path>
        </g>
        <defs>
            <clipPath id="clip0_25_2662">
                <rect width="24" height="24" fill="white" transform="translate(0 0.637573)"></rect>
            </clipPath>
        </defs>
    </symbol>
    <symbol fill="none" xmlns="http://www.w3.org/2000/svg" viewBox="0 0 24 25" id="user-tag">
        <path d="M20.2941 5.61726C20.294 4.3734 19.2762 3.35348 18 3.35348H6.00001C4.72378 3.35348 3.70606 4.3734 3.70589 5.61726V16.5274L3.70865 16.6432C3.7694 17.8342 4.76346 18.7919 6.00001 18.7919H6.75001C7.7204 18.7919 8.66968 19.1714 9.36536 19.8652H9.36605L11.0763 21.5555H11.0756C11.5807 22.054 12.409 22.0539 12.9141 21.5555L14.6236 19.8652C15.3184 19.172 16.2579 18.792 17.2397 18.7919H18C19.2748 18.7919 20.2941 17.763 20.2941 16.5274V5.61726ZM21.7059 16.5274C21.7059 18.5519 20.0452 20.2037 18 20.2037H17.2397C16.6231 20.2037 16.0438 20.442 15.619 20.8668L15.6163 20.8696L13.906 22.5598C12.8511 23.6012 11.1393 23.6011 10.0843 22.5598H10.0837L8.37409 20.8696L8.37064 20.8668C7.94665 20.4428 7.35794 20.2037 6.75001 20.2037H6.00001C4.02011 20.2037 2.39825 18.6643 2.29895 16.717L2.29413 16.5274V5.61726C2.29429 3.5814 3.95645 1.94171 6.00001 1.94171H18C20.0436 1.94171 21.7057 3.5814 21.7059 5.61726V16.5274Z"
              fill="currentColor"></path>
        <path d="M13.6234 8.30767C13.6234 7.41074 12.8964 6.68358 11.9993 6.68358C11.1023 6.68359 10.3752 7.41071 10.3752 8.30767C10.3752 9.20466 11.1024 9.93174 11.9993 9.93175C12.8963 9.93175 13.6234 9.20464 13.6234 8.30767ZM15.0351 8.30767C15.0351 9.98434 13.676 11.3435 11.9993 11.3435C10.3226 11.3435 8.96345 9.98431 8.96344 8.30767C8.96344 6.63099 10.3227 5.27183 11.9993 5.27182C13.676 5.27182 15.0351 6.63095 15.0351 8.30767Z"
              fill="currentColor"></path>
        <path d="M15.2936 16.2975C15.2935 15.0155 13.9616 13.7437 11.9999 13.7436C10.0382 13.7436 8.70567 15.0154 8.70559 16.2975C8.70559 16.6874 8.38955 17.0034 7.99971 17.0034C7.60986 17.0034 7.29382 16.6874 7.29382 16.2975C7.2939 13.9798 9.54179 12.3318 11.9999 12.3318C14.458 12.3319 16.7053 13.9799 16.7054 16.2975C16.7054 16.6874 16.3893 17.0034 15.9995 17.0034C15.6097 17.0033 15.2936 16.6873 15.2936 16.2975Z"
              fill="currentColor"></path>
    </symbol>
    <symbol fill="none" xmlns="http://www.w3.org/2000/svg" viewBox="0 0 24 25" id="vk-filled">
        <g clip-path="url(#clip0_25_2660)">
            <path d="M15.6834 0.637573H8.31614C1.59314 0.637573 -0.000610352 2.23132 -0.000610352 8.95432V16.3216C-0.000610352 23.0446 1.59314 24.6383 8.31614 24.6383H15.6834C22.4064 24.6383 24.0001 23.0446 24.0001 16.3216V8.95432C24.0001 2.23132 22.3906 0.637573 15.6834 0.637573ZM19.3749 17.7586H17.6326C16.9726 17.7586 16.7694 17.2351 15.5821 16.0321C14.5509 15.0323 14.0941 14.8996 13.8399 14.8996C13.4806 14.8996 13.3786 15.0008 13.3786 15.4936V17.0678C13.3786 17.4901 13.2459 17.7436 12.1284 17.7436C10.2804 17.7436 8.22989 16.6261 6.79214 14.5441C4.62389 11.4931 4.03064 9.20782 4.03064 8.73532C4.03064 8.48107 4.13189 8.24332 4.62014 8.24332H6.36614C6.80789 8.24332 6.97589 8.44657 7.14764 8.91907C8.01089 11.4113 9.44864 13.5946 10.0419 13.5946C10.2609 13.5946 10.3621 13.4933 10.3621 12.9346V10.3606C10.2954 9.17332 9.67064 9.07132 9.67064 8.64982C9.67064 8.44657 9.83864 8.24332 10.1079 8.24332H12.8536C13.2249 8.24332 13.3614 8.44657 13.3614 8.88382V12.3563C13.3614 12.7313 13.5294 12.8641 13.6306 12.8641C13.8496 12.8641 14.0371 12.7313 14.4429 12.3248C15.6969 10.9186 16.5954 8.75032 16.5954 8.75032C16.7124 8.49607 16.9156 8.25832 17.3574 8.25832H19.1034C19.6269 8.25832 19.7439 8.52757 19.6269 8.90257C19.4079 9.91807 17.2711 12.9338 17.2711 12.9338C17.0874 13.2383 17.0169 13.3711 17.2711 13.7108C17.4586 13.9651 18.0684 14.4923 18.4741 14.9648C19.2204 15.8123 19.7941 16.5233 19.9471 17.0153C20.1189 17.5036 19.8654 17.7578 19.3726 17.7578L19.3749 17.7586Z"
                  fill="currentColor"></path>
        </g>
        <defs>
            <clipPath id="clip0_25_2660">
                <rect width="24" height="24" fill="white" transform="translate(0 0.637573)"></rect>
            </clipPath>
        </defs>
    </symbol>
    <symbol fill="none" xmlns="http://www.w3.org/2000/svg" viewBox="0 0 24 25" id="archive">
        <path d="M20.2941 7.63735C20.2941 6.24568 19.9461 5.19345 19.2953 4.49259C18.6533 3.80128 17.6155 3.34351 16.0002 3.34347H7.99978C6.38457 3.34351 5.34676 3.80128 4.70474 4.49259C4.05395 5.19345 3.70593 6.24568 3.70589 7.63735V17.6376C3.70589 19.0294 4.05391 20.0814 4.70474 20.7823C5.34675 21.4737 6.38447 21.9314 7.99978 21.9315H16.0002C17.6155 21.9314 18.6533 21.4737 19.2953 20.7823C19.9461 20.0814 20.2941 19.0294 20.2941 17.6376V7.63735ZM21.7059 17.6376C21.7059 19.2457 21.304 20.6935 20.33 21.7426C19.3471 22.8011 17.8847 23.3432 16.0002 23.3432H7.99978C6.11535 23.3432 4.65297 22.8011 3.67005 21.7426C2.69606 20.6935 2.29413 19.2457 2.29413 17.6376V7.63735C2.29417 6.02931 2.69602 4.58139 3.67005 3.53235C4.65297 2.47381 6.11535 1.93175 7.99978 1.9317H16.0002C17.8847 1.93175 19.3471 2.47381 20.33 3.53235C21.304 4.58139 21.7059 6.02931 21.7059 7.63735V17.6376Z"
              fill="currentColor"></path>
        <path d="M15.5005 1.93173L15.5722 1.93518C15.9283 1.9712 16.2064 2.27204 16.2064 2.63761V10.4974C16.2064 11.5682 14.9459 12.0796 14.1859 11.3908L14.1818 11.3867L12 9.37383L9.81896 11.3867L9.81413 11.3908C9.05414 12.0793 7.79437 11.5681 7.79437 10.4974V2.63761L7.79782 2.56523C7.83405 2.20938 8.13484 1.93173 8.50025 1.93173H15.5005ZM9.20614 10.0301L11.1818 8.20885C11.642 7.77963 12.358 7.77978 12.8183 8.20885H12.819L14.7946 10.0308V3.3435H9.20614V10.0301Z"
              fill="currentColor"></path>
        <path d="M17.4995 13.9317L17.5719 13.9352C17.9278 13.9713 18.2054 14.2721 18.2054 14.6376C18.2054 15.0031 17.9278 15.3039 17.5719 15.3401L17.4995 15.3435H13.2497C12.8599 15.3435 12.5438 15.0275 12.5438 14.6376C12.5438 14.2478 12.8599 13.9317 13.2497 13.9317H17.4995Z"
              fill="currentColor"></path>
        <path d="M17.5002 17.9317L17.5719 17.9351C17.928 17.9712 18.2061 18.272 18.2061 18.6376C18.2061 19.0032 17.928 19.304 17.5719 19.34L17.5002 19.3435H9.00001C8.61016 19.3435 8.29413 19.0274 8.29413 18.6376C8.29413 18.2477 8.61016 17.9317 9.00001 17.9317H17.5002Z"
              fill="currentColor"></path>
    </symbol>

    <symbol fill="none" xmlns="http://www.w3.org/2000/svg" viewBox="0 0 24 25" id="burger">
        <path d="M3.17242 4.38757C2.75821 4.38757 2.42242 4.72336 2.42242 5.13757C2.42242 5.55179 2.75821 5.88757 3.17242 5.88757H21.1724C21.5866 5.88757 21.9224 5.55179 21.9224 5.13757C21.9224 4.72336 21.5866 4.38757 21.1724 4.38757H3.17242Z"
              fill="currentColor"/>
        <path d="M11.7027 9.38757L11.6255 9.39148C11.2474 9.42998 10.9527 9.74931 10.9527 10.1376C10.9527 10.5258 11.2474 10.8452 11.6255 10.8837L11.7027 10.8876H21.1724C21.5866 10.8876 21.9224 10.5518 21.9224 10.1376C21.9224 9.72336 21.5866 9.38757 21.1724 9.38757H11.7027Z"
              fill="currentColor"/>
        <path d="M3.17242 14.3876C2.75821 14.3876 2.42242 14.7234 2.42242 15.1376C2.42242 15.5518 2.75821 15.8876 3.17242 15.8876H21.1724C21.5866 15.8876 21.9224 15.5518 21.9224 15.1376C21.9224 14.7234 21.5866 14.3876 21.1724 14.3876H3.17242Z"
              fill="currentColor"/>
        <path d="M11.7027 19.3876L11.6255 19.3915C11.2474 19.43 10.9527 19.7493 10.9527 20.1376C10.9527 20.5258 11.2474 20.8452 11.6255 20.8837L11.7027 20.8876H21.1724C21.5866 20.8876 21.9224 20.5518 21.9224 20.1376C21.9224 19.7234 21.5866 19.3876 21.1724 19.3876H11.7027Z"
              fill="currentColor"/>
    </symbol>

    <symbol fill="none" xmlns="http://www.w3.org/2000/svg" viewBox="0 0 24 25" id="vk">
        <path d="M21.077 16.7774C21.0552 16.7305 21.0348 16.6915 21.016 16.6603C20.7037 16.0978 20.1069 15.4074 19.2259 14.5889L19.2073 14.5702L19.198 14.561L19.1886 14.5516H19.1791C18.7793 14.1705 18.5261 13.9142 18.4201 13.783C18.2261 13.5331 18.1827 13.2801 18.2887 13.0237C18.3636 12.8301 18.645 12.4211 19.1322 11.7962C19.3884 11.465 19.5914 11.1996 19.7413 10.9996C20.8222 9.56252 21.2909 8.6442 21.1471 8.24429L21.0913 8.15084C21.0538 8.09458 20.9569 8.04311 20.8009 7.99617C20.6445 7.94933 20.4446 7.94158 20.2009 7.9728L17.5019 7.99144C17.4582 7.97595 17.3957 7.97739 17.3144 7.99617C17.2332 8.01494 17.1925 8.02436 17.1925 8.02436L17.1456 8.04783L17.1083 8.07603C17.077 8.09468 17.0426 8.12747 17.0051 8.17434C16.9678 8.22105 16.9366 8.27587 16.9116 8.33834C16.6178 9.09433 16.2837 9.79722 15.9087 10.447C15.6775 10.8344 15.4652 11.1702 15.2713 11.4545C15.0777 11.7387 14.9152 11.9481 14.7841 12.0823C14.6528 12.2166 14.5343 12.3243 14.4279 12.4056C14.3217 12.4869 14.2406 12.5213 14.1844 12.5087C14.1281 12.4961 14.0751 12.4837 14.0249 12.4712C13.9375 12.4149 13.8672 12.3384 13.8142 12.2416C13.7609 12.1447 13.7251 12.0229 13.7063 11.876C13.6877 11.7291 13.6767 11.6027 13.6735 11.4965C13.6706 11.3904 13.6719 11.2402 13.6783 11.0466C13.6848 10.8528 13.6877 10.7217 13.6877 10.653C13.6877 10.4155 13.6923 10.1578 13.7016 9.87978C13.7111 9.60175 13.7187 9.38146 13.7251 9.21917C13.7315 9.05672 13.7344 8.88484 13.7344 8.70365C13.7344 8.52245 13.7234 8.38035 13.7016 8.27722C13.6801 8.17421 13.647 8.07423 13.6035 7.97729C13.5596 7.88046 13.4955 7.80555 13.4113 7.75237C13.327 7.69926 13.2222 7.65712 13.0974 7.6258C12.7662 7.55086 12.3445 7.51032 11.8321 7.50402C10.67 7.49155 9.92335 7.56658 9.59221 7.72904C9.46101 7.79767 9.34228 7.89145 9.23612 8.01008C9.12363 8.14759 9.10794 8.22263 9.18915 8.23497C9.56408 8.29113 9.82951 8.42549 9.98572 8.6379L10.042 8.75046C10.0858 8.83167 10.1295 8.97544 10.1733 9.18158C10.217 9.38773 10.2452 9.61576 10.2576 9.86556C10.2888 10.3217 10.2888 10.7122 10.2576 11.0371C10.2263 11.362 10.1968 11.615 10.1686 11.7962C10.1404 11.9774 10.0982 12.1242 10.042 12.2367C9.98572 12.3491 9.94827 12.4179 9.92949 12.4428C9.91075 12.4677 9.89512 12.4835 9.88272 12.4896C9.80151 12.5208 9.71705 12.5366 9.62963 12.5366C9.54209 12.5366 9.43593 12.4928 9.311 12.4053C9.1861 12.3178 9.05647 12.1976 8.92212 12.0445C8.78777 11.8914 8.63624 11.6774 8.46749 11.4025C8.29887 11.1276 8.12391 10.8028 7.94271 10.4279L7.7928 10.156C7.69908 9.98114 7.57107 9.72648 7.40861 9.39229C7.24606 9.05796 7.10239 8.73457 6.97749 8.42217C6.92756 8.29097 6.85256 8.19108 6.7526 8.12235L6.7057 8.09415C6.67451 8.0692 6.62445 8.04271 6.55578 8.01448C6.48701 7.98629 6.41526 7.96607 6.34022 7.95363L3.77234 7.97227C3.50993 7.97227 3.33189 8.03172 3.23814 8.15045L3.20062 8.20661C3.18188 8.23789 3.17242 8.28785 3.17242 8.35662C3.17242 8.42536 3.19117 8.50972 3.22869 8.6096C3.60355 9.49063 4.01121 10.3403 4.45166 11.1588C4.8921 11.9772 5.27485 12.6365 5.59965 13.1361C5.92452 13.636 6.25566 14.1078 6.59307 14.5512C6.93048 14.9949 7.15383 15.2792 7.2631 15.4041C7.37251 15.5292 7.45844 15.6227 7.52091 15.6852L7.75525 15.9101C7.90519 16.0601 8.12539 16.2397 8.41592 16.449C8.70652 16.6583 9.02824 16.8645 9.38124 17.0677C9.73431 17.2706 10.1451 17.4362 10.6137 17.5642C11.0823 17.6924 11.5384 17.7438 11.982 17.719H13.0598C13.2784 17.7001 13.444 17.6314 13.5565 17.5128L13.5938 17.4658C13.6189 17.4285 13.6423 17.3706 13.664 17.2926C13.6859 17.2145 13.6968 17.1285 13.6968 17.0349C13.6904 16.7663 13.7109 16.5242 13.7576 16.3087C13.8043 16.0932 13.8576 15.9308 13.9171 15.8214C13.9766 15.7121 14.0438 15.6198 14.1185 15.545C14.1935 15.4701 14.2468 15.4247 14.2781 15.4091C14.3093 15.3934 14.3341 15.3827 14.3529 15.3763C14.5028 15.3263 14.6793 15.3747 14.8825 15.5217C15.0856 15.6685 15.2761 15.8498 15.4543 16.0653C15.6323 16.2809 15.8463 16.5229 16.0962 16.7915C16.3462 17.0602 16.5648 17.2599 16.7522 17.3913L16.9395 17.5038C17.0647 17.5788 17.2271 17.6476 17.4271 17.71C17.6267 17.7725 17.8016 17.7881 17.9518 17.7569L20.3509 17.7195C20.5882 17.7195 20.7728 17.6802 20.9038 17.6022C21.035 17.5241 21.113 17.4381 21.1381 17.3445C21.1632 17.2508 21.1645 17.1445 21.1429 17.0257C21.1207 16.9072 21.0988 16.8243 21.077 16.7774Z"
              fill="currentColor"/>
    </symbol>

    <symbol fill="none" xmlns="http://www.w3.org/2000/svg" viewBox="0 0 24 25" id="telegram">
        <path d="M19.7112 5.23445L3.76401 11.4159C3.12227 11.7037 2.90522 12.2802 3.60887 12.593L7.70004 13.8999L17.5919 7.75493C18.132 7.36915 18.6849 7.47203 18.2091 7.89638L9.71336 15.6285L9.44647 18.9007C9.69367 19.4059 10.1463 19.4083 10.435 19.1572L12.7855 16.9216L16.811 19.9516C17.746 20.508 18.2547 20.1489 18.4559 19.1292L21.0963 6.56188C21.3705 5.30659 20.9029 4.75351 19.7112 5.23445Z"
              fill="currentColor"/>
    </symbol>

    <symbol fill="none" xmlns="http://www.w3.org/2000/svg" viewBox="0 0 28 28" id="note">
        <path d="M25.2709 12.1796L24.1276 17.0563C23.1476 21.2679 21.2109 22.9713 17.5709 22.6213C16.9876 22.5746 16.3576 22.4696 15.6809 22.3063L13.7209 21.8396C8.85586 20.6846 7.35086 18.2813 8.49419 13.4046L9.63753 8.51627C9.87086 7.5246 10.1509 6.66127 10.5009 5.9496C11.8659 3.12627 14.1876 2.36794 18.0842 3.2896L20.0326 3.7446C24.9209 4.88794 26.4142 7.30294 25.2709 12.1796Z"
              stroke="currentColor" stroke-width="2" stroke-linecap="round" stroke-linejoin="round"/>
        <path d="M17.5695 22.6219C16.8461 23.1119 15.9361 23.5202 14.8278 23.8819L12.9845 24.4886C8.35277 25.9819 5.91442 24.7336 4.40942 20.1019L2.91609 15.4936C1.42275 10.8619 2.65942 8.41186 7.29109 6.91853L9.13442 6.31186C9.61275 6.1602 10.0678 6.03186 10.4994 5.9502C10.1494 6.66186 9.86942 7.5252 9.63609 8.51686L8.49276 13.4052C7.34942 18.2819 8.85443 20.6852 13.7195 21.8402L15.6795 22.3069C16.3561 22.4702 16.9861 22.5752 17.5695 22.6219Z"
              stroke="currentColor" stroke-width="2" stroke-linecap="round" stroke-linejoin="round"/>
        <path d="M14.7461 9.95215L20.4044 11.3871" stroke="currentColor" stroke-width="2" stroke-linecap="round"
              stroke-linejoin="round"/>
        <path d="M13.6033 14.4668L16.9866 15.3301" stroke="currentColor" stroke-width="2" stroke-linecap="round"
              stroke-linejoin="round"/>
    </symbol>

    <symbol fill="none" xmlns="http://www.w3.org/2000/svg" viewBox="0 0 16 16" id="medal">
        <path d="M8 9.99967C10.4853 9.99967 12.5 8.05961 12.5 5.66634C12.5 3.27311 10.4853 1.33301 8 1.33301C5.51472 1.33301 3.5 3.27311 3.5 5.66634C3.5 8.05961 5.51472 9.99967 8 9.99967Z"
              stroke="white" stroke-width="1.5" stroke-linecap="round" stroke-linejoin="round"/>
        <path d="M5.013 9.01355L5.00635 13.9336C5.00635 14.5336 5.42635 14.8269 5.94635 14.5802L7.73301 13.7336C7.87967 13.6602 8.12634 13.6602 8.27301 13.7336L10.0663 14.5802C10.5797 14.8202 11.0063 14.5336 11.0063 13.9336V8.89355"
              stroke="white" stroke-width="1.5" stroke-linecap="round" stroke-linejoin="round"/>
    </symbol>

    <symbol fill="none" xmlns="http://www.w3.org/2000/svg" viewBox="0 0 28 28" id="gear">
        <g clip-path="url(#clip0_122_15811)">
            <g clip-path="url(#clip1_122_15811)">
                <path d="M14 8.53125C12.9184 8.53125 11.8611 8.85199 10.9617 9.4529C10.0624 10.0538 9.36145 10.9079 8.94754 11.9072C8.53362 12.9065 8.42532 14.0061 8.63633 15.0669C8.84735 16.1277 9.36819 17.1022 10.133 17.867C10.8978 18.6318 11.8723 19.1527 12.9331 19.3637C13.9939 19.5747 15.0935 19.4664 16.0928 19.0525C17.0921 18.6385 17.9462 17.9376 18.5471 17.0383C19.148 16.1389 19.4688 15.0816 19.4688 14C19.4688 12.5496 18.8926 11.1586 17.867 10.133C16.8414 9.10742 15.4504 8.53125 14 8.53125ZM14 18.1562C13.178 18.1562 12.3744 17.9125 11.6909 17.4558C11.0074 16.9991 10.4747 16.35 10.1601 15.5905C9.84555 14.8311 9.76324 13.9954 9.92361 13.1892C10.084 12.3829 10.4798 11.6423 11.0611 11.0611C11.6424 10.4798 12.3829 10.084 13.1892 9.92361C13.9954 9.76324 14.8311 9.84555 15.5905 10.1601C16.35 10.4747 16.9991 11.0074 17.4558 11.6909C17.9125 12.3744 18.1563 13.178 18.1563 14C18.1563 15.1023 17.7184 16.1595 16.9389 16.9389C16.1595 17.7184 15.1023 18.1562 14 18.1562Z"
                      fill="currentColor"/>
                <path d="M26.4688 10.5H24.5153C24.4698 10.4997 24.4256 10.4852 24.3887 10.4585C24.3519 10.4318 24.3242 10.3943 24.3097 10.3512C24.1826 9.99018 24.0365 9.63604 23.8722 9.29031C23.8517 9.24952 23.8444 9.20333 23.8515 9.15821C23.8586 9.1131 23.8796 9.07133 23.9116 9.03875L25.2919 7.65625C25.4341 7.51406 25.5469 7.34525 25.6238 7.15946C25.7008 6.97367 25.7404 6.77454 25.7404 6.57344C25.7404 6.37234 25.7008 6.17321 25.6238 5.98742C25.5469 5.80163 25.4341 5.63282 25.2919 5.49062L22.5072 2.70813C22.365 2.56592 22.1962 2.45311 22.0104 2.37615C21.8246 2.29919 21.6255 2.25958 21.4244 2.25958C21.2233 2.25958 21.0241 2.29919 20.8384 2.37615C20.6526 2.45311 20.4838 2.56592 20.3416 2.70813L18.9613 4.08844C18.9287 4.12044 18.8869 4.14144 18.8418 4.1485C18.7967 4.15556 18.7505 4.14833 18.7097 4.12781C18.364 3.96343 18.0098 3.81739 17.6488 3.69031C17.6057 3.67576 17.5682 3.64813 17.5415 3.61128C17.5148 3.57442 17.5003 3.53017 17.5 3.48469V1.53125C17.5 1.12514 17.3387 0.735658 17.0515 0.448493C16.7643 0.161328 16.3749 0 15.9688 0H12.0312C11.6251 0 11.2357 0.161328 10.9485 0.448493C10.6613 0.735658 10.5 1.12514 10.5 1.53125V3.48469C10.4997 3.53017 10.4852 3.57442 10.4585 3.61128C10.4318 3.64813 10.3943 3.67576 10.3512 3.69031C9.99018 3.81744 9.63604 3.96348 9.29031 4.12781C9.24952 4.14833 9.20333 4.15556 9.15821 4.1485C9.1131 4.14144 9.07133 4.12044 9.03875 4.08844L7.65625 2.70813C7.51406 2.56592 7.34525 2.45311 7.15946 2.37615C6.97367 2.29919 6.77454 2.25958 6.57344 2.25958C6.37234 2.25958 6.17321 2.29919 5.98742 2.37615C5.80163 2.45311 5.63282 2.56592 5.49062 2.70813L2.70813 5.49281C2.56592 5.635 2.45311 5.80381 2.37615 5.9896C2.29919 6.17539 2.25958 6.37453 2.25958 6.57562C2.25958 6.77672 2.29919 6.97585 2.37615 7.16164C2.45311 7.34743 2.56592 7.51625 2.70813 7.65844L4.08844 9.03875C4.12044 9.07133 4.14144 9.1131 4.1485 9.15821C4.15556 9.20333 4.14833 9.24952 4.12781 9.29031C3.96343 9.63602 3.81739 9.99016 3.69031 10.3512C3.67576 10.3943 3.64813 10.4318 3.61128 10.4585C3.57442 10.4852 3.53017 10.4997 3.48469 10.5H1.53125C1.12514 10.5 0.735658 10.6613 0.448493 10.9485C0.161328 11.2357 0 11.6251 0 12.0312L0 15.9688C0 16.3749 0.161328 16.7643 0.448493 17.0515C0.735658 17.3387 1.12514 17.5 1.53125 17.5H3.48469C3.53017 17.5003 3.57442 17.5148 3.61128 17.5415C3.64813 17.5682 3.67576 17.6057 3.69031 17.6488C3.81744 18.0098 3.96348 18.364 4.12781 18.7097C4.14833 18.7505 4.15556 18.7967 4.1485 18.8418C4.14144 18.8869 4.12044 18.9287 4.08844 18.9613L2.70813 20.3438C2.56592 20.4859 2.45311 20.6548 2.37615 20.8405C2.29919 21.0263 2.25958 21.2255 2.25958 21.4266C2.25958 21.6277 2.29919 21.8268 2.37615 22.0126C2.45311 22.1984 2.56592 22.3672 2.70813 22.5094L5.49281 25.2941C5.635 25.4363 5.80381 25.5491 5.9896 25.626C6.17539 25.703 6.37453 25.7426 6.57562 25.7426C6.77672 25.7426 6.97585 25.703 7.16164 25.626C7.34743 25.5491 7.51625 25.4363 7.65844 25.2941L9.03875 23.9137C9.07133 23.8818 9.1131 23.8608 9.15821 23.8537C9.20333 23.8466 9.24952 23.8539 9.29031 23.8744C9.63602 24.0388 9.99016 24.1848 10.3512 24.3119C10.3943 24.3264 10.4318 24.3541 10.4585 24.3909C10.4852 24.4278 10.4997 24.472 10.5 24.5175V26.4688C10.5 26.8749 10.6613 27.2643 10.9485 27.5515C11.2357 27.8387 11.6251 28 12.0312 28H15.9688C16.3749 28 16.7643 27.8387 17.0515 27.5515C17.3387 27.2643 17.5 26.8749 17.5 26.4688V24.5153C17.5003 24.4698 17.5148 24.4256 17.5415 24.3887C17.5682 24.3519 17.6057 24.3242 17.6488 24.3097C18.0098 24.1826 18.364 24.0365 18.7097 23.8722C18.7505 23.8517 18.7967 23.8444 18.8418 23.8515C18.8869 23.8586 18.9287 23.8796 18.9613 23.9116L20.3438 25.2919C20.4859 25.4341 20.6548 25.5469 20.8405 25.6238C21.0263 25.7008 21.2255 25.7404 21.4266 25.7404C21.6277 25.7404 21.8268 25.7008 22.0126 25.6238C22.1984 25.5469 22.3672 25.4341 22.5094 25.2919L25.2941 22.5072C25.4363 22.365 25.5491 22.1962 25.626 22.0104C25.703 21.8246 25.7426 21.6255 25.7426 21.4244C25.7426 21.2233 25.703 21.0241 25.626 20.8384C25.5491 20.6526 25.4363 20.4838 25.2941 20.3416L23.9137 18.9613C23.8818 18.9287 23.8608 18.8869 23.8537 18.8418C23.8466 18.7967 23.8539 18.7505 23.8744 18.7097C24.0388 18.364 24.1848 18.0098 24.3119 17.6488C24.3264 17.6057 24.3541 17.5682 24.3909 17.5415C24.4278 17.5148 24.472 17.5003 24.5175 17.5H26.4688C26.8749 17.5 27.2643 17.3387 27.5515 17.0515C27.8387 16.7643 28 16.3749 28 15.9688V12.0312C28 11.6251 27.8387 11.2357 27.5515 10.9485C27.2643 10.6613 26.8749 10.5 26.4688 10.5ZM26.6875 15.9688C26.6875 16.0268 26.6645 16.0824 26.6234 16.1234C26.5824 16.1645 26.5268 16.1875 26.4688 16.1875H24.5153C24.198 16.1879 23.8887 16.2868 23.6301 16.4706C23.3714 16.6543 23.1763 16.9139 23.0716 17.2134C22.9596 17.5306 22.8311 17.8416 22.6866 18.1453C22.548 18.4316 22.5019 18.7539 22.5548 19.0675C22.6078 19.3811 22.757 19.6704 22.9819 19.8953L24.3622 21.2756C24.4029 21.3166 24.4258 21.3721 24.4258 21.4298C24.4258 21.4876 24.4029 21.5431 24.3622 21.5841L21.5797 24.3644C21.5387 24.4051 21.4833 24.428 21.4255 24.428C21.3677 24.428 21.3122 24.4051 21.2712 24.3644L19.8909 22.9841C19.666 22.7592 19.3767 22.6099 19.0631 22.557C18.7495 22.5041 18.4272 22.5501 18.1409 22.6888C17.8366 22.8334 17.5248 22.9619 17.2069 23.0738C16.9078 23.1788 16.6487 23.3741 16.4653 23.6327C16.2819 23.8913 16.1833 24.2005 16.1831 24.5175V26.4688C16.1831 26.5268 16.1601 26.5824 16.1191 26.6234C16.078 26.6645 16.0224 26.6875 15.9644 26.6875H12.0312C11.9732 26.6875 11.9176 26.6645 11.8766 26.6234C11.8355 26.5824 11.8125 26.5268 11.8125 26.4688V24.5153C11.8121 24.198 11.7132 23.8887 11.5294 23.6301C11.3457 23.3714 11.0861 23.1763 10.7866 23.0716C10.4694 22.9596 10.1584 22.8311 9.85469 22.6866C9.56844 22.548 9.24614 22.5019 8.93254 22.5548C8.61894 22.6078 8.3296 22.757 8.10469 22.9819L6.72437 24.3622C6.68339 24.4029 6.62795 24.4258 6.57016 24.4258C6.51237 24.4258 6.45692 24.4029 6.41594 24.3622L3.63563 21.5797C3.59488 21.5387 3.57201 21.4833 3.57201 21.4255C3.57201 21.3677 3.59488 21.3122 3.63563 21.2712L5.01594 19.8909C5.2408 19.666 5.39006 19.3767 5.44298 19.0631C5.4959 18.7495 5.44986 18.4272 5.31125 18.1409C5.16661 17.8366 5.0381 17.5248 4.92625 17.2069C4.82058 16.9089 4.62528 16.651 4.36718 16.4685C4.10907 16.286 3.8008 16.1878 3.48469 16.1875H1.53125C1.47323 16.1875 1.41759 16.1645 1.37657 16.1234C1.33555 16.0824 1.3125 16.0268 1.3125 15.9688V12.0312C1.3125 11.9732 1.33555 11.9176 1.37657 11.8766C1.41759 11.8355 1.47323 11.8125 1.53125 11.8125H3.48469C3.80197 11.8121 4.11131 11.7132 4.36994 11.5294C4.62858 11.3457 4.82373 11.0861 4.92844 10.7866C5.04036 10.4694 5.16887 10.1584 5.31344 9.85469C5.45204 9.56844 5.49808 9.24614 5.44516 8.93254C5.39224 8.61894 5.24299 8.3296 5.01813 8.10469L3.63781 6.72437C3.59707 6.68339 3.5742 6.62795 3.5742 6.57016C3.5742 6.51237 3.59707 6.45692 3.63781 6.41594L6.42031 3.63563C6.4613 3.59488 6.51674 3.57201 6.57453 3.57201C6.63232 3.57201 6.68776 3.59488 6.72875 3.63563L8.10906 5.01594C8.33397 5.2408 8.62331 5.39006 8.93692 5.44298C9.25052 5.4959 9.57282 5.44986 9.85906 5.31125C10.1634 5.16661 10.4752 5.0381 10.7931 4.92625C11.0911 4.82058 11.349 4.62528 11.5315 4.36718C11.714 4.10907 11.8122 3.8008 11.8125 3.48469V1.53125C11.8125 1.47323 11.8355 1.41759 11.8766 1.37657C11.9176 1.33555 11.9732 1.3125 12.0312 1.3125H15.9688C16.0268 1.3125 16.0824 1.33555 16.1234 1.37657C16.1645 1.41759 16.1875 1.47323 16.1875 1.53125V3.48469C16.1879 3.80197 16.2868 4.11131 16.4706 4.36994C16.6543 4.62858 16.9139 4.82373 17.2134 4.92844C17.5306 5.04036 17.8416 5.16887 18.1453 5.31344C18.4316 5.45204 18.7539 5.49808 19.0675 5.44516C19.3811 5.39224 19.6704 5.24299 19.8953 5.01813L21.2756 3.63781C21.3166 3.59707 21.3721 3.5742 21.4298 3.5742C21.4876 3.5742 21.5431 3.59707 21.5841 3.63781L24.3687 6.4225C24.4095 6.46349 24.4324 6.51893 24.4324 6.57672C24.4324 6.63451 24.4095 6.68995 24.3687 6.73094L22.9884 8.11125C22.7636 8.33616 22.6143 8.6255 22.5614 8.9391C22.5085 9.25271 22.5545 9.57501 22.6931 9.86125C22.8378 10.1656 22.9663 10.4774 23.0781 10.7953C23.1832 11.0944 23.3785 11.3535 23.6371 11.5369C23.8957 11.7203 24.2049 11.8189 24.5219 11.8191H26.4688C26.5268 11.8191 26.5824 11.8421 26.6234 11.8831C26.6645 11.9242 26.6875 11.9798 26.6875 12.0378V15.9688Z"
                      fill="currentColor"/>
            </g>
        </g>
        <defs>
            <clipPath id="clip0_122_15811">
                <rect width="28" height="28" fill="white"/>
            </clipPath>
            <clipPath id="clip1_122_15811">
                <rect width="28" height="28" fill="white"/>
            </clipPath>
        </defs>
    </symbol>


    <symbol fill="none" xmlns="http://www.w3.org/2000/svg" viewBox="0 0 28 28" id="user">
        <path d="M14 14.875C12.6155 14.875 11.2622 14.4645 10.111 13.6953C8.95987 12.9261 8.06266 11.8329 7.53285 10.5538C7.00303 9.2747 6.86441 7.86724 7.13451 6.50937C7.4046 5.1515 8.07129 3.90422 9.05026 2.92526C10.0292 1.94629 11.2765 1.2796 12.6344 1.00951C13.9922 0.73941 15.3997 0.878033 16.6788 1.40785C17.9579 1.93766 19.0511 2.83487 19.8203 3.98601C20.5895 5.13716 21 6.49053 21 7.875C21 9.73152 20.2625 11.512 18.9498 12.8248C17.637 14.1375 15.8565 14.875 14 14.875ZM14 2.625C12.9617 2.625 11.9466 2.93291 11.0833 3.50979C10.2199 4.08667 9.547 4.9066 9.14964 5.86592C8.75228 6.82523 8.64831 7.88083 8.85088 8.89923C9.05345 9.91763 9.55347 10.8531 10.2877 11.5873C11.0219 12.3215 11.9574 12.8216 12.9758 13.0241C13.9942 13.2267 15.0498 13.1227 16.0091 12.7254C16.9684 12.328 17.7883 11.6551 18.3652 10.7917C18.9421 9.92839 19.25 8.91335 19.25 7.875C19.25 6.48262 18.6969 5.14726 17.7123 4.16269C16.7277 3.17813 15.3924 2.625 14 2.625Z"
              fill="currentColor"/>
        <path d="M20.125 27.1249H7.875C6.71468 27.1249 5.60188 26.664 4.78141 25.8435C3.96094 25.023 3.5 23.9103 3.5 22.7499V19.2499C3.50003 19.0981 3.53957 18.9488 3.61474 18.8169C3.68992 18.685 3.79813 18.5749 3.92875 18.4974L8.30375 15.8724C8.50114 15.7832 8.72461 15.7704 8.93091 15.8364C9.13721 15.9025 9.31168 16.0427 9.42055 16.23C9.52943 16.4173 9.56497 16.6382 9.5203 16.8502C9.47564 17.0622 9.35394 17.25 9.17875 17.3774L5.25 19.7487V22.7499C5.25 23.4461 5.52656 24.1138 6.01884 24.6061C6.51113 25.0984 7.17881 25.3749 7.875 25.3749H20.125C20.8212 25.3749 21.4889 25.0984 21.9812 24.6061C22.4734 24.1138 22.75 23.4461 22.75 22.7499V19.7487L18.8038 17.3774C18.6922 17.327 18.5924 17.2537 18.511 17.1623C18.4295 17.071 18.3681 16.9635 18.3308 16.8469C18.2934 16.7303 18.281 16.6071 18.2942 16.4854C18.3075 16.3637 18.3461 16.2461 18.4077 16.1403C18.4692 16.0344 18.5523 15.9427 18.6515 15.871C18.7507 15.7992 18.8639 15.7491 18.9837 15.7239C19.1035 15.6986 19.2272 15.6988 19.347 15.7244C19.4667 15.75 19.5797 15.8004 19.6787 15.8724L24.0537 18.4974C24.1876 18.5727 24.2993 18.6818 24.3777 18.8139C24.456 18.946 24.4982 19.0964 24.5 19.2499V22.7499C24.5 23.9103 24.0391 25.023 23.2186 25.8435C22.3981 26.664 21.2853 27.1249 20.125 27.1249Z"
              fill="currentColor"/>
    </symbol>

    <symbol fill="none" xmlns="http://www.w3.org/2000/svg" viewBox="0 0 28 28" id="book">
        <path d="M8.5 1.4V21H23.625V2.1C23.625 1.7134 23.3172 1.4 22.9375 1.4H8.5ZM7.125 1.4H6.4375C5.29841 1.4 4.375 2.3402 4.375 3.5V21.6997C4.94952 21.2604 5.66365 21 6.4375 21H7.125V1.4ZM3.20792 25.7016C3.07966 25.5744 3 25.3967 3 25.2V3.5C3 1.567 4.53902 0 6.4375 0H22.9375C24.0766 0 25 0.940202 25 2.1V25.9C25 27.0598 24.0766 28 22.9375 28H6.4375C4.95363 28 3.68936 27.0427 3.20792 25.7016ZM23.625 22.4H6.4375C5.29841 22.4 4.375 23.3402 4.375 24.5C4.375 25.6598 5.29841 26.6 6.4375 26.6H22.9375C23.3172 26.6 23.625 26.2866 23.625 25.9V22.4ZM11.9375 11.2C11.5578 11.2 11.25 10.8866 11.25 10.5C11.25 10.1134 11.5578 9.8 11.9375 9.8H20.1875C20.5672 9.8 20.875 10.1134 20.875 10.5C20.875 10.8866 20.5672 11.2 20.1875 11.2H11.9375ZM11.9375 8.4C11.5578 8.4 11.25 8.0866 11.25 7.7C11.25 7.3134 11.5578 7 11.9375 7H17.4375C17.8172 7 18.125 7.3134 18.125 7.7C18.125 8.0866 17.8172 8.4 17.4375 8.4H11.9375Z"
              fill="currentColor"/>
    </symbol>

    <symbol fill="none" xmlns="http://www.w3.org/2000/svg" viewBox="0 0 28 28" id="doc-edit">
        <g clip-path="url(#clip0_122_15833)">
            <path d="M13.4893 0.794922L13.5342 0.847656L19.2305 7.49316L22.5977 4.12695C23.4299 3.29503 24.6854 3.29485 25.5176 4.12695L26.6777 5.28711C27.5098 6.11922 27.5097 7.37483 26.6777 8.20703L19.3721 15.5127V25.1211C19.372 26.2675 18.4345 27.205 17.2881 27.2051H2.78223C1.6359 27.2048 0.698352 26.2674 0.698242 25.1211V2.87891C0.698489 1.73267 1.63599 0.795168 2.78223 0.794922H13.4893ZM2.78223 2.0625C2.29487 2.06275 1.96606 2.46863 1.96582 2.87891V25.1211C1.96593 25.6086 2.37188 25.9373 2.78223 25.9375H17.2881C17.7758 25.9375 18.1054 25.5316 18.1055 25.1211V16.7793L12.5586 22.3262L12.5273 22.3584L12.4824 22.3672L7.64746 23.334L7.42676 23.3779L7.4707 23.1572L8.4375 18.3223L8.44629 18.2773L8.47852 18.2461L17.8936 8.83105H14.3867C13.2402 8.83093 12.3027 7.89358 12.3027 6.74707V2.0625H2.78223ZM9.06445 21.7393L11.5664 21.2549L9.54785 19.2373L9.06445 21.7393ZM10.3438 18.1582L12.6455 20.46L23.2646 9.8418L20.9619 7.53906L10.3438 18.1582ZM24.6279 5.0166C24.2997 4.68837 23.8146 4.68837 23.4863 5.0166L21.9482 6.55371L24.25 8.85547L25.7881 7.31836C26.1163 6.99013 26.1163 6.50499 25.7881 6.17676L24.6279 5.0166ZM13.5703 6.74707C13.5703 6.94005 13.6679 7.14638 13.8281 7.30664C13.9883 7.46674 14.1939 7.56437 14.3867 7.56445H17.6396L13.5703 2.80273V6.74707Z"
                  fill="currentColor" stroke="currentColor" stroke-width="0.3"/>
        </g>
        <defs>
            <clipPath id="clip0_122_15833">
                <rect width="28" height="28" fill="white"/>
            </clipPath>
        </defs>
    </symbol>

    <symbol fill="none" xmlns="http://www.w3.org/2000/svg" viewBox="0 0 28 28" id="folder">
        <g clip-path="url(#clip0_122_15843)">
            <path d="M2.79793 25.192C2.05587 25.192 1.34421 24.8972 0.819493 24.3725C0.294781 23.8478 0 23.1361 0 22.3941V5.60652C0 4.86446 0.294781 4.1528 0.819493 3.62809C1.34421 3.10338 2.05587 2.80859 2.79793 2.80859H9.32642C9.46343 2.80837 9.59881 2.83834 9.72293 2.89637C9.84705 2.9544 9.95686 3.03907 10.0446 3.14435L12.8705 6.53916H24.2487C24.496 6.53916 24.7333 6.63742 24.9082 6.81233C25.0831 6.98723 25.1813 7.22445 25.1813 7.4718C25.1813 7.71916 25.0831 7.95638 24.9082 8.13128C24.7333 8.30619 24.496 8.40445 24.2487 8.40445H12.4321C12.2967 8.40331 12.1631 8.37268 12.0407 8.3147C11.9183 8.25672 11.81 8.17277 11.7233 8.0687L8.88808 4.67388H2.79793C2.55057 4.67388 2.31335 4.77214 2.13845 4.94704C1.96354 5.12195 1.86528 5.35917 1.86528 5.60652V22.3941C1.86528 22.6414 1.96354 22.8786 2.13845 23.0536C2.31335 23.2285 2.55057 23.3267 2.79793 23.3267C3.04528 23.3267 3.2825 23.425 3.4574 23.5999C3.63231 23.7748 3.73057 24.012 3.73057 24.2594C3.73057 24.5067 3.63231 24.7439 3.4574 24.9188C3.2825 25.0937 3.04528 25.192 2.79793 25.192Z"
                  fill="currentColor"/>
            <path d="M22.7376 25.192H2.79773C2.65688 25.1952 2.51715 25.1664 2.38903 25.1078C2.26091 25.0492 2.14772 24.9624 2.05798 24.8538C1.96823 24.7452 1.90425 24.6176 1.87084 24.4808C1.83743 24.3439 1.83546 24.2013 1.86508 24.0635L4.66301 11.0066C4.70851 10.7944 4.82654 10.6048 4.99676 10.4703C5.16699 10.3359 5.37877 10.2649 5.59565 10.2698H27.0464C27.1873 10.2666 27.327 10.2954 27.4551 10.354C27.5832 10.4126 27.6964 10.4994 27.7862 10.608C27.8759 10.7166 27.9399 10.8441 27.9733 10.981C28.0067 11.1179 28.0087 11.2605 27.9791 11.3983L25.4796 22.9817C25.3449 23.6085 24.9991 24.17 24.5 24.5724C24.0009 24.9748 23.3787 25.1935 22.7376 25.192ZM3.9542 23.3267H22.7376C22.9545 23.3316 23.1663 23.2606 23.3365 23.1262C23.5067 22.9917 23.6247 22.8021 23.6702 22.59L25.8899 12.135H6.30446L3.9542 23.3267Z"
                  fill="currentColor"/>
        </g>
        <defs>
            <clipPath id="clip0_122_15843">
                <rect width="28" height="28" fill="white"/>
            </clipPath>
        </defs>
    </symbol>

    <symbol fill="none" xmlns="http://www.w3.org/2000/svg" viewBox="0 0 32 32" id="chat">
        <g clip-path="url(#clip0_291_24259)">
            <path d="M4 28.0003C3.86882 28.0037 3.73868 27.9763 3.62 27.9203C3.43738 27.8453 3.28105 27.7179 3.17072 27.5541C3.06039 27.3904 3.00099 27.1977 3 27.0003V8.78029C3.01428 8.13807 3.15496 7.50497 3.414 6.91714C3.67303 6.32931 4.04535 5.79828 4.50968 5.35438C4.974 4.91049 5.52124 4.56243 6.12012 4.33009C6.719 4.09775 7.35779 3.98568 8 4.00029H24C24.6422 3.98568 25.281 4.09775 25.8799 4.33009C26.4788 4.56243 27.026 4.91049 27.4903 5.35438C27.9547 5.79828 28.327 6.32931 28.586 6.91714C28.845 7.50497 28.9857 8.13807 29 8.78029V18.2203C28.9857 18.8625 28.845 19.4956 28.586 20.0834C28.327 20.6713 27.9547 21.2023 27.4903 21.6462C27.026 22.0901 26.4788 22.4382 25.8799 22.6705C25.281 22.9028 24.6422 23.0149 24 23.0003H9.41L4.71 27.7103C4.61656 27.803 4.50574 27.8763 4.38391 27.9261C4.26207 27.9758 4.13161 28.001 4 28.0003ZM8 6.00029C7.23409 5.97322 6.4886 6.25044 5.92646 6.77136C5.36432 7.29228 5.03123 8.01453 5 8.78029V24.5903L8.29 21.2903C8.38344 21.1976 8.49426 21.1243 8.61609 21.0745C8.73793 21.0248 8.86839 20.9995 9 21.0003H24C24.7659 21.0274 25.5114 20.7501 26.0735 20.2292C26.6357 19.7083 26.9688 18.986 27 18.2203V8.78029C26.9688 8.01453 26.6357 7.29228 26.0735 6.77136C25.5114 6.25044 24.7659 5.97322 24 6.00029H8Z"
                  fill="currentColor"/>
            <path d="M16 15C16.8284 15 17.5 14.3284 17.5 13.5C17.5 12.6716 16.8284 12 16 12C15.1716 12 14.5 12.6716 14.5 13.5C14.5 14.3284 15.1716 15 16 15Z"
                  fill="currentColor"/>
            <path d="M21.5 15C22.3284 15 23 14.3284 23 13.5C23 12.6716 22.3284 12 21.5 12C20.6716 12 20 12.6716 20 13.5C20 14.3284 20.6716 15 21.5 15Z"
                  fill="currentColor"/>
            <path d="M10.5 15C11.3284 15 12 14.3284 12 13.5C12 12.6716 11.3284 12 10.5 12C9.67157 12 9 12.6716 9 13.5C9 14.3284 9.67157 15 10.5 15Z"
                  fill="currentColor"/>
        </g>
        <defs>
            <clipPath id="clip0_291_24259">
                <rect width="32" height="32" fill="white"/>
            </clipPath>
        </defs>
    </symbol>

    <symbol fill="none" xmlns="http://www.w3.org/2000/svg" viewBox="0 0 28 28" id="shield">
        <path d="M25.9018 8.77525C25.9095 8.74791 25.9157 8.72018 25.9205 8.69218C26.2128 6.9213 26.358 5.12927 26.3546 3.33444C26.3538 2.71542 26.1076 2.12196 25.6698 1.68431C25.232 1.24665 24.6385 1.00055 24.0194 1C23.97 1.00011 23.9206 1.00475 23.872 1.01385L13.1745 3.0686L2.4826 1.01385C2.43397 1.00475 2.38461 1.00011 2.33514 1C1.71611 1.00055 1.12258 1.24665 0.684798 1.68431C0.247014 2.12196 0.000733202 2.71542 0 3.33444C0 7.27572 0.668072 10.9816 1.98552 14.349C3.03318 17.0352 4.51197 19.5326 6.36365 21.7428C9.51985 25.5082 12.656 27.1372 12.7882 27.205C12.8986 27.2615 13.0208 27.2909 13.1448 27.2909H13.1766H13.2098C13.3338 27.2908 13.456 27.2614 13.5664 27.205C13.6702 27.1517 16.1147 25.8834 18.8576 23.0083C19.0314 23.0187 19.2038 23.0249 19.3796 23.0249C21.0308 23.0259 22.6476 22.5524 24.0373 21.6607C25.427 20.769 26.5312 19.4968 27.2184 17.9953C27.9056 16.4939 28.1469 14.8267 27.9135 13.192C27.6801 11.5574 26.9818 10.0243 25.9018 8.77525ZM13.1745 25.6224C12.3175 25.1143 9.9027 23.5414 7.51771 20.6787C4.8032 17.4207 1.56391 11.7674 1.56391 3.33444C1.5643 3.14255 1.63674 2.95779 1.76687 2.81676C1.897 2.67573 2.07535 2.5887 2.2666 2.57291L13.0104 4.6332C13.1166 4.65259 13.2255 4.65259 13.3317 4.6332L24.0811 2.57222C24.2724 2.588 24.4508 2.675 24.581 2.81602C24.7113 2.95703 24.7839 3.14179 24.7844 3.33375C24.7858 4.72283 24.6951 6.11047 24.5131 7.48757C21.1409 4.98489 16.3439 5.26112 13.2853 8.31833C12.2264 9.37644 11.4615 10.6922 11.0659 12.1359C10.6703 13.5796 10.6577 15.1015 11.0293 16.5515C11.4009 18.0016 12.1439 19.3298 13.1851 20.4054C14.2263 21.4809 15.5297 22.2666 16.967 22.685C15.284 24.2974 13.8087 25.2486 13.1745 25.6224ZM24.3614 19.3917C23.3758 20.3763 22.1204 21.0466 20.7539 21.3179C19.3874 21.5891 17.9711 21.4492 16.6842 20.9157C15.3972 20.3822 14.2973 19.4792 13.5234 18.3207C12.7496 17.1622 12.3365 15.8003 12.3365 14.4071C12.3365 13.014 12.7496 11.6521 13.5234 10.4936C14.2973 9.33512 15.3972 8.43207 16.6842 7.89859C17.9711 7.36511 19.3874 7.22515 20.7539 7.49641C22.1204 7.76766 23.3758 8.43795 24.3614 9.42255C25.6828 10.7453 26.4253 12.5383 26.4258 14.4079C26.4264 16.2776 25.6849 18.0711 24.3642 19.3945L24.3614 19.3917Z"
              fill="currentColor"/>
        <path d="M22.52 11.1123L17.6212 16.2997L15.6136 14.1723C15.5425 14.0971 15.4574 14.0366 15.363 13.9942C15.2686 13.9519 15.1668 13.9286 15.0634 13.9256C14.96 13.9226 14.857 13.94 14.7604 13.9768C14.6637 14.0136 14.5752 14.0691 14.5 14.1401C14.4248 14.2111 14.3642 14.2962 14.3219 14.3906C14.2796 14.485 14.2562 14.5868 14.2533 14.6902C14.2503 14.7936 14.2677 14.8966 14.3045 14.9933C14.3413 15.09 14.3968 15.1784 14.4678 15.2537L17.0508 17.9855C17.1935 18.1364 17.3904 18.2245 17.598 18.2305C17.8057 18.2365 18.0072 18.1598 18.1585 18.0173C18.1907 17.9868 18.2201 17.9534 18.2464 17.9176L18.2505 17.9142L23.656 12.1902C23.7819 12.0368 23.845 11.8415 23.8326 11.6434C23.8203 11.4454 23.7334 11.2594 23.5894 11.1228C23.4455 10.9862 23.2552 10.9092 23.0568 10.9073C22.8583 10.9053 22.6666 10.9786 22.52 11.1123Z"
              fill="currentColor"/>
    </symbol>

    <symbol fill="none" xmlns="http://www.w3.org/2000/svg" viewBox="0 0 27 27" id="manufacturing">
        <g clip-path="url(#clip0_291_24245)">
            <path d="M12.6562 22.5469C13.1145 22.5469 13.5546 22.729 13.8789 23.0527C14.203 23.3764 14.3858 23.8155 14.3867 24.2734V26.1562C14.3866 26.2821 14.3371 26.4033 14.249 26.4932C14.1609 26.583 14.0408 26.6341 13.915 26.6367H0.914062C0.786529 26.6367 0.66445 26.5862 0.574219 26.4961C0.484068 26.4059 0.432731 26.2837 0.432617 26.1562V24.2734C0.433579 23.8154 0.616282 23.3764 0.94043 23.0527C1.26478 22.729 1.70481 22.5469 2.16309 22.5469H12.6562ZM2.16309 23.5098C1.96001 23.5098 1.76495 23.5901 1.62109 23.7334C1.47732 23.8768 1.39621 24.0714 1.39551 24.2744V25.6748H13.4297V24.2744L13.4141 24.125C13.4041 24.0757 13.3896 24.0271 13.3701 23.9805C13.3312 23.8875 13.2737 23.8034 13.2021 23.7324C13.1305 23.6614 13.0456 23.6046 12.9521 23.5664C12.8587 23.5282 12.7582 23.5092 12.6572 23.5098H2.16309Z"
                  fill="currentColor" stroke="currentColor" stroke-width="0.4"/>
            <path d="M8.57715 18.6719C8.63908 18.6675 8.7008 18.677 8.75977 18.6963L8.76074 18.6953C9.68649 18.9805 10.4965 19.5555 11.0703 20.3359C11.6441 21.1163 11.9519 22.0607 11.9482 23.0293L11.9385 23.123C11.92 23.2157 11.8744 23.3014 11.8066 23.3691C11.7164 23.4593 11.5944 23.5107 11.4668 23.5107H3.35547C3.22788 23.5107 3.10586 23.4593 3.01562 23.3691C2.94785 23.3014 2.90224 23.2157 2.88379 23.123L2.87402 23.0293C2.87075 22.0616 3.17881 21.1186 3.75195 20.3389C4.325 19.5593 5.13324 18.985 6.05762 18.6992V18.6982C6.17878 18.6605 6.31022 18.672 6.42285 18.7305C6.53544 18.789 6.62044 18.8899 6.65918 19.0107L6.67969 19.1035C6.68323 19.1346 6.68322 19.166 6.68066 19.1973C6.67545 19.2605 6.65798 19.3226 6.62891 19.3789C6.59984 19.4352 6.56016 19.4855 6.51172 19.5264C6.46328 19.5672 6.40708 19.598 6.34668 19.6172H6.3457C5.66225 19.8295 5.05849 20.2436 4.61426 20.8047C4.21473 21.3094 3.96221 21.9123 3.87891 22.5479H10.9541C10.8704 21.9106 10.6172 21.3062 10.2158 20.8008C9.76954 20.239 9.16336 19.825 8.47754 19.6143V19.6133C8.41777 19.596 8.36137 19.5688 8.3125 19.5303C8.26197 19.4903 8.21944 19.4403 8.18848 19.3838C8.15757 19.3274 8.13836 19.2652 8.13184 19.2012C8.12536 19.1371 8.13242 19.0722 8.15137 19.0107C8.17038 18.9492 8.20167 18.8921 8.24316 18.8428C8.28463 18.7935 8.33521 18.7528 8.39258 18.7236C8.45003 18.6944 8.51286 18.6764 8.57715 18.6719Z"
                  fill="currentColor" stroke="currentColor" stroke-width="0.4"/>
            <path d="M8.62354 12.5127C8.75106 12.5128 8.8732 12.5641 8.96338 12.6543C9.05353 12.7445 9.104 12.8666 9.104 12.9941V19.5332L9.09619 19.7012C9.05699 20.0881 8.88463 20.4513 8.60693 20.7285C8.28944 21.0454 7.85922 21.2236 7.41064 21.2236C6.9624 21.2235 6.53229 21.0455 6.21533 20.7285C5.8984 20.4115 5.72022 19.9815 5.72021 19.5332V12.9971C5.72021 12.8694 5.77156 12.7465 5.86182 12.6562C5.95203 12.5663 6.07423 12.5156 6.20166 12.5156C6.32909 12.5156 6.45129 12.5663 6.5415 12.6562C6.63176 12.7465 6.68311 12.8694 6.68311 12.9971V19.5283C6.69479 19.7125 6.77557 19.8856 6.90967 20.0127C7.04541 20.1412 7.22569 20.2129 7.4126 20.2129C7.59941 20.2129 7.77885 20.1411 7.91455 20.0127C8.05023 19.8843 8.13176 19.709 8.14209 19.5225V12.9941C8.14209 12.8667 8.19267 12.7445 8.28271 12.6543C8.37297 12.564 8.4959 12.5127 8.62354 12.5127Z"
                  fill="currentColor" stroke="currentColor" stroke-width="0.4"/>
            <path d="M12.5918 3.61719C12.642 3.61719 12.6919 3.62629 12.7383 3.64551C12.7846 3.66471 12.8268 3.69305 12.8623 3.72852C12.8978 3.76398 12.9261 3.80622 12.9453 3.85254C12.9645 3.89888 12.9746 3.94886 12.9746 3.99902C12.9746 4.0492 12.9645 4.09914 12.9453 4.14551C12.9261 4.19186 12.8978 4.23404 12.8623 4.26953L8.42676 8.70215C8.39212 8.73801 8.3504 8.76715 8.30469 8.78711C8.25845 8.80722 8.20862 8.81761 8.1582 8.81836H8.15625C8.10581 8.81815 8.05525 8.80772 8.00879 8.78809C7.9626 8.76848 7.92089 8.73992 7.88574 8.7041C7.81496 8.63271 7.77539 8.5361 7.77539 8.43555C7.77549 8.33496 7.81482 8.23834 7.88574 8.16699L12.3213 3.72852C12.3568 3.69305 12.399 3.66471 12.4453 3.64551C12.4917 3.6263 12.5416 3.61719 12.5918 3.61719Z"
                  fill="currentColor" stroke="currentColor" stroke-width="0.2"/>
            <path d="M14.2949 5.25977C14.416 5.26448 14.5305 5.31472 14.6162 5.40039C14.7019 5.48609 14.7522 5.6006 14.7568 5.72168C14.7615 5.8428 14.7204 5.96165 14.6416 6.05371L14.6367 6.05859L14.6318 6.06445L10.165 10.5479L10.1562 10.5566L10.1553 10.5557C10.0639 10.6364 9.94591 10.6791 9.82422 10.6758H9.82129C9.81903 10.6757 9.81672 10.6769 9.81445 10.6768V10.6748C9.7548 10.6738 9.69592 10.6632 9.64062 10.6406C9.58201 10.6167 9.52836 10.5817 9.4834 10.5371C9.43837 10.4925 9.40236 10.4394 9.37793 10.3809C9.3535 10.3222 9.34082 10.2588 9.34082 10.1953C9.34083 10.132 9.35362 10.0692 9.37793 10.0107C9.40236 9.9521 9.43829 9.89825 9.4834 9.85352L13.957 5.37988L13.9629 5.375C14.055 5.29616 14.1738 5.25509 14.2949 5.25977Z"
                  fill="currentColor" stroke="currentColor" stroke-width="0.4"/>
            <path d="M17.4028 3.48828C17.4691 3.49084 17.5345 3.50627 17.5942 3.53516C17.6492 3.56176 17.6967 3.60052 17.7378 3.64551L17.7388 3.64453L21.8696 7.76953C21.9372 7.83656 21.9845 7.92236 22.0034 8.01562C22.0223 8.10886 22.0131 8.20589 21.9771 8.29395C21.941 8.382 21.8792 8.45755 21.8003 8.51074C21.7411 8.55059 21.674 8.57623 21.604 8.58691L21.5337 8.59277C21.4704 8.59313 21.4077 8.58058 21.3491 8.55664C21.2905 8.53269 21.2369 8.49773 21.1919 8.45312V8.45215L17.0601 4.32422L17.061 4.32324C17.0158 4.28202 16.9774 4.23386 16.9507 4.17871C16.9218 4.119 16.9064 4.05358 16.9038 3.9873C16.9012 3.92103 16.9118 3.85472 16.936 3.79297C16.9602 3.73127 16.9976 3.67577 17.0444 3.62891C17.0913 3.58204 17.1468 3.5447 17.2085 3.52051C17.2703 3.49631 17.3366 3.48572 17.4028 3.48828Z"
                  fill="currentColor" stroke="currentColor" stroke-width="0.4"/>
            <path d="M15.7173 5.23926C15.8126 5.23926 15.9056 5.26737 15.9839 5.31934L16.0571 5.37988L20.0337 9.35938L20.0356 9.36133C20.1014 9.42849 20.1465 9.51324 20.1646 9.60547C20.1825 9.69782 20.173 9.79383 20.1372 9.88086C20.1013 9.96796 20.0403 10.0427 19.9624 10.0957C19.8845 10.1486 19.7929 10.1774 19.6987 10.1787H19.687V10.1777C19.6242 10.1779 19.5616 10.1673 19.5034 10.1436C19.4449 10.1196 19.3921 10.0836 19.3472 10.0391H19.3462L15.3774 6.06152L15.3784 6.06055C15.3338 6.01606 15.2972 5.96438 15.2729 5.90625C15.2485 5.84761 15.2358 5.78423 15.2358 5.7207C15.2359 5.65735 15.2486 5.59463 15.2729 5.53613C15.2974 5.47749 15.3333 5.42365 15.3784 5.37891L15.3794 5.37988C15.4695 5.29052 15.5904 5.23932 15.7173 5.23926Z"
                  fill="currentColor" stroke="currentColor" stroke-width="0.4"/>
            <path d="M20.0449 9.83691C20.1748 9.83702 20.2997 9.8886 20.3916 9.98047C20.4835 10.0724 20.5351 10.1972 20.5352 10.3271C20.5352 10.457 20.4833 10.5819 20.3916 10.6738L19.9971 11.0674L20.6689 13.6172L22.2988 14.0547L22.2979 14.0557C22.4148 14.0773 22.5208 14.1396 22.5938 14.2344C22.6719 14.336 22.706 14.4647 22.6895 14.5918C22.6729 14.7189 22.6065 14.8339 22.5049 14.9121C22.4033 14.9904 22.2747 15.0253 22.1475 15.0088L21.9736 14.9863V14.9658L20.1504 14.4805H20.1484C20.0674 14.458 19.9937 14.4144 19.9346 14.3545C19.8757 14.2948 19.833 14.2207 19.8115 14.1396L18.9854 11.0459L18.9863 11.0449C18.9628 10.9634 18.9599 10.8773 18.9805 10.7949C19.0017 10.7102 19.0456 10.633 19.1074 10.5713L19.6982 9.98047C19.7902 9.88873 19.915 9.83691 20.0449 9.83691Z"
                  fill="currentColor" stroke="currentColor" stroke-width="0.4"/>
            <path d="M22.3569 7.42969C22.4392 7.40911 22.5255 7.41208 22.6069 7.43555L22.6079 7.43457L25.7017 8.25586C25.7835 8.27765 25.8586 8.32001 25.9185 8.37988C25.9784 8.43981 26.0217 8.51478 26.0435 8.59668H26.0425L26.5679 10.5635C26.5857 10.6277 26.5901 10.6957 26.5806 10.7617C26.571 10.8275 26.5484 10.8908 26.5132 10.9473C26.4779 11.0038 26.4305 11.0523 26.3755 11.0898C26.3205 11.1273 26.2583 11.1528 26.1929 11.165L26.1909 11.166C26.1532 11.1726 26.1146 11.1722 26.0767 11.168C25.9737 11.168 25.8735 11.1356 25.7905 11.0742C25.725 11.0257 25.6729 10.9619 25.6392 10.8887L25.6118 10.8125L25.1538 9.10156L22.6177 8.43457L22.3315 8.71973L22.3306 8.71875C22.2895 8.76359 22.2418 8.80156 22.187 8.82812C22.1273 8.85701 22.0619 8.87342 21.9956 8.87598C21.9293 8.87853 21.863 8.86794 21.8013 8.84375C21.7396 8.81958 21.6841 8.78217 21.6372 8.73535C21.5903 8.68845 21.553 8.63207 21.5288 8.57031C21.5048 8.50878 21.4941 8.44297 21.4966 8.37695C21.4991 8.31072 21.5146 8.24523 21.5435 8.18555C21.57 8.13062 21.6079 8.08215 21.6528 8.04102H21.6519L22.1333 7.55664L22.1821 7.51367C22.2339 7.47421 22.2934 7.44564 22.3569 7.42969Z"
                  fill="currentColor" stroke="currentColor" stroke-width="0.4"/>
            <path d="M6.83008 7.89844C7.40735 7.78361 8.00602 7.84214 8.5498 8.06738C9.09352 8.29263 9.5578 8.67472 9.88477 9.16406C10.2117 9.65342 10.3867 10.2289 10.3867 10.8174C10.3859 11.6063 10.0725 12.3631 9.51465 12.9209C8.95682 13.4787 8.20002 13.7921 7.41113 13.793C6.82261 13.793 6.24717 13.6179 5.75781 13.291C5.26847 12.964 4.88638 12.4998 4.66113 11.9561C4.43589 11.4123 4.37736 10.8136 4.49219 10.2363C4.60703 9.65909 4.89047 9.12906 5.30664 8.71289C5.72281 8.29672 6.25284 8.01328 6.83008 7.89844ZM7.41113 8.80664C7.01291 8.80664 6.6231 8.92427 6.29199 9.14551C5.96083 9.36686 5.70212 9.68175 5.5498 10.0498C5.39753 10.4178 5.35864 10.8233 5.43652 11.2139C5.51447 11.6043 5.70654 11.9628 5.98828 12.2441C6.27011 12.5256 6.62883 12.7175 7.01953 12.7949C7.41007 12.8723 7.81491 12.8323 8.18262 12.6797C8.55046 12.5269 8.86501 12.2679 9.08594 11.9365C9.30684 11.6051 9.4243 11.2157 9.42383 10.8174C9.42315 10.284 9.21124 9.77251 8.83398 9.39551C8.45657 9.01857 7.94453 8.80675 7.41113 8.80664Z"
                  fill="currentColor" stroke="currentColor" stroke-width="0.4"/>
            <path d="M14.4136 0.416992C14.9911 0.302293 15.5894 0.36133 16.1333 0.586914C16.6772 0.812507 17.1425 1.19381 17.4692 1.68359C17.796 2.17345 17.9698 2.75003 17.9692 3.33887C17.9676 4.12674 17.6543 4.88234 17.0972 5.43945C16.5401 5.99657 15.7845 6.30989 14.9966 6.31152C14.4077 6.31212 13.8312 6.13829 13.3413 5.81152C12.8515 5.48476 12.4702 5.01944 12.2446 4.47559C12.019 3.93173 11.96 3.33336 12.0747 2.75586C12.1894 2.1783 12.4728 1.64782 12.8892 1.23145C13.3055 0.815071 13.836 0.531723 14.4136 0.416992ZM14.8472 1.33008C14.5011 1.35524 14.1666 1.46972 13.8765 1.66309C13.5451 1.88402 13.2861 2.19857 13.1333 2.56641C12.9807 2.93412 12.9407 3.33895 13.0181 3.72949C13.0955 4.1202 13.2874 4.47891 13.5688 4.76074C13.8502 5.04248 14.2086 5.23455 14.5991 5.3125C14.9897 5.39039 15.3952 5.35149 15.7632 5.19922C16.1312 5.0469 16.4461 4.78819 16.6675 4.45703C16.8886 4.12608 17.0062 3.7369 17.0063 3.33887L16.9966 3.13965C16.9504 2.67934 16.7472 2.24621 16.4175 1.91602C16.0406 1.53861 15.529 1.32657 14.9956 1.3252L14.8472 1.33008Z"
                  fill="currentColor" stroke="currentColor" stroke-width="0.4"/>
            <path d="M20.7251 7.58691C21.088 7.51453 21.4642 7.5519 21.8062 7.69336C22.148 7.83482 22.4403 8.07427 22.646 8.38184C22.8517 8.68953 22.9614 9.05177 22.9614 9.42188C22.9614 9.91735 22.7646 10.3925 22.4146 10.7432C22.0644 11.0938 21.5897 11.2911 21.0942 11.292C20.7242 11.2926 20.3622 11.1836 20.0542 10.9785C19.7462 10.7734 19.5058 10.4814 19.3638 10.1396C19.2217 9.79789 19.1845 9.42167 19.2563 9.05859C19.3282 8.69555 19.5056 8.36152 19.7671 8.09961C20.0286 7.83776 20.3622 7.65934 20.7251 7.58691ZM21.0933 8.5166C20.9137 8.51616 20.7379 8.56858 20.5884 8.66797C20.4387 8.76758 20.3215 8.91014 20.2524 9.07617C20.1836 9.24202 20.1658 9.42443 20.2007 9.60059C20.2356 9.77689 20.3217 9.93929 20.4487 10.0664C20.5759 10.1935 20.7382 10.2805 20.9146 10.3154C21.0909 10.3504 21.274 10.3317 21.4399 10.2627C21.6058 10.1937 21.7476 10.0773 21.8472 9.92773C21.9468 9.77804 22 9.60168 21.9995 9.42188L21.9946 9.33203C21.974 9.12482 21.8824 8.92978 21.7339 8.78125C21.5642 8.61166 21.3341 8.5167 21.0942 8.5166H21.0933Z"
                  fill="currentColor" stroke="currentColor" stroke-width="0.4"/>
        </g>
        <defs>
            <clipPath id="clip0_291_24245">
                <rect width="27" height="27" fill="white"/>
            </clipPath>
        </defs>
    </symbol>


    <symbol fill="none" xmlns="http://www.w3.org/2000/svg" viewBox="0 0 11 7" id="arrow-dropdown">
            <path d="M1 1L5.5 5L10 1" stroke="currentColor" stroke-width="1.8" stroke-linecap="round"/>
    </symbol>

</svg>