<svg width="25" height="25" viewBox="0 0 25 25" fill="none" xmlns="http://www.w3.org/2000/svg">
<path d="M3.17242 4.38757C2.75821 4.38757 2.42242 4.72336 2.42242 5.13757C2.42242 5.55179 2.75821 5.88757 3.17242 5.88757H21.1724C21.5866 5.88757 21.9224 5.55179 21.9224 5.13757C21.9224 4.72336 21.5866 4.38757 21.1724 4.38757H3.17242Z" fill="#111111"/>
<path d="M11.7027 9.38757L11.6255 9.39148C11.2474 9.42998 10.9527 9.74931 10.9527 10.1376C10.9527 10.5258 11.2474 10.8452 11.6255 10.8837L11.7027 10.8876H21.1724C21.5866 10.8876 21.9224 10.5518 21.9224 10.1376C21.9224 9.72336 21.5866 9.38757 21.1724 9.38757H11.7027Z" fill="#111111"/>
<path d="M3.17242 14.3876C2.75821 14.3876 2.42242 14.7234 2.42242 15.1376C2.42242 15.5518 2.75821 15.8876 3.17242 15.8876H21.1724C21.5866 15.8876 21.9224 15.5518 21.9224 15.1376C21.9224 14.7234 21.5866 14.3876 21.1724 14.3876H3.17242Z" fill="#111111"/>
<path d="M11.7027 19.3876L11.6255 19.3915C11.2474 19.43 10.9527 19.7493 10.9527 20.1376C10.9527 20.5258 11.2474 20.8452 11.6255 20.8837L11.7027 20.8876H21.1724C21.5866 20.8876 21.9224 20.5518 21.9224 20.1376C21.9224 19.7234 21.5866 19.3876 21.1724 19.3876H11.7027Z" fill="#111111"/>
</svg>
