<svg width="24" height="25" viewBox="0 0 24 25" fill="none" xmlns="http://www.w3.org/2000/svg">
<path d="M21 12.2718C21.0021 13.2942 20.827 14.3092 20.4825 15.2718C19.8609 17.0246 18.7117 18.5418 17.1927 19.6148C15.6738 20.6879 13.8597 21.264 12 21.264C10.1402 21.264 8.32618 20.6879 6.80722 19.6148C5.28826 18.5418 4.139 17.0246 3.51746 15.2718C2.82751 13.3313 2.82751 11.2123 3.51746 9.27181C4.139 7.51902 5.28826 6.0018 6.80722 4.92879C8.32618 3.85578 10.1402 3.27966 12 3.27966C13.8597 3.27966 15.6738 3.85578 17.1927 4.92879C18.7117 6.0018 19.8609 7.51902 20.4825 9.27181C20.827 10.2344 21.0021 11.2494 21 12.2718Z" fill="white"/>
<path d="M21 12.2718C21.0021 13.2942 20.827 14.3092 20.4825 15.2718H3.51746C2.82751 13.3313 2.82751 11.2123 3.51746 9.27182H20.4825C20.827 10.2344 21.0021 11.2494 21 12.2718Z" fill="#0036A7"/>
<path d="M20.4825 15.2718C19.8609 17.0246 18.7117 18.5418 17.1927 19.6148C15.6738 20.6879 13.8597 21.264 12 21.264C10.1402 21.264 8.32617 20.6879 6.80721 19.6148C5.28825 18.5418 4.13899 17.0246 3.51746 15.2718H20.4825Z" fill="#D62718"/>
</svg>
