<svg width="24" height="25" viewBox="0 0 24 25" fill="none" xmlns="http://www.w3.org/2000/svg">
<g clip-path="url(#clip0_25_2717)">
<path d="M18.7765 10.2072C18.7765 6.46468 15.7426 3.43076 12 3.43076C8.25747 3.43076 5.22354 6.46468 5.22354 10.2072C5.22354 13.9498 8.25747 16.9837 12 16.9837C15.7426 16.9837 18.7765 13.9498 18.7765 10.2072Z" fill="#D9534F"/>
<path d="M12.5592 9.78963C12.5592 9.48092 12.3088 9.23066 12 9.23066C11.6913 9.23068 11.4411 9.48094 11.441 9.78963C11.441 10.0984 11.6913 10.3488 12 10.3488C12.3088 10.3488 12.5592 10.0984 12.5592 9.78963ZM12.9827 9.78963C12.9827 10.3323 12.5427 10.7723 12 10.7723C11.4574 10.7723 11.0175 10.3323 11.0175 9.78963C11.0175 9.24703 11.4574 8.80715 12 8.80713C12.5427 8.80713 12.9827 9.24701 12.9827 9.78963Z" fill="white"/>
<path d="M12.0011 7.52487C12.9944 7.52555 14.0089 8.11188 14.2769 9.29571L14.3027 9.42351C14.5341 10.7371 13.7095 11.8233 13.0361 12.4699C12.4572 13.0281 11.5421 13.0276 10.9615 12.4699L10.9612 12.4695C10.2687 11.8021 9.41285 10.6639 9.72312 9.29323L9.72334 9.29302L9.75063 9.18384C10.056 8.07326 11.0387 7.52426 12.0011 7.52487ZM12.0008 7.9484C11.1666 7.94785 10.3537 8.43148 10.1363 9.38713C9.8786 10.5263 10.5838 11.5176 11.2549 12.1645L11.2946 12.2009C11.7129 12.5648 12.341 12.5521 12.7424 12.1647L12.7428 12.1645L12.8692 12.0391C13.4797 11.4149 14.0652 10.5195 13.8852 9.4957L13.8639 9.38919C13.6476 8.43358 12.8351 7.94897 12.0008 7.9484Z" fill="white"/>
<path d="M13.4824 19.7366C13.4824 20.5553 12.8187 21.219 12 21.219C11.1813 21.219 10.5177 20.5553 10.5177 19.7366C10.5177 18.918 11.1813 18.2543 12 18.2543C12.8187 18.2543 13.4824 18.918 13.4824 19.7366Z" fill="#D9534F"/>
</g>
<defs>
<clipPath id="clip0_25_2717">
<rect width="13.5529" height="18" fill="white" transform="translate(5.22354 3.27182)"/>
</clipPath>
</defs>
</svg>
