<svg xmlns="http://www.w3.org/2000/svg" width="24" height="25" fill="none" viewBox="0 0 24 25"><path fill="#111" d="M20.294 7.637c0-1.391-.348-2.444-.999-3.144-.642-.692-1.68-1.15-3.295-1.15H8c-1.615 0-2.653.458-3.295 1.15-.651.7-1 1.753-1 3.144v10c0 1.392.349 2.444 1 3.145.642.692 1.68 1.15 3.295 1.15h8c1.616 0 2.653-.458 3.295-1.15.651-.7 1-1.753 1-3.144zm1.412 10c0 1.609-.402 3.057-1.376 4.106-.983 1.058-2.445 1.6-4.33 1.6H8c-1.885 0-3.347-.542-4.33-1.6-.974-1.05-1.376-2.497-1.376-4.105v-10c0-1.609.402-3.057 1.376-4.106.983-1.058 2.445-1.6 4.33-1.6h8c1.885 0 3.347.542 4.33 1.6.974 1.05 1.376 2.497 1.376 4.105z"/><path fill="#111" d="m15.5 1.932.072.003a.706.706 0 0 1 .634.703v7.86c0 1.07-1.26 1.582-2.02.893l-.004-.004L12 9.374l-2.181 2.013-.005.004c-.76.688-2.02.177-2.02-.894v-7.86l.004-.072a.706.706 0 0 1 .702-.633zM9.207 10.03l1.976-1.821c.46-.43 1.176-.43 1.636 0h.001l1.976 1.822V3.344h-5.59zm8.293 3.902.072.003a.706.706 0 0 1 0 1.405l-.072.004h-4.25a.706.706 0 0 1 0-1.412zm0 4 .072.003a.706.706 0 0 1 0 1.405l-.072.003H9a.706.706 0 0 1 0-1.411z"/></svg>