<svg xmlns="http://www.w3.org/2000/svg" width="24" height="25" fill="none" viewBox="0 0 24 25"><path fill="#111" d="M1.25 7.178c0-.768.136-1.512.413-2.205a5.35 5.35 0 0 1 1.32-1.93l.144-.135c.72-.656 1.552-1.02 2.463-1.02.385 0 .777.082 1.135.253l-.001.001c.365.17.697.43.957.801L9.999 6.21H10q.31.43.485.854c.116.276.196.583.196.895a2.1 2.1 0 0 1-.308 1.078l.001.001a4 4 0 0 1-.683.871l-.683.71.017.047c.148.264.416.64.829 1.128h-.001q.658.767 1.414 1.539h-.001c.53.52 1.033.992 1.54 1.423l.351.287c.325.254.589.427.793.536l.042.018.689-.68.214-.202a3.4 3.4 0 0 1 .646-.467l.126-.072a2.05 2.05 0 0 1 .974-.247q.449.001.894.185.317.132.63.328l.208.136.006.005.006.004 3.302 2.344.131.096c.253.198.46.434.61.715l.07.145.005.011.005.012a2.8 2.8 0 0 1 .213 1.059c0 .472-.105.951-.322 1.41-.2.423-.46.825-.802 1.203-.556.614-1.186 1.074-1.911 1.371l-.001-.001a5.8 5.8 0 0 1-2.234.437c-1.138 0-2.328-.269-3.553-.79a18.3 18.3 0 0 1-3.588-2.064h-.001a29.5 29.5 0 0 1-3.366-2.874l-.005-.005A29 29 0 0 1 4.074 14.3l-.002-.003c-.846-1.177-1.536-2.365-2.042-3.555v-.003c-.512-1.215-.779-2.404-.779-3.56m1.5 0c0 .922.212 1.912.66 2.976l.179.402c.435.94 1.004 1.896 1.697 2.86l.308.414a28 28 0 0 0 2.404 2.765l.382.372q1.344 1.284 2.811 2.354l.412.292a16.5 16.5 0 0 0 2.881 1.605c1.075.457 2.065.67 2.966.67.605 0 1.156-.112 1.661-.323l.004-.002.184-.08a3.7 3.7 0 0 0 1.025-.74l.16-.17c.238-.262.418-.539.558-.836a1.8 1.8 0 0 0 .178-.77c0-.16-.033-.31-.1-.484a.77.77 0 0 0-.287-.32l-.007-.004-3.298-2.34-.159-.105a3 3 0 0 0-.403-.212.9.9 0 0 0-.326-.074.6.6 0 0 0-.32.1l-.021.013-.022.012a2.4 2.4 0 0 0-.537.424l-.003.004-.527-.534.526.534-.76.75a1.3 1.3 0 0 1-.936.387c-.148 0-.324-.017-.514-.088l-.015-.007-.017-.006-.114-.051-.049-.022-.037-.014-.035-.02q-.609-.322-1.423-1.01h-.001a31 31 0 0 1-1.63-1.508l-.006-.004-.005-.005a35 35 0 0 1-1.481-1.615l-.006-.006c-.453-.536-.8-1.01-1.016-1.406l-.032-.058-.02-.063-.016-.038c-.012-.028-.034-.078-.056-.136l-.014-.04-.011-.042a1.7 1.7 0 0 1-.052-.412c0-.337.114-.66.37-.92l.76-.79.005-.005.005-.004c.206-.206.35-.393.437-.55l.012-.02a.6.6 0 0 0 .1-.32.9.9 0 0 0-.078-.315l-.005-.011a2.7 2.7 0 0 0-.315-.546l-.003-.004-2.32-3.27-.005-.007a.9.9 0 0 0-.367-.306l-.01-.005a1.1 1.1 0 0 0-.486-.106c-.508 0-1.027.206-1.554.724l-.006.006-.006.005c-.454.429-.77.898-.966 1.4l-.001.003a4.4 4.4 0 0 0-.307 1.652M17.75 9.638c0-.13-.06-.387-.24-.736a4.7 4.7 0 0 0-.729-1.022v-.002c-.578-.623-1.243-.99-1.781-.99a.75.75 0 0 1 0-1.5c1.141 0 2.175.71 2.878 1.467l.284.327c.271.333.504.686.683 1.034.23.448.405.952.405 1.422a.75.75 0 1 1-1.5 0m3.5 0A6.245 6.245 0 0 0 15 3.388a.75.75 0 0 1 0-1.5 7.745 7.745 0 0 1 7.75 7.75.75.75 0 1 1-1.5 0"/></svg>