<svg xmlns="http://www.w3.org/2000/svg" width="24" height="25" fill="none" viewBox="0 0 24 25"><path fill="#111" d="M21.25 12.638c0-5.106-4.144-9.25-9.25-9.25s-9.25 4.144-9.25 9.25 4.144 9.25 9.25 9.25 9.25-4.145 9.25-9.25m1.5 0c0 5.934-4.816 10.75-10.75 10.75S1.25 18.572 1.25 12.638 6.066 1.888 12 1.888s10.75 4.815 10.75 10.75"/><path fill="#111" d="M10.88 12.247v-4.1a.75.75 0 0 1 1.5 0v4.1c0 .154.06.377.19.606.097.17.212.306.319.395l.103.074.002.001 3.1 1.851.064.042a.75.75 0 0 1-.764 1.281l-.069-.035-3.1-1.85v-.002c-.407-.242-.735-.621-.96-1.014-.224-.394-.385-.872-.385-1.349"/></svg>