<svg xmlns="http://www.w3.org/2000/svg" width="24" height="25" fill="none" viewBox="0 0 24 25"><path fill="#111" d="M18.868 4.49a.91.91 0 0 1 1.281 1.28l-.063.069-6.633 6.634a.91.91 0 0 1-1.287-1.287l6.633-6.634z"/><path fill="#111" d="M19.18 8.431V5.458h-2.973a.91.91 0 0 1 0-1.82h3.883l.092.005a.91.91 0 0 1 .818.905v3.883a.91.91 0 0 1-1.82 0M3 15.065v-4.854C3 8.1 3.417 6.383 4.58 5.22c1.165-1.164 2.88-1.58 4.993-1.58h1.617l.094.004a.91.91 0 0 1 0 1.81l-.094.005H9.574c-1.933 0-3.05.392-3.705 1.048S4.82 8.279 4.82 10.211v4.854c0 1.932.392 3.048 1.048 3.704s1.772 1.048 3.705 1.048h4.854c1.932 0 3.048-.392 3.704-1.048s1.047-1.772 1.047-3.704v-1.619a.91.91 0 0 1 1.82 0v1.619c0 2.112-.416 3.827-1.58 4.991s-2.88 1.58-4.991 1.58H9.573c-2.112 0-3.828-.416-4.992-1.58S3 17.176 3 15.065"/></svg>