<svg xmlns="http://www.w3.org/2000/svg" width="24" height="25" fill="none" viewBox="0 0 24 25"><path fill="#111" d="M14.561 13.699a.706.706 0 0 1 .944-.049l.054.049 4.95 4.95.049.053a.706.706 0 0 1-.994.993l-.053-.048-4.95-4.95-.048-.054a.706.706 0 0 1 .048-.944"/><path fill="#111" d="M11.121 3.002a2.71 2.71 0 0 1 3.727.097l4.24 4.24.096.1a2.71 2.71 0 0 1 0 3.627l-.096.1-7.07 7.07a2.71 2.71 0 0 1-3.727.096l-.101-.095-4.24-4.24a2.71 2.71 0 0 1 0-3.828l7.07-7.07zm2.73 1.095a1.3 1.3 0 0 0-1.735-.089l-.097.089-7.07 7.07a1.3 1.3 0 0 0 0 1.831l4.24 4.24.098.09c.508.413 1.26.383 1.733-.09l7.07-7.07.09-.098a1.3 1.3 0 0 0 0-1.635l-.09-.098zM8 20.932l.072.003a.706.706 0 0 1 0 1.405L8 22.343H2a.706.706 0 0 1 0-1.411z"/><path fill="#111" d="M6.06 8.059a.706.706 0 0 1 .945-.049l.054.049 7.07 7.07.049.053a.706.706 0 0 1-.994.993l-.053-.048-7.07-7.07-.049-.054a.706.706 0 0 1 .049-.944"/></svg>