<svg xmlns="http://www.w3.org/2000/svg" width="24" height="25" fill="none" viewBox="0 0 24 25"><path fill="#111" d="M14.37 10.948a2.37 2.37 0 1 0-4.74 0 2.37 2.37 0 0 0 4.74 0m1.5 0a3.87 3.87 0 1 1-7.74 0 3.87 3.87 0 0 1 7.74 0"/><path fill="#111" d="M12.005 1.888c3.98.002 8.036 2.35 9.107 7.084l.103.512c.926 5.262-2.375 9.622-5.095 12.235a5.944 5.944 0 0 1-8.249 0v-.001C5.071 19.02 1.646 14.45 2.89 8.962V8.96l.109-.437c1.22-4.441 5.15-6.639 9.006-6.636m-.001 1.5c-3.416-.003-6.759 1.98-7.652 5.904-1.057 4.67 1.836 8.721 4.558 11.345l.165.151a4.443 4.443 0 0 0 6.005-.15l.001-.001.514-.508c2.48-2.535 4.88-6.194 4.142-10.39l-.088-.435c-.888-3.926-4.228-5.914-7.645-5.916"/></svg>