<svg xmlns="http://www.w3.org/2000/svg" width="72" height="25" fill="none" viewBox="0 0 72 25"><g fill="#111" clip-path="url(#a)"><path d="M10.982 11.448 9.59 10.076v9.32l-2.01-1.98v-9.32L4.797 5.35v9.32l-2.009-1.98V3.37L.003.626v13.202l10.98 10.822 1.392-1.38v-9.312l4.794-4.726 2.008-1.98v9.268l2.785-2.745V.625z"/><path d="M13.837 15.702h.547v5.579l2.785-2.758v-6.105zM34.38 3.424h1.686v7.655h-9.031V3.424h1.686v6.113h2.009V3.424h1.641v6.113h2.009zm9.941 7.656h-2.053l-2.74-3.741v3.74H37.84V3.424h1.687v3.532l2.54-3.532h1.965L41.38 7.088z"/><path d="M48.37 9.68q.689 0 1.243-.312t.871-.87.317-1.246q0-1.039-.694-1.734-.694-.694-1.73-.694-1.038 0-1.743.694t-.704 1.734.704 1.733 1.737.694m0 1.563q-1.774 0-2.956-1.143-1.182-1.142-1.182-2.848t1.182-2.85q1.181-1.141 2.957-1.142a4.33 4.33 0 0 1 2.113.52 3.8 3.8 0 0 1 1.481 1.432q.534.914.533 2.04 0 1.717-1.176 2.854t-2.951 1.137m6.634-7.818h5.159v7.655H58.49V4.966h-2.02l-.366 3.313q-.156 1.422-.827 2.122t-1.891.7h-.433V9.482h.444q.898 0 1.032-1.126zm9.996 2.023-1.01 2.734h2.031zM67.1 11.08l-.543-1.454H63.46l-.532 1.454h-1.776l3.04-7.655h1.587l3.14 7.655zm-40.065 3.28h6.046v7.655h-1.675v-6.113h-2.685v6.113h-1.686zm9.508 6.113h3.096v1.542h-4.783V14.36h4.66v1.53h-2.973v1.51h2.685v1.498h-2.685zm7.434-2.383q.499 0 .804-.307.305-.306.305-.788 0-.48-.305-.792t-.804-.312h-1.232v2.198zm.066-3.73q1.177 0 1.964.75.788.748.788 1.88 0 1.133-.788 1.881-.788.75-1.964.75h-1.298v2.394h-1.686V14.36zm7.057 6.135q.41 0 .666-.24a.82.82 0 0 0 .255-.624.8.8 0 0 0-.255-.612q-.256-.24-.666-.24h-1.487v1.716zm.776-3.904a.9.9 0 0 0-.06-.334.8.8 0 0 0-.173-.257.8.8 0 0 0-.271-.17 1 1 0 0 0-.36-.06h-1.399v1.63h1.398q.4 0 .632-.224a.78.78 0 0 0 .233-.585m.755 1.389q.51.262.793.738t.283 1.088q0 .92-.716 1.564-.715.645-1.725.645H47.96V14.36h3.218q.998 0 1.664.563t.666 1.406q0 .492-.234.929-.233.438-.643.722m9.065-3.62h1.686v7.655h-1.686zm-3.717 6.102q.532 0 .87-.311.339-.312.339-.804 0-.328-.15-.58a1.04 1.04 0 0 0-.427-.394 1.4 1.4 0 0 0-.632-.142h-1.21v2.231zm.122-3.783q.81 0 1.447.338.639.34.999.946.36.607.36 1.384 0 1.17-.787 1.92-.787.748-2.02.748h-3.017V14.36h1.686v2.319zm13.069 5.336h-1.886l-1.53-2.624-1.554 2.624h-1.886l2.418-4.013-2.263-3.642h1.886l1.387 2.362 1.398-2.362h1.842l-2.23 3.696z"/></g><defs><clipPath id="a"><path fill="#fff" d="M0 .638h71.172v24H0z"/></clipPath></defs></svg>