<svg xmlns="http://www.w3.org/2000/svg" width="135" height="47" fill="none" viewBox="0 0 135 47"><g clip-path="url(#a)"><path fill="#4579F5" d="m20.831 20.992-2.64-2.63v17.863l-3.812-3.796V14.565l-5.282-5.26v17.864l-3.81-3.796V5.51L.005.25v25.303L20.83 46.295l2.64-2.643v-17.85l9.094-9.058 3.81-3.795v17.763l5.282-5.26V.249z"/><path fill="#FF7E42" d="M26.247 29.145h1.037v10.693l5.282-5.287v-11.7z"/><path fill="#333" d="M65.212 5.613h3.199v14.672H51.28V5.613h3.198v11.716h3.81V5.613h3.114v11.716h3.81zm18.857 14.672h-3.894l-5.198-7.169v7.169h-3.199V5.612h3.2v6.77l4.819-6.77h3.725l-5.03 7.022z"/><path fill="#333" d="M91.75 17.602q1.305 0 2.357-.597a4.3 4.3 0 0 0 1.652-1.667q.6-1.069.6-2.389 0-1.992-1.315-3.322t-3.283-1.331-3.304 1.33-1.336 3.323 1.336 3.322 3.293 1.331m0 2.997q-3.367 0-5.609-2.19-2.24-2.19-2.24-5.46t2.24-5.46 5.61-2.191q2.209 0 4.008.996a7.2 7.2 0 0 1 2.81 2.746q1.01 1.75 1.01 3.909 0 3.292-2.23 5.47-2.232 2.18-5.599 2.18m12.586-14.986h9.785v14.672h-3.177V8.568h-3.83l-.695 6.351q-.295 2.725-1.568 4.066-1.274 1.342-3.588 1.342h-.821v-3.102h.842q1.705 0 1.957-2.159zm18.961 3.877-1.915 5.24h3.851zm3.978 10.795-1.031-2.788h-5.872l-1.01 2.788h-3.368l5.767-14.673h3.009l5.956 14.673zM51.28 26.573h11.47v14.673h-3.178V29.528h-5.093v11.718H51.28zM69.316 38.29h5.872v2.956h-9.07V26.573h8.838v2.935h-5.64V32.4h5.093v2.872h-5.093zm14.1-4.57q.947 0 1.526-.586.578-.586.579-1.51 0-.92-.579-1.519-.58-.598-1.526-.598h-2.337v4.214zm.126-7.146q2.231 0 3.725 1.435 1.495 1.437 1.495 3.605 0 2.17-1.495 3.605-1.494 1.437-3.725 1.437H81.08v4.59h-3.198V26.573zm13.384 11.758q.78 0 1.263-.461.484-.46.484-1.194 0-.713-.484-1.175-.484-.46-1.263-.46h-2.82v3.29zM98.4 30.85q0-.356-.115-.639a1.5 1.5 0 0 0-.326-.493 1.45 1.45 0 0 0-.516-.325 1.9 1.9 0 0 0-.684-.115h-2.651V32.4h2.651q.757 0 1.2-.43.441-.43.441-1.12m1.432 2.662a3.67 3.67 0 0 1 1.504 1.415q.537.912.537 2.086 0 1.76-1.357 2.997-1.358 1.237-3.273 1.237h-6.271V26.573h6.103q1.894 0 3.157 1.08 1.262 1.08 1.263 2.694a3.76 3.76 0 0 1-.443 1.78 3.85 3.85 0 0 1-1.22 1.384m17.193-6.938h3.199v14.673h-3.199zm-7.05 11.696q1.01 0 1.652-.597.642-.598.642-1.54 0-.63-.284-1.111a2 2 0 0 0-.81-.755 2.6 2.6 0 0 0-1.2-.273h-2.294v4.276zm.232-7.252q1.536 0 2.746.65a4.77 4.77 0 0 1 1.894 1.813q.684 1.164.684 2.652 0 2.242-1.495 3.678-1.494 1.436-3.829 1.436h-5.725V26.573h3.199v4.444zm24.79 10.229h-3.577l-2.904-5.03-2.947 5.03h-3.578l4.588-7.693-4.293-6.98h3.578l2.63 4.527 2.652-4.527h3.494l-4.23 7.085z"/></g><defs><clipPath id="a"><path fill="#fff" d="M0 .272h135v46H0z"/></clipPath></defs></svg>