<svg xmlns="http://www.w3.org/2000/svg" width="24" height="25" fill="none" viewBox="0 0 24 25"><path fill="#111" d="M21.429 10.878c0-4.198-3.656-7.669-8.258-7.669-4.537 0-8.153 3.373-8.255 7.49a6.3 6.3 0 0 1 2.584-.543c3.319 0 6.071 2.52 6.071 5.711 0 .967-.26 1.877-.715 2.674l.315.005.076.006q.114.015.215.074l4.19 2.49.004.003.057.029a.424.424 0 0 0 .58-.45l-.39-3.16a.57.57 0 0 1 .24-.539c2.002-1.404 3.286-3.626 3.286-6.121m1.142 0c0 2.782-1.375 5.243-3.493 6.849l.35 2.83v.002l.01.12c.059 1.229-1.28 2.075-2.37 1.418v.002l-4.06-2.413c-.428-.007-.85-.035-1.265-.092a.572.572 0 0 1-.358-.936 4.3 4.3 0 0 0 1.044-2.79c0-2.49-2.168-4.569-4.929-4.569-.919 0-1.77.229-2.501.633l-.307.184a.572.572 0 0 1-.866-.338l-.013-.072a7 7 0 0 1-.044-.828c0-4.902 4.244-8.812 9.402-8.812s9.4 3.91 9.4 8.811"/><path fill="#111" d="M12.429 15.867c0-2.488-2.168-4.568-4.929-4.568-1.05 0-2.012.298-2.808.817l-.004.003c-1.291.825-2.116 2.2-2.117 3.748 0 1.477.755 2.798 1.955 3.63.153.107.243.28.245.464l-.004.078-.25 1.964v.002a.04.04 0 0 0 .004.026.07.07 0 0 0 .052.036q.002.002.019-.007l.006-.004 2.61-1.55.069-.034a.6.6 0 0 1 .223-.046c1.594 0 3-.697 3.88-1.762l.005-.007.233-.299a4.26 4.26 0 0 0 .81-2.49m1.142 0a5.43 5.43 0 0 1-1.31 3.524c-1.07 1.298-2.737 2.127-4.598 2.173L5.181 23.04l-.001-.001c-.86.52-1.912-.204-1.798-1.168v-.004l.207-1.638c-1.318-1.036-2.161-2.6-2.161-4.36 0-1.971 1.052-3.694 2.64-4.71l.376-.226a6.3 6.3 0 0 1 3.055-.776c3.319 0 6.071 2.52 6.071 5.711"/></svg>