<svg xmlns="http://www.w3.org/2000/svg" width="24" height="25" fill="none" viewBox="0 0 24 25"><g clip-path="url(#a)"><path fill="#D9534F" d="M18.777 10.207a6.776 6.776 0 1 0-13.553 0 6.776 6.776 0 0 0 13.552 0"/><path fill="#fff" d="M12.56 9.79a.56.56 0 1 0-1.119 0 .56.56 0 0 0 1.118 0m.423 0a.983.983 0 1 1-1.966 0 .983.983 0 0 1 1.966 0"/><path fill="#fff" d="M12.001 7.525c.993 0 2.008.587 2.276 1.77l.026.129c.231 1.313-.594 2.4-1.267 3.046a1.495 1.495 0 0 1-2.075 0c-.692-.668-1.548-1.806-1.238-3.177l.028-.11c.305-1.11 1.288-1.659 2.25-1.658m0 .423c-.834 0-1.647.483-1.865 1.44-.257 1.138.448 2.13 1.119 2.777l.04.036a1.07 1.07 0 0 0 1.447-.036l.127-.126c.61-.624 1.196-1.52 1.016-2.543l-.021-.107c-.216-.955-1.029-1.44-1.863-1.44"/><path fill="#D9534F" d="M13.482 19.737a1.482 1.482 0 1 1-2.964 0 1.482 1.482 0 0 1 2.964 0"/></g><defs><clipPath id="a"><path fill="#fff" d="M5.224 3.272h13.552v18H5.224z"/></clipPath></defs></svg>