<svg xmlns="http://www.w3.org/2000/svg" width="24" height="25" fill="none" viewBox="0 0 24 25"><path fill="#111" d="M1.249 16.138v-7c0-1.893.544-3.37 1.614-4.363C3.923 3.791 5.383 3.388 7 3.388h7a.75.75 0 0 1 0 1.5H7c-1.385 0-2.424.346-3.114.987-.68.631-1.136 1.655-1.136 3.263v7c0 1.607.456 2.63 1.136 3.262.69.64 1.729.988 3.114.988h10c1.385 0 2.424-.347 3.114-.988.68-.631 1.136-1.655 1.136-3.262v-5a.75.75 0 0 1 1.5 0v5c0 1.892-.544 3.368-1.614 4.362-1.06.984-2.521 1.387-4.136 1.387H7c-1.615 0-3.076-.403-4.136-1.387-1.07-.994-1.614-2.47-1.614-4.363"/><path fill="#111" d="M6.415 9.17a.75.75 0 0 1 .991-.163l.063.045 3.129 2.499.148.106c.77.494 1.959.458 2.668-.106l1.18-.94a.75.75 0 1 1 .934 1.173l-1.18.94c-1.304 1.038-3.38 1.038-4.684 0l-3.13-2.5-.058-.051a.75.75 0 0 1-.06-1.003m14.833-3.032a1.75 1.75 0 1 0-3.5 0 1.75 1.75 0 0 0 3.5 0m1.5 0a3.25 3.25 0 1 1-6.5 0 3.25 3.25 0 0 1 6.5 0"/></svg>