<svg xmlns="http://www.w3.org/2000/svg" width="24" height="25" fill="none" viewBox="0 0 24 25"><path fill="#111" d="M12.02 1.93c.82.002 1.677.206 2.357.657l5.99 3.93.213.15c2.061 1.55 2.06 4.66 0 6.21l-.213.15-5.99 3.931c-.68.446-1.538.648-2.357.648s-1.676-.201-2.356-.647l-6.02-3.93c-2.357-1.539-2.357-4.984 0-6.523l6.02-3.93c.68-.446 1.537-.647 2.357-.646m-.001 1.412c-.61 0-1.182.152-1.582.415l-.001.002-6.02 3.93a2.48 2.48 0 0 0 0 4.158l6.02 3.93h.001l.158.094c.386.205.89.323 1.425.323.61 0 1.182-.153 1.582-.416l5.99-3.93.136-.096a2.48 2.48 0 0 0 0-3.959l-.136-.096-5.99-3.93-.004-.002c-.4-.266-.97-.422-1.58-.423"/><path fill="#111" d="M5.632 13.012c.39 0 .705.317.704.707l-.01 4.69c0 .46.182.975.507 1.427.326.452.756.787 1.189.931l3.19 1.06c.182.06.466.1.785.1.32 0 .608-.04.797-.101l3.183-1.059c.434-.144.865-.479 1.19-.93.326-.453.508-.97.508-1.43v-4.64a.706.706 0 0 1 1.411 0v4.64c0 .81-.309 1.61-.773 2.254-.464.645-1.123 1.191-1.89 1.447l-3.197 1.062c-.371.12-.817.169-1.23.169-.412 0-.856-.05-1.225-.17l-.004-.001-3.19-1.06c-.766-.256-1.426-.802-1.89-1.447s-.773-1.443-.773-2.253v-.002l.01-4.69a.706.706 0 0 1 .708-.704m15.062 2.626v-6a.706.706 0 1 1 1.412 0v6a.706.706 0 0 1-1.412 0"/></svg>