<svg xmlns="http://www.w3.org/2000/svg" width="24" height="25" fill="none" viewBox="0 0 24 25"><g clip-path="url(#a)"><path fill="#111" d="M12 1.013C5.578 1.013.375 6.216.375 12.638S5.579 24.263 12 24.263s11.625-5.204 11.625-11.625S18.422 1.013 12 1.013m5.71 7.964-1.908 8.99c-.141.638-.52.793-1.05.493l-2.907-2.142-1.401 1.35c-.155.154-.286.286-.586.286l.206-2.958 5.386-4.866c.235-.207-.052-.324-.361-.117l-6.657 4.19-2.868-.896c-.624-.196-.638-.623.13-.923l11.209-4.322c.52-.188.975.127.806.914"/></g><defs><clipPath id="a"><path fill="#fff" d="M0 .638h24v24H0z"/></clipPath></defs></svg>