<svg xmlns="http://www.w3.org/2000/svg" width="24" height="25" fill="none" viewBox="0 0 24 25"><path fill="#111" d="M20.294 5.617c0-1.244-1.018-2.264-2.294-2.264H6c-1.276 0-2.294 1.02-2.294 2.264v10.91l.003.116A2.28 2.28 0 0 0 6 18.792h.75c.97 0 1.92.38 2.615 1.073h.001l1.71 1.69a1.317 1.317 0 0 0 1.838 0l1.71-1.69a3.7 3.7 0 0 1 2.616-1.073H18c1.275 0 2.294-1.029 2.294-2.265zm1.412 10.91c0 2.025-1.66 3.677-3.706 3.677h-.76c-.617 0-1.196.238-1.621.663l-.003.003-1.71 1.69a2.73 2.73 0 0 1-3.822 0l-1.71-1.69-.003-.003a2.3 2.3 0 0 0-1.621-.663H6c-1.98 0-3.602-1.54-3.701-3.487l-.005-.19V5.617c0-2.036 1.662-3.675 3.706-3.675h12c2.044 0 3.706 1.64 3.706 3.675z"/><path fill="#111" d="M13.623 8.308a1.624 1.624 0 1 0-3.248 0 1.624 1.624 0 0 0 3.248 0m1.412 0a3.036 3.036 0 1 1-6.071 0 3.036 3.036 0 0 1 6.071 0m.259 7.99c0-1.282-1.332-2.554-3.294-2.554s-3.294 1.271-3.294 2.553a.706.706 0 1 1-1.412 0c0-2.317 2.248-3.965 4.706-3.965s4.705 1.648 4.705 3.965a.706.706 0 0 1-1.411 0"/></svg>