<svg xmlns="http://www.w3.org/2000/svg" width="24" height="25" fill="none" viewBox="0 0 24 25"><g clip-path="url(#a)"><path fill="#111" d="M15.683.638H8.316C1.593.638 0 2.23 0 8.954v7.368c0 6.723 1.594 8.316 8.317 8.316h7.367c6.723 0 8.317-1.593 8.317-8.316V8.954C24 2.231 22.39.638 15.683.638m3.692 17.12h-1.742c-.66 0-.864-.523-2.05-1.726-1.032-1-1.489-1.132-1.743-1.132-.36 0-.461.1-.461.594v1.574c0 .422-.133.676-1.25.676-1.849 0-3.9-1.118-5.337-3.2-2.168-3.05-2.761-5.336-2.761-5.809 0-.254.1-.492.59-.492h1.745c.442 0 .61.204.782.676.863 2.492 2.3 4.676 2.894 4.676.219 0 .32-.102.32-.66V10.36c-.067-1.188-.691-1.29-.691-1.711 0-.203.168-.407.437-.407h2.746c.37 0 .507.204.507.64v3.473c0 .375.168.508.27.508.219 0 .406-.133.812-.54 1.254-1.405 2.152-3.574 2.152-3.574.117-.254.32-.492.762-.492h1.746c.524 0 .64.27.524.645-.22 1.015-2.356 4.03-2.356 4.03-.184.305-.254.438 0 .778.188.254.797.781 1.203 1.254.746.847 1.32 1.558 1.473 2.05.172.489-.082.743-.574.743z"/></g><defs><clipPath id="a"><path fill="#fff" d="M0 .638h24v24H0z"/></clipPath></defs></svg>