<svg xmlns="http://www.w3.org/2000/svg" width="25" height="25" fill="none" viewBox="0 0 25 25"><path fill="#111" d="M21.077 16.777a1 1 0 0 0-.061-.117q-.469-.844-1.79-2.071l-.019-.019-.009-.009-.01-.01h-.009q-.6-.57-.759-.768-.29-.375-.131-.76.113-.29.843-1.227.385-.496.61-.796 1.62-2.156 1.405-2.756l-.056-.093q-.056-.084-.29-.155t-.6-.023l-2.7.018a.35.35 0 0 0-.187.005l-.122.028-.046.024-.038.028a.4.4 0 0 0-.103.098.7.7 0 0 0-.093.164 15 15 0 0 1-1.003 2.109q-.348.58-.638 1.008a5 5 0 0 1-.487.627q-.197.202-.356.324-.159.12-.244.103l-.16-.038a.6.6 0 0 1-.21-.23 1 1 0 0 1-.108-.365 4 4 0 0 1-.028-.83q.01-.29.01-.393 0-.356.014-.773l.023-.66q.01-.245.01-.516 0-.273-.033-.427a1.5 1.5 0 0 0-.098-.3.5.5 0 0 0-.193-.225 1.1 1.1 0 0 0-.314-.126q-.495-.113-1.265-.122-1.743-.018-2.24.225-.197.103-.356.281-.168.207-.047.225.562.084.797.403l.056.112q.066.122.131.432.066.309.085.684.045.684 0 1.171-.047.487-.09.76a1.5 1.5 0 0 1-.239.646.2.2 0 0 1-.046.047.7.7 0 0 1-.253.047q-.132 0-.319-.132a2.3 2.3 0 0 1-.389-.36 5 5 0 0 1-.455-.643q-.252-.412-.524-.974l-.15-.272q-.141-.263-.384-.764a15 15 0 0 1-.432-.97.6.6 0 0 0-.224-.3l-.047-.028a.6.6 0 0 0-.15-.08 1 1 0 0 0-.216-.06l-2.568.018q-.393 0-.534.178l-.037.057a.3.3 0 0 0-.029.15q0 .103.057.253.562 1.32 1.223 2.549.66 1.227 1.148 1.977t.993 1.415q.505.666.67.853.164.188.258.281l.234.225q.225.225.66.539.437.314.966.619.53.304 1.233.496.702.192 1.368.155h1.078q.328-.029.496-.206l.038-.047a.6.6 0 0 0 .07-.173 1 1 0 0 0 .033-.258 3 3 0 0 1 .06-.726q.07-.324.16-.488a1.2 1.2 0 0 1 .361-.412l.075-.033q.225-.075.53.146.304.22.571.543t.642.726.656.6l.188.113q.187.113.487.206.3.094.525.047l2.399-.038q.356 0 .553-.117.196-.117.234-.258a.7.7 0 0 0 .005-.318 1.2 1.2 0 0 0-.066-.249"/></svg>